<svg xmlns="http://www.w3.org/2000/svg" viewBox="0 0 800 1120"><defs><style>.cls-1,.cls-2,.cls-3,.cls-6{fill:none;stroke:#231f20;stroke-linecap:round;stroke-linejoin:round;}.cls-1{stroke-width:0.9px;}.cls-2{stroke-width:0.24px;}.cls-3{stroke-width:0.36px;}.cls-4{font-size:12.92px;font-family:AndaleMono, Andale Mono;}.cls-5{letter-spacing:1.28em;}.cls-6{stroke-width:0.75px;}</style></defs><g id="Wall"><line class="cls-1" x1="476.71" y1="382.45" x2="481.4" y2="382.45"/><line class="cls-1" x1="476.71" y1="354.27" x2="481.4" y2="354.27"/><line class="cls-1" x1="326.42" y1="519.27" x2="321.73" y2="519.27"/><line class="cls-1" x1="326.42" y1="619.59" x2="321.73" y2="619.59"/><line class="cls-1" x1="326.42" y1="462.28" x2="326.42" y2="519.27"/><polyline class="cls-1" points="326.42 349.57 321.73 349.57 321.73 387.14"/><line class="cls-1" x1="321.73" y1="462.28" x2="321.73" y2="519.27"/><polyline class="cls-1" points="395.3 642.31 395.3 564.67 418.79 564.67"/><polyline class="cls-1" points="398.44 642.31 398.44 567.8 418.79 567.8"/><polyline class="cls-1" points="445.4 567.8 448.53 567.8 448.53 543.69 476.71 543.69"/><line class="cls-1" x1="326.42" y1="387.14" x2="321.73" y2="387.14"/><line class="cls-1" x1="326.42" y1="462.28" x2="321.73" y2="462.28"/><line class="cls-1" x1="326.42" y1="387.14" x2="326.42" y2="349.57"/><line class="cls-1" x1="354.6" y1="354.27" x2="354.6" y2="349.57"/><line class="cls-1" x1="476.71" y1="588.15" x2="481.4" y2="588.15"/><line class="cls-1" x1="476.71" y1="567.8" x2="481.4" y2="567.8"/><polyline class="cls-1" points="326.42 619.59 326.42 642.31 390.29 642.31"/><line class="cls-1" x1="390.29" y1="642.31" x2="395.3" y2="642.31"/><line class="cls-1" x1="398.43" y1="642.31" x2="476.71" y2="642.31"/><line class="cls-1" x1="476.71" y1="434.11" x2="476.71" y2="382.45"/><polyline class="cls-1" points="321.73 619.59 321.73 647.01 390.29 647.01"/><polyline class="cls-1" points="390.29 647.01 481.4 647.01 481.4 588.15"/><line class="cls-1" x1="481.4" y1="567.8" x2="481.4" y2="462.28"/><line class="cls-1" x1="481.4" y1="434.11" x2="481.4" y2="382.45"/><line class="cls-1" x1="476.71" y1="349.57" x2="476.71" y2="354.27"/><line class="cls-1" x1="445.4" y1="354.27" x2="445.4" y2="349.57"/><line class="cls-1" x1="445.4" y1="354.27" x2="354.6" y2="354.27"/><polyline class="cls-1" points="481.4 354.27 481.4 349.57 476.71 349.57"/><line class="cls-1" x1="445.4" y1="349.57" x2="354.6" y2="349.57"/><line class="cls-1" x1="445.4" y1="567.8" x2="445.4" y2="564.67"/><line class="cls-1" x1="418.79" y1="564.67" x2="418.79" y2="567.8"/><line class="cls-1" x1="476.71" y1="462.28" x2="481.4" y2="462.28"/><line class="cls-1" x1="476.71" y1="434.11" x2="481.4" y2="434.11"/><line class="cls-1" x1="476.71" y1="588.15" x2="476.71" y2="642.31"/><polyline class="cls-1" points="445.4 564.67 445.4 519.27 448.53 519.27 448.53 540.56 476.71 540.56"/><line class="cls-1" x1="476.71" y1="567.8" x2="476.71" y2="543.69"/><line class="cls-1" x1="476.71" y1="540.56" x2="476.71" y2="462.28"/></g><g id="Window_Door_Stairs" data-name="Window/Door/Stairs"><line class="cls-2" x1="481.4" y1="382.45" x2="481.4" y2="354.27"/><line class="cls-2" x1="326.42" y1="619.59" x2="326.42" y2="519.27"/><line class="cls-2" x1="321.73" y1="519.27" x2="321.73" y2="619.59"/><polyline class="cls-2" points="476.71 462.28 445.4 462.28 445.4 470.43 476.71 470.43"/><polyline class="cls-2" points="445.4 470.43 445.4 478.56 476.71 478.56"/><polyline class="cls-2" points="445.4 478.56 445.4 486.71 476.71 486.71"/><polyline class="cls-2" points="445.4 486.71 445.4 494.85 476.71 494.85"/><polyline class="cls-2" points="445.4 494.85 445.4 502.99 476.71 502.99"/><polyline class="cls-2" points="445.4 502.99 445.4 511.13 476.71 511.13"/><line class="cls-2" x1="448.53" y1="535.55" x2="476.71" y2="535.55"/><line class="cls-2" x1="476.71" y1="535.55" x2="448.53" y2="535.55"/><line class="cls-2" x1="354.6" y1="349.57" x2="326.42" y2="349.57"/><line class="cls-2" x1="321.73" y1="462.28" x2="321.73" y2="387.14"/><line class="cls-2" x1="326.42" y1="462.28" x2="326.42" y2="387.14"/><line class="cls-2" x1="481.4" y1="588.15" x2="481.4" y2="567.8"/><line class="cls-2" x1="476.71" y1="567.8" x2="476.71" y2="588.15"/><line class="cls-2" x1="476.71" y1="349.57" x2="445.4" y2="349.57"/><line class="cls-2" x1="326.42" y1="354.27" x2="354.6" y2="354.27"/><line class="cls-2" x1="445.4" y1="354.27" x2="476.71" y2="354.27"/><line class="cls-2" x1="481.4" y1="462.28" x2="481.4" y2="434.11"/><line class="cls-2" x1="476.71" y1="462.28" x2="476.71" y2="434.11"/><polyline class="cls-2" points="321.73 387.14 284.15 387.14 284.15 619.59 321.73 619.59"/><line class="cls-2" x1="476.71" y1="527.41" x2="448.53" y2="527.41"/><polyline class="cls-2" points="445.4 511.13 445.4 519.27 459.4 519.27 476.71 519.27"/><line class="cls-2" x1="476.71" y1="382.45" x2="476.71" y2="354.27"/><polyline class="cls-2" points="445.4 368.36 445.4 434.11 476.71 434.11"/></g><g id="Accessory"><path class="cls-3" d="M400,346.1a4.8,4.8,0,0,0,.85-.08,4.43,4.43,0,0,0,.88-.25,4.6,4.6,0,0,0,1.59-1,4.74,4.74,0,0,0,1.05-1.59,5.11,5.11,0,0,0,.25-.87,4.61,4.61,0,0,0,0-1.71,5.5,5.5,0,0,0-.25-.88,5,5,0,0,0-1.05-1.59,4.57,4.57,0,0,0-1.59-1,3.85,3.85,0,0,0-.88-.25,4.56,4.56,0,0,0-1.7,0,3.85,3.85,0,0,0-.88.25,4.57,4.57,0,0,0-1.59,1,5,5,0,0,0-1.05,1.59,5.5,5.5,0,0,0-.25.88,4.61,4.61,0,0,0,0,1.71,5.11,5.11,0,0,0,.25.87,4.74,4.74,0,0,0,1.05,1.59,4.6,4.6,0,0,0,1.59,1,4.43,4.43,0,0,0,.88.25A4.8,4.8,0,0,0,400,346.1Z"/><line class="cls-3" x1="376.52" y1="614.29" x2="376.52" y2="564.67"/><line class="cls-3" x1="376.52" y1="642.31" x2="376.52" y2="614.29"/><line class="cls-3" x1="476.71" y1="368.36" x2="326.42" y2="368.36"/><line class="cls-3" x1="395.3" y1="564.67" x2="376.52" y2="564.67"/><line class="cls-3" x1="345.21" y1="619.59" x2="326.42" y2="619.59"/><polyline class="cls-3" points="345.21 619.59 345.21 519.27 326.42 519.27"/><line class="cls-3" x1="418.79" y1="642.31" x2="418.79" y2="567.8"/></g><g id="TEXT"><text class="cls-4"><tspan x="24.74" y="1024.55">1</tspan><tspan class="cls-5" x="32.5" y="1024.55">	</tspan><tspan x="56.73" y="1024.55">Kitchen</tspan><tspan x="24.74" y="1043.62">2</tspan><tspan class="cls-5" x="32.5" y="1043.62">	</tspan><tspan x="56.73" y="1043.62">Living</tspan><tspan x="24.74" y="1062.69">3</tspan><tspan class="cls-5" x="32.5" y="1062.69">	</tspan><tspan x="56.73" y="1062.69">Bathroom</tspan><tspan x="24.74" y="1081.76">4</tspan><tspan class="cls-5" x="32.5" y="1081.76">	</tspan><tspan x="56.73" y="1081.76">Deck</tspan></text><circle class="cls-6" cx="765.53" cy="1024.02" r="11.44"/><line class="cls-6" x1="760.45" y1="1013.76" x2="765.53" y2="1024.02"/><text class="cls-4" transform="translate(356.99 600.09)">1</text><text class="cls-4" transform="translate(386.42 450.65)">2</text><text class="cls-4" transform="translate(299.06 515.86)">4</text><text class="cls-4" transform="translate(443.87 600.09)">3</text></g></svg>