<svg xmlns="http://www.w3.org/2000/svg" viewBox="0 0 800 1120"><defs><style>.cls-1,.cls-2,.cls-3,.cls-4{fill:none;stroke:#231f20;stroke-linecap:round;stroke-linejoin:round;}.cls-1{stroke-width:0.9px;}.cls-2{stroke-width:0.24px;}.cls-3{stroke-width:0.36px;}.cls-4{stroke-width:0.75px;}</style></defs><g id="Wall"><line class="cls-1" x1="476.71" y1="382.45" x2="481.4" y2="382.45"/><line class="cls-1" x1="476.71" y1="354.27" x2="481.4" y2="354.27"/><line class="cls-1" x1="326.42" y1="519.27" x2="321.73" y2="519.27"/><line class="cls-1" x1="326.42" y1="619.59" x2="321.73" y2="619.59"/><line class="cls-1" x1="326.42" y1="462.28" x2="326.42" y2="519.27"/><polyline class="cls-1" points="326.42 349.57 321.73 349.57 321.73 387.14"/><line class="cls-1" x1="321.73" y1="462.28" x2="321.73" y2="519.27"/><polyline class="cls-1" points="395.3 642.31 395.3 564.67 418.79 564.67"/><polyline class="cls-1" points="398.44 642.31 398.44 567.8 418.79 567.8"/><polyline class="cls-1" points="445.4 567.8 448.53 567.8 448.53 543.69 476.71 543.69"/><line class="cls-1" x1="326.42" y1="387.14" x2="321.73" y2="387.14"/><line class="cls-1" x1="326.42" y1="462.28" x2="321.73" y2="462.28"/><line class="cls-1" x1="326.42" y1="387.14" x2="326.42" y2="349.57"/><line class="cls-1" x1="354.6" y1="354.27" x2="354.6" y2="349.57"/><line class="cls-1" x1="476.71" y1="588.15" x2="481.4" y2="588.15"/><line class="cls-1" x1="476.71" y1="567.8" x2="481.4" y2="567.8"/><polyline class="cls-1" points="326.42 619.59 326.42 642.31 390.29 642.31"/><line class="cls-1" x1="390.29" y1="642.31" x2="395.3" y2="642.31"/><line class="cls-1" x1="398.43" y1="642.31" x2="476.71" y2="642.31"/><line class="cls-1" x1="476.71" y1="434.11" x2="476.71" y2="382.45"/><polyline class="cls-1" points="321.73 619.59 321.73 647.01 390.29 647.01"/><polyline class="cls-1" points="390.29 647.01 481.4 647.01 481.4 588.15"/><line class="cls-1" x1="481.4" y1="567.8" x2="481.4" y2="462.28"/><line class="cls-1" x1="481.4" y1="434.11" x2="481.4" y2="382.45"/><line class="cls-1" x1="476.71" y1="349.57" x2="476.71" y2="354.27"/><line class="cls-1" x1="445.4" y1="354.27" x2="445.4" y2="349.57"/><line class="cls-1" x1="445.4" y1="354.27" x2="354.6" y2="354.27"/><polyline class="cls-1" points="481.4 354.27 481.4 349.57 476.71 349.57"/><line class="cls-1" x1="445.4" y1="349.57" x2="354.6" y2="349.57"/><line class="cls-1" x1="445.4" y1="567.8" x2="445.4" y2="564.67"/><line class="cls-1" x1="418.79" y1="564.67" x2="418.79" y2="567.8"/><line class="cls-1" x1="476.71" y1="462.28" x2="481.4" y2="462.28"/><line class="cls-1" x1="476.71" y1="434.11" x2="481.4" y2="434.11"/><line class="cls-1" x1="476.71" y1="588.15" x2="476.71" y2="642.31"/><polyline class="cls-1" points="445.4 564.67 445.4 519.27 448.53 519.27 448.53 540.56 476.71 540.56"/><line class="cls-1" x1="476.71" y1="567.8" x2="476.71" y2="543.69"/><line class="cls-1" x1="476.71" y1="540.56" x2="476.71" y2="462.28"/></g><g id="Window_Door_Stairs" data-name="Window/Door/Stairs"><line class="cls-2" x1="481.4" y1="382.45" x2="481.4" y2="354.27"/><line class="cls-2" x1="326.42" y1="619.59" x2="326.42" y2="519.27"/><line class="cls-2" x1="321.73" y1="519.27" x2="321.73" y2="619.59"/><polyline class="cls-2" points="476.71 462.28 445.4 462.28 445.4 470.43 476.71 470.43"/><polyline class="cls-2" points="445.4 470.43 445.4 478.56 476.71 478.56"/><polyline class="cls-2" points="445.4 478.56 445.4 486.71 476.71 486.71"/><polyline class="cls-2" points="445.4 486.71 445.4 494.85 476.71 494.85"/><polyline class="cls-2" points="445.4 494.85 445.4 502.99 476.71 502.99"/><polyline class="cls-2" points="445.4 502.99 445.4 511.13 476.71 511.13"/><line class="cls-2" x1="448.53" y1="535.55" x2="476.71" y2="535.55"/><line class="cls-2" x1="476.71" y1="535.55" x2="448.53" y2="535.55"/><line class="cls-2" x1="354.6" y1="349.57" x2="326.42" y2="349.57"/><line class="cls-2" x1="321.73" y1="462.28" x2="321.73" y2="387.14"/><line class="cls-2" x1="326.42" y1="462.28" x2="326.42" y2="387.14"/><line class="cls-2" x1="481.4" y1="588.15" x2="481.4" y2="567.8"/><line class="cls-2" x1="476.71" y1="567.8" x2="476.71" y2="588.15"/><line class="cls-2" x1="476.71" y1="349.57" x2="445.4" y2="349.57"/><line class="cls-2" x1="326.42" y1="354.27" x2="354.6" y2="354.27"/><line class="cls-2" x1="445.4" y1="354.27" x2="476.71" y2="354.27"/><line class="cls-2" x1="481.4" y1="462.28" x2="481.4" y2="434.11"/><line class="cls-2" x1="476.71" y1="462.28" x2="476.71" y2="434.11"/><polyline class="cls-2" points="321.73 387.14 284.15 387.14 284.15 619.59 321.73 619.59"/><line class="cls-2" x1="476.71" y1="527.41" x2="448.53" y2="527.41"/><polyline class="cls-2" points="445.4 511.13 445.4 519.27 459.4 519.27 476.71 519.27"/><line class="cls-2" x1="476.71" y1="382.45" x2="476.71" y2="354.27"/><polyline class="cls-2" points="445.4 368.36 445.4 434.11 476.71 434.11"/></g><g id="Accessory"><path class="cls-3" d="M400,346.1a4.8,4.8,0,0,0,.85-.08,4.43,4.43,0,0,0,.88-.25,4.6,4.6,0,0,0,1.59-1,4.74,4.74,0,0,0,1.05-1.59,5.11,5.11,0,0,0,.25-.87,4.61,4.61,0,0,0,0-1.71,5.5,5.5,0,0,0-.25-.88,5,5,0,0,0-1.05-1.59,4.57,4.57,0,0,0-1.59-1,3.85,3.85,0,0,0-.88-.25,4.56,4.56,0,0,0-1.7,0,3.85,3.85,0,0,0-.88.25,4.57,4.57,0,0,0-1.59,1,5,5,0,0,0-1.05,1.59,5.5,5.5,0,0,0-.25.88,4.61,4.61,0,0,0,0,1.71,5.11,5.11,0,0,0,.25.87,4.74,4.74,0,0,0,1.05,1.59,4.6,4.6,0,0,0,1.59,1,4.43,4.43,0,0,0,.88.25A4.8,4.8,0,0,0,400,346.1Z"/><line class="cls-3" x1="376.52" y1="614.29" x2="376.52" y2="564.67"/><line class="cls-3" x1="376.52" y1="642.31" x2="376.52" y2="614.29"/><line class="cls-3" x1="476.71" y1="368.36" x2="326.42" y2="368.36"/><line class="cls-3" x1="395.3" y1="564.67" x2="376.52" y2="564.67"/><line class="cls-3" x1="345.21" y1="619.59" x2="326.42" y2="619.59"/><polyline class="cls-3" points="345.21 619.59 345.21 519.27 326.42 519.27"/><line class="cls-3" x1="418.79" y1="642.31" x2="418.79" y2="567.8"/></g><g id="TEXT"><path d="M31.17,1024.55H26.49v-.9h1.88v-6.92l-1.78.89v-1l1.93-1h.89v8h1.76Z"/><path d="M64.34,1024.55H63l-3-4.37-.94,1v3.34h-1v-8.9h1v4.26l3.95-4.26h1.19l-3.48,3.76Z"/><path d="M69.27,1024.55h-1v-5.72H66.35V1018h2.92Zm-.48-9.06a.68.68,0,0,1,.47,1.16.63.63,0,0,1-.93,0,.65.65,0,0,1-.2-.47.69.69,0,0,1,.2-.48A.65.65,0,0,1,68.79,1015.49Z"/><path d="M78.72,1024.25a4.55,4.55,0,0,1-2,.46c-1.17,0-1.76-.62-1.76-1.86v-4H73.75V1018H75v-1.8h1v1.8h2.24v.85H76v3.76a1.43,1.43,0,0,0,.27.93.86.86,0,0,0,.72.33,3.79,3.79,0,0,0,1.59-.36Z"/><path d="M86.39,1024.33a4.53,4.53,0,0,1-1.89.39,3.32,3.32,0,0,1-2.48-.94,3.46,3.46,0,0,1-.92-2.51,3.43,3.43,0,0,1,.93-2.51,3.29,3.29,0,0,1,2.45-.94,5,5,0,0,1,1.88.35l-.26.81a4.85,4.85,0,0,0-1.61-.31,2.2,2.2,0,0,0-1.72.7,2.74,2.74,0,0,0-.63,1.9,2.7,2.7,0,0,0,.65,1.85,2.2,2.2,0,0,0,1.71.74,5.11,5.11,0,0,0,1.72-.32Z"/><path d="M94.16,1024.55h-1v-4.21a2.19,2.19,0,0,0-.28-1.27,1,1,0,0,0-.88-.4,2.82,2.82,0,0,0-1.94,1.12v4.76h-1v-8.9h1v3.29a3.07,3.07,0,0,1,2.24-1.12c1.23,0,1.84.74,1.84,2.23Z"/><path d="M102.11,1021.29H97.6a2.69,2.69,0,0,0,.65,1.85,2.05,2.05,0,0,0,1.59.72,5.84,5.84,0,0,0,1.84-.32l.17.79a4.9,4.9,0,0,1-2,.39,3.11,3.11,0,0,1-2.36-.94,3.56,3.56,0,0,1-.89-2.54,3.7,3.7,0,0,1,.8-2.49,2.63,2.63,0,0,1,2.08-.93,2.45,2.45,0,0,1,1.9.86,3.37,3.37,0,0,1,.76,2.31Zm-1.07-.8a1.84,1.84,0,0,0-.48-1.29,1.44,1.44,0,0,0-1.07-.53,1.72,1.72,0,0,0-1.27.51,1.94,1.94,0,0,0-.55,1.31Z"/><path d="M109.67,1024.55h-1v-4.21a2.18,2.18,0,0,0-.29-1.27,1,1,0,0,0-.88-.4,2.8,2.8,0,0,0-1.93,1.12v4.76h-1V1018h1v1a3.06,3.06,0,0,1,2.23-1.12c1.23,0,1.85.74,1.85,2.23Z"/><path d="M30.93,1043.62H26v-.75c1.24-1.38,2-2.31,2.41-2.78a7.66,7.66,0,0,0,.91-1.48,3.81,3.81,0,0,0,.34-1.55,1.52,1.52,0,0,0-.45-1.17,1.74,1.74,0,0,0-1.26-.43,5.36,5.36,0,0,0-1.68.38l-.15-.89a5.07,5.07,0,0,1,2-.4,2.72,2.72,0,0,1,1.92.67,2.36,2.36,0,0,1,.73,1.8,3.71,3.71,0,0,1-.38,1.59,7.67,7.67,0,0,1-1,1.51c-.39.48-1.15,1.35-2.28,2.6h3.74Z"/><path d="M63.19,1043.62H58.35v-8.9h1v8h3.81Z"/><path d="M69.27,1043.62h-1v-5.72H66.35v-.85h2.92Zm-.48-9.06a.68.68,0,0,1,.47,1.16.63.63,0,0,1-.93,0,.65.65,0,0,1-.2-.47.69.69,0,0,1,.2-.48A.65.65,0,0,1,68.79,1034.56Z"/><path d="M79,1037.05l-2.5,6.57h-.89l-2.48-6.57h1.07l1.86,5.23,1.86-5.23Z"/><path d="M84.77,1043.62h-1v-5.72H81.85v-.85h2.92Zm-.48-9.06a.66.66,0,0,1,.48.2.7.7,0,0,1,0,1,.66.66,0,0,1-.48.2.6.6,0,0,1-.45-.21.61.61,0,0,1-.2-.47.65.65,0,0,1,.2-.48A.62.62,0,0,1,84.29,1034.56Z"/><path d="M94.16,1043.62h-1v-4.21a2.19,2.19,0,0,0-.28-1.27,1,1,0,0,0-.88-.4,2.86,2.86,0,0,0-1.94,1.12v4.76h-1v-6.57h1v1a3.07,3.07,0,0,1,2.24-1.12c1.23,0,1.84.74,1.84,2.23Z"/><path d="M98.67,1041.14c-.61.3-.92.56-.92.79a.37.37,0,0,0,.22.31,1.14,1.14,0,0,0,.57.13l2.22-.07a1.77,1.77,0,0,1,1.22.39,1.34,1.34,0,0,1,.44,1.09,2,2,0,0,1-1,1.78,4.16,4.16,0,0,1-2.33.66,3.15,3.15,0,0,1-1.79-.46,1.37,1.37,0,0,1-.69-1.18c0-.53.36-1,1.07-1.33-.59-.28-.89-.62-.89-1s.38-.9,1.15-1.3a2.15,2.15,0,0,1-.81-.83,2.19,2.19,0,0,1-.29-1.08,2,2,0,0,1,.63-1.52,2.21,2.21,0,0,1,1.58-.6,2.66,2.66,0,0,1,1.23.29l1.95-.3v1H101a2.31,2.31,0,0,1,.29,1.17,2.06,2.06,0,0,1-.63,1.52,2.14,2.14,0,0,1-1.58.61Zm.43,4.32a3,3,0,0,0,1.65-.44,1.24,1.24,0,0,0,.69-1.07c0-.43-.33-.65-1-.65-.22,0-.59,0-1.11,0l-.79,0a.94.94,0,0,0-.43.23,2.16,2.16,0,0,0-.45.46.84.84,0,0,0-.15.47.77.77,0,0,0,.43.66A2.07,2.07,0,0,0,99.1,1045.46Zm0-5.07a1.16,1.16,0,0,0,.89-.37,1.47,1.47,0,0,0,.34-1,1.41,1.41,0,0,0-.33-1,1.19,1.19,0,0,0-.9-.36,1.16,1.16,0,0,0-.88.37,1.36,1.36,0,0,0-.36,1,1.38,1.38,0,0,0,.36,1A1.17,1.17,0,0,0,99.06,1040.39Z"/><path d="M29.17,1057.91a2.5,2.5,0,0,1,1.31.83,2.06,2.06,0,0,1,.49,1.35,2.51,2.51,0,0,1-.91,2,3.19,3.19,0,0,1-2.16.8,3.85,3.85,0,0,1-1.9-.47l.2-.85a4,4,0,0,0,1.74.41,2,2,0,0,0,1.37-.5,1.61,1.61,0,0,0,.58-1.29,1.53,1.53,0,0,0-.62-1.26,2.52,2.52,0,0,0-1.62-.49h-.27v-.85h.08a2.63,2.63,0,0,0,1.6-.46,1.43,1.43,0,0,0,.63-1.23,1.2,1.2,0,0,0-.45-1,2,2,0,0,0-1.25-.35,3.86,3.86,0,0,0-1.54.37l-.14-.89a4.14,4.14,0,0,1,1.73-.39,3,3,0,0,1,2,.63,2,2,0,0,1,.77,1.61,2,2,0,0,1-.46,1.27,2.05,2.05,0,0,1-1.14.74Z"/><path d="M61.68,1057.81a2.49,2.49,0,0,1,1.39.81,2.1,2.1,0,0,1,.51,1.42,2.38,2.38,0,0,1-.88,1.93,3.24,3.24,0,0,1-2.12.72H58.05v-8.9h2.47a3.22,3.22,0,0,1,2,.56,1.93,1.93,0,0,1,.73,1.6,1.68,1.68,0,0,1-.42,1.12,2.32,2.32,0,0,1-1.16.71Zm-2.59-.48H60.3c1.26,0,1.9-.45,1.9-1.36a1.1,1.1,0,0,0-.47-1,2.37,2.37,0,0,0-1.37-.33H59.09Zm0,4.46h1.17a2.61,2.61,0,0,0,1.63-.47,1.53,1.53,0,0,0,.6-1.28,1.63,1.63,0,0,0-.59-1.34,2.75,2.75,0,0,0-1.72-.47H59.09Z"/><path d="M71.07,1062.69h-1a3.77,3.77,0,0,1-.12-1.06,2.62,2.62,0,0,1-2.28,1.23,1.81,1.81,0,0,1-1.29-.52,1.76,1.76,0,0,1-.56-1.34,1.85,1.85,0,0,1,.2-.86,1.71,1.71,0,0,1,.57-.63,3.12,3.12,0,0,1,.92-.4,6.25,6.25,0,0,1,1.29-.2l1.1-.09v-.32c0-1.13-.52-1.69-1.57-1.69a4,4,0,0,0-.95.16,5.74,5.74,0,0,0-1,.38l-.26-.7a5.53,5.53,0,0,1,2.5-.69c1.5,0,2.25.79,2.25,2.38v2.82A6.42,6.42,0,0,0,71.07,1062.69Zm-1.15-2v-1.19c-.88.08-1.49.15-1.82.22a2.06,2.06,0,0,0-.86.39.93.93,0,0,0-.36.77.89.89,0,0,0,.31.71,1.12,1.12,0,0,0,.78.27,2,2,0,0,0,1-.31A3.05,3.05,0,0,0,69.92,1060.74Z"/><path d="M78.72,1062.39a4.55,4.55,0,0,1-2,.46c-1.17,0-1.76-.62-1.76-1.86v-4H73.75v-.85H75v-1.8h1v1.8h2.24v.85H76v3.76a1.43,1.43,0,0,0,.27.93.86.86,0,0,0,.72.33,3.79,3.79,0,0,0,1.59-.36Z"/><path d="M86.41,1062.69h-1v-4.21a2.27,2.27,0,0,0-.28-1.27,1,1,0,0,0-.88-.4,2.86,2.86,0,0,0-1.94,1.12v4.76h-1v-8.9h1v3.29a3.07,3.07,0,0,1,2.23-1.12c1.24,0,1.85.74,1.85,2.23Z"/><path d="M94.27,1056.29l-.4,1a2.86,2.86,0,0,0-1.12-.28,1.64,1.64,0,0,0-.86.25,2.65,2.65,0,0,0-.76.71,2.23,2.23,0,0,0-.35.52v4.25h-1v-6.57h1v1.33a2.32,2.32,0,0,1,2-1.49A3.37,3.37,0,0,1,94.27,1056.29Z"/><path d="M99.37,1056a2.71,2.71,0,0,1,2.16,1,3.74,3.74,0,0,1,.8,2.49,3.8,3.8,0,0,1-.8,2.51,2.71,2.71,0,0,1-2.16.95,2.68,2.68,0,0,1-2.16-.95,4.32,4.32,0,0,1,0-5A2.68,2.68,0,0,1,99.37,1056Zm0,6a1.61,1.61,0,0,0,1.41-.75,3.16,3.16,0,0,0,.52-1.84,3.2,3.2,0,0,0-.51-1.87,1.66,1.66,0,0,0-1.42-.73,1.64,1.64,0,0,0-1.42.72,3.63,3.63,0,0,0,0,3.73A1.63,1.63,0,0,0,99.37,1062Z"/><path d="M107.12,1056a2.69,2.69,0,0,1,2.16,1,3.74,3.74,0,0,1,.8,2.49,3.8,3.8,0,0,1-.8,2.51,2.93,2.93,0,0,1-4.32,0,4.32,4.32,0,0,1,0-5A2.7,2.7,0,0,1,107.12,1056Zm0,6a1.61,1.61,0,0,0,1.41-.75,3.16,3.16,0,0,0,.52-1.84,3.2,3.2,0,0,0-.51-1.87,1.75,1.75,0,0,0-2.84,0,3.28,3.28,0,0,0-.5,1.88,3.22,3.22,0,0,0,.51,1.85A1.63,1.63,0,0,0,107.12,1062Z"/><path d="M117.94,1062.69h-1v-4.31c0-1.05-.2-1.57-.58-1.57q-.3,0-.66.54a2.86,2.86,0,0,0-.35.6v4.74h-1v-4.31c0-1.05-.2-1.57-.59-1.57-.19,0-.41.18-.65.54a3.54,3.54,0,0,0-.35.6v4.74h-1v-6.57h1v1a2.86,2.86,0,0,1,.66-.84,1.19,1.19,0,0,1,.76-.31,1,1,0,0,1,.71.31,1.69,1.69,0,0,1,.44.84,2.57,2.57,0,0,1,.66-.84,1.21,1.21,0,0,1,.76-.31c.79,0,1.19.71,1.19,2.13Z"/><path d="M31.51,1079.7H30.42v2.06h-1v-2.06H25.51v-.78l3.51-6.06h1.4v5.94h1.09Zm-2.13-.9v-4.92l-2.82,4.92Z"/><path d="M58.05,1072.86h1.76a3.58,3.58,0,0,1,2.8,1.19,5.59,5.59,0,0,1,0,6.55,3.57,3.57,0,0,1-2.74,1.16h-1.8Zm1,8h.73a2.4,2.4,0,0,0,2-.94,4.09,4.09,0,0,0,.74-2.61,4.14,4.14,0,0,0-.74-2.6,2.41,2.41,0,0,0-2-1h-.73Z"/><path d="M71.1,1078.51H66.59a2.69,2.69,0,0,0,.65,1.84,2.05,2.05,0,0,0,1.59.72,5.57,5.57,0,0,0,1.84-.32l.17.79a4.9,4.9,0,0,1-2,.39,3.11,3.11,0,0,1-2.36-.94,3.56,3.56,0,0,1-.89-2.54,3.7,3.7,0,0,1,.8-2.49,2.63,2.63,0,0,1,2.08-.93,2.45,2.45,0,0,1,1.9.86,3.37,3.37,0,0,1,.76,2.31ZM70,1077.7a1.84,1.84,0,0,0-.48-1.29,1.44,1.44,0,0,0-1.07-.53,1.72,1.72,0,0,0-1.27.51,1.94,1.94,0,0,0-.55,1.31Z"/><path d="M78.63,1081.54a4.49,4.49,0,0,1-1.88.39,3.31,3.31,0,0,1-2.48-.94,3.46,3.46,0,0,1-.92-2.51,3.43,3.43,0,0,1,.93-2.51,3.26,3.26,0,0,1,2.44-.94,5.24,5.24,0,0,1,1.89.35l-.26.81a4.89,4.89,0,0,0-1.61-.31,2.21,2.21,0,0,0-1.72.7,3,3,0,0,0,0,3.75,2.2,2.2,0,0,0,1.71.74,4.82,4.82,0,0,0,1.71-.32Z"/><path d="M87.06,1081.76h-1.3L83,1078.49l-.64.56v2.71h-1v-8.9h1v5.1l3.09-2.77h1.25l-3,2.68Z"/><circle class="cls-4" cx="765.53" cy="1024.02" r="11.44"/><line class="cls-4" x1="760.45" y1="1013.76" x2="765.53" y2="1024.02"/><path d="M363.41,600.09h-4.68v-.91h1.88v-6.91l-1.77.89v-1l1.92-1h.89v8h1.76Z"/><path d="M392.61,450.65h-4.9v-.75c1.24-1.39,2.05-2.31,2.42-2.78a7.21,7.21,0,0,0,.9-1.49,3.75,3.75,0,0,0,.35-1.54,1.53,1.53,0,0,0-.46-1.18,1.78,1.78,0,0,0-1.26-.42,5.09,5.09,0,0,0-1.68.38l-.14-.89a5,5,0,0,1,2-.4,2.69,2.69,0,0,1,1.92.67,2.3,2.3,0,0,1,.73,1.79,3.64,3.64,0,0,1-.38,1.59,7.73,7.73,0,0,1-1,1.52c-.39.48-1.15,1.35-2.28,2.59h3.75Z"/><path d="M305.83,513.81h-1.09v2.05h-1v-2.05h-3.87V513l3.51-6.06h1.4v5.95h1.09Zm-2.13-.9V508l-2.82,4.92Z"/><path d="M448.3,595.31a2.45,2.45,0,0,1,1.3.82,2.12,2.12,0,0,1,.5,1.36,2.52,2.52,0,0,1-.92,2,3.19,3.19,0,0,1-2.16.8,3.84,3.84,0,0,1-1.89-.47l.2-.85a4.09,4.09,0,0,0,1.73.41,2,2,0,0,0,1.38-.5,1.66,1.66,0,0,0,.57-1.29,1.52,1.52,0,0,0-.61-1.26,2.5,2.5,0,0,0-1.62-.49h-.27V595h.07a2.67,2.67,0,0,0,1.61-.46,1.43,1.43,0,0,0,.63-1.23,1.21,1.21,0,0,0-.46-1,2,2,0,0,0-1.25-.36,3.89,3.89,0,0,0-1.54.38l-.13-.89a4.1,4.1,0,0,1,1.72-.39,3.07,3.07,0,0,1,2,.62,2,2,0,0,1,.77,1.62,2,2,0,0,1-.47,1.27,2,2,0,0,1-1.13.74Z"/></g></svg>