<?xml version="1.0" encoding="utf-8"?>
<!-- Generator: Adobe Illustrator 26.3.1, SVG Export Plug-In . SVG Version: 6.00 Build 0)  -->
<svg version="1.1" id="Layer_1" xmlns="http://www.w3.org/2000/svg" xmlns:xlink="http://www.w3.org/1999/xlink" x="0px" y="0px"
	 viewBox="0 0 800 1120" style="enable-background:new 0 0 800 1120;" xml:space="preserve">
<style type="text/css">
	.st0{fill:#231F20;}
	.st1{font-family:'ACaslonPro-Regular';}
	.st2{font-size:44.7709px;}
	.st3{letter-spacing:-1;}
	.st4{letter-spacing:1;}
	.st5{font-size:33.5782px;}
	.st6{letter-spacing:-6;}
	.st7{letter-spacing:-4;}
	.st8{letter-spacing:-2;}
	.st9{clip-path:url(#SVGID_00000176043095124055658440000014598066730934320268_);}
	.st10{font-family:'KozGoPr6N-Regular-83pv-RKSJ-H';}
	.st11{font-size:38.0553px;}
	.st12{letter-spacing:-5;}
	.st13{font-size:31.3397px;}
</style>
<text transform="matrix(1 0 0 1 50.7646 64.6341)"><tspan x="0" y="0" class="st0 st1 st2 st3">F</tspan><tspan x="25" y="0" class="st0 st1 st2">our</tspan><tspan x="85.2" y="0" class="st0 st1 st2"> </tspan><tspan x="95.9" y="0" class="st0 st1 st2 st4">V</tspan><tspan x="128.9" y="0" class="st0 st1 st2">isits</tspan></text>
<text transform="matrix(1 0 0 1 249.6787 64.6341)" class="st0 st1 st5"> </text>
<text transform="matrix(1 0 0 1 256.8643 64.6341)"><tspan x="0" y="0" class="st0 st1 st2">to </tspan><tspan x="47.9" y="0" class="st0 st1 st2">F</tspan><tspan x="75.6" y="0" class="st0 st1 st2">i</tspan><tspan x="87.5" y="0" class="st0 st1 st2">f</tspan><tspan x="102.3" y="0" class="st0 st1 st2">t</tspan><tspan x="117.2" y="0" class="st0 st1 st2 st4">y</tspan><tspan x="138.5" y="0" class="st0 st1 st2 st6">-</tspan><tspan x="150.6" y="0" class="st0 st1 st2 st7">T</tspan><tspan x="177.8" y="0" class="st0 st1 st2">w</tspan><tspan x="208.3" y="0" class="st0 st1 st2">o </tspan><tspan x="242" y="0" class="st0 st1 st2 st8">P</tspan><tspan x="267.1" y="0" class="st0 st1 st2">osts</tspan></text>
<g>
	<defs>
		<rect id="SVGID_1_" y="-22" width="799.5" height="1142.2"/>
	</defs>
	<clipPath id="SVGID_00000154424057192272001230000013559644918500042883_">
		<use xlink:href="#SVGID_1_"  style="overflow:visible;"/>
	</clipPath>
	<g style="clip-path:url(#SVGID_00000154424057192272001230000013559644918500042883_);">
		<text transform="matrix(1 0 0 1 50.7646 1088.7382)"><tspan x="0" y="0" class="st0 st1 st2">5</tspan><tspan x="21.8" y="0" class="st0 st1 st2">2</tspan></text>
	</g>
</g>
<text transform="matrix(1 0 0 1 97.7744 1088.7382)"><tspan x="0" y="0" class="st0 st10 st11 st3">本の</tspan><tspan x="73.4" y="0" class="st0 st10 st11">柱</tspan><tspan x="111" y="0" class="st0 st10 st11 st8">を</tspan><tspan x="147" y="0" class="st0 st10 st11 st12">め</tspan><tspan x="179.9" y="0" class="st0 st10 st11 st7">ぐ</tspan><tspan x="213.7" y="0" class="st0 st10 st11">る</tspan></text>
<text transform="matrix(1 0 0 1 373.2451 1088.7382)"><tspan x="0" y="0" class="st0 st10 st11 st8">度</tspan><tspan x="36" y="0" class="st0 st10 st11 st3">の</tspan><tspan x="72.7" y="0" class="st0 st10 st11">旅</tspan></text>
<text transform="matrix(1 0 0 1 50.7646 404.3509)" class="st0 st1 st5">[1]</text>
<text transform="matrix(1 0 0 1 91.3271 404.3509)" class="st0 st1 st5"> </text>
<text transform="matrix(1 0 0 1 50.7646 444.6439)" class="st0 st1 st5">[2] </text>
<text transform="matrix(1 0 0 1 99.8564 444.6439)" class="st0 st1 st5"> </text>
<text transform="matrix(1 0 0 1 50.7646 484.9388)" class="st0 st1 st5">[3] </text>
<text transform="matrix(1 0 0 1 99.8564 484.9388)" class="st0 st1 st5"> </text>
<text transform="matrix(1 0 0 1 50.7646 525.2318)" class="st0 st1 st5">[4] </text>
<text transform="matrix(1 0 0 1 99.8564 525.2318)" class="st0 st1 st5"> </text>
<path class="st0" d="M61.3,583.6c0.1,0,0.2,0.1,0.2,0.2v0.8c0,0.2-0.1,0.3-0.3,0.3h-4.5c-0.2,0-0.3,0.1-0.3,0.4v27.5
	c0,0.4,0,0.5,0.2,0.5h5c0.2,0,0.3,0.1,0.3,0.3v0.7c0,0.2-0.1,0.3-0.3,0.3h-7.1c-0.3,0-0.4-0.1-0.4-0.4v-30.2c0-0.2,0.1-0.3,0.3-0.3
	H61.3z"/>
<text transform="matrix(1 0 0 1 63.792 610.2962)" class="st0 st10 st13">一</text>
<path class="st0" d="M98.8,614.5c-0.2,0-0.3-0.1-0.3-0.3v-0.7c0-0.2,0-0.3,0.3-0.3h5c0.2,0,0.2-0.1,0.2-0.4v-27.6
	c0-0.3-0.1-0.4-0.3-0.4h-4.6c-0.2,0-0.3-0.1-0.3-0.3v-0.8c0-0.1,0.1-0.2,0.2-0.2h6.9c0.2,0,0.3,0.1,0.3,0.3v30.2
	c0,0.2-0.1,0.4-0.4,0.4H98.8z"/>
<path class="st0" d="M61.3,623.9c0.1,0,0.2,0.1,0.2,0.2v0.8c0,0.2-0.1,0.3-0.3,0.3h-4.5c-0.2,0-0.3,0.1-0.3,0.4V653
	c0,0.4,0,0.5,0.2,0.5h5c0.2,0,0.3,0.1,0.3,0.3v0.7c0,0.2-0.1,0.3-0.3,0.3h-7.1c-0.3,0-0.4-0.1-0.4-0.4v-30.2c0-0.2,0.1-0.3,0.3-0.3
	H61.3z"/>
<text transform="matrix(1 0 0 1 63.792 650.5911)" class="st0 st10 st13">二</text>
<path class="st0" d="M98.8,654.8c-0.2,0-0.3-0.1-0.3-0.3v-0.7c0-0.2,0-0.3,0.3-0.3h5c0.2,0,0.2-0.1,0.2-0.4v-27.6
	c0-0.3-0.1-0.4-0.3-0.4h-4.6c-0.2,0-0.3-0.1-0.3-0.3v-0.8c0-0.1,0.1-0.2,0.2-0.2h6.9c0.2,0,0.3,0.1,0.3,0.3v30.2
	c0,0.2-0.1,0.4-0.4,0.4H98.8z"/>
<text transform="matrix(1 0 0 1 109.5264 650.5794)" class="st0 st1 st5"> </text>
<path class="st0" d="M61.3,664.2c0.1,0,0.2,0.1,0.2,0.2v0.8c0,0.2-0.1,0.3-0.3,0.3h-4.5c-0.2,0-0.3,0.1-0.3,0.4v27.5
	c0,0.4,0,0.5,0.2,0.5h5c0.2,0,0.3,0.1,0.3,0.3v0.7c0,0.2-0.1,0.3-0.3,0.3h-7.1c-0.3,0-0.4-0.1-0.4-0.4v-30.2c0-0.2,0.1-0.3,0.3-0.3
	H61.3z"/>
<text transform="matrix(1 0 0 1 63.792 690.8841)" class="st0 st10 st13">三</text>
<path class="st0" d="M98.8,695.1c-0.2,0-0.3-0.1-0.3-0.3v-0.7c0-0.2,0-0.3,0.3-0.3h5c0.2,0,0.2-0.1,0.2-0.4v-27.6
	c0-0.3-0.1-0.4-0.3-0.4h-4.6c-0.2,0-0.3-0.1-0.3-0.3v-0.8c0-0.1,0.1-0.2,0.2-0.2h6.9c0.2,0,0.3,0.1,0.3,0.3v30.2
	c0,0.2-0.1,0.4-0.4,0.4H98.8z"/>
<path class="st0" d="M61.3,704.5c0.1,0,0.2,0.1,0.2,0.2v0.8c0,0.2-0.1,0.3-0.3,0.3h-4.5c-0.2,0-0.3,0.1-0.3,0.4v27.5
	c0,0.4,0,0.5,0.2,0.5h5c0.2,0,0.3,0.1,0.3,0.3v0.7c0,0.2-0.1,0.3-0.3,0.3h-7.1c-0.3,0-0.4-0.1-0.4-0.4v-30.2c0-0.2,0.1-0.3,0.3-0.3
	H61.3z"/>
<text transform="matrix(1 0 0 1 64.4639 731.179)" class="st0 st10 st13">四</text>
<path class="st0" d="M98.8,735.4c-0.2,0-0.3-0.1-0.3-0.3v-0.7c0-0.2,0-0.3,0.3-0.3h5c0.2,0,0.2-0.1,0.2-0.4v-27.6
	c0-0.3-0.1-0.4-0.3-0.4h-4.6c-0.2,0-0.3-0.1-0.3-0.3v-0.8c0-0.1,0.1-0.2,0.2-0.2h6.9c0.2,0,0.3,0.1,0.3,0.3V735
	c0,0.2-0.1,0.4-0.4,0.4H98.8z"/>
</svg>
