<?xml version="1.0" encoding="utf-8"?>
<!-- Generator: Adobe Illustrator 26.3.1, SVG Export Plug-In . SVG Version: 6.00 Build 0)  -->
<svg version="1.1" id="Layer_1" xmlns="http://www.w3.org/2000/svg" xmlns:xlink="http://www.w3.org/1999/xlink" x="0px" y="0px"
	 viewBox="0 0 357.2 510.2" style="enable-background:new 0 0 357.2 510.2;" xml:space="preserve">
<style type="text/css">
	.st0{font-family:'ACaslonPro-Regular';}
	.st1{font-size:17.5017px;}
	.st2{font-size:13.1263px;}
	.st3{letter-spacing:-1;}
	.st4{font-family:'KozGoPr6N-Regular-83pv-RKSJ-H';}
	.st5{font-size:14.8765px;}
	.st6{font-size:12.2512px;}
</style>
<text transform="matrix(1 0 0 1 42.1968 57.8236)" class="st0 st1">F</text>
<text transform="matrix(1 0 0 1 51.958 57.8236)" class="st0 st1">our</text>
<text transform="matrix(1 0 0 1 75.5166 57.8236)" class="st0 st1"> </text>
<text transform="matrix(1 0 0 1 79.7403 57.8236)" class="st0 st1">V</text>
<text transform="matrix(1 0 0 1 92.5987 57.8236)" class="st0 st1">isits</text>
<text transform="matrix(1 0 0 1 119.9556 57.8236)" class="st0 st2"> </text>
<text transform="matrix(1 0 0 1 122.7642 57.8236)" class="st0 st1">to </text>
<text transform="matrix(1 0 0 1 141.5362 57.8236)" class="st0 st1">F</text>
<text transform="matrix(1 0 0 1 152.3301 57.8236)" class="st0 st1">i</text>
<text transform="matrix(1 0 0 1 157.023 57.8236)" class="st0 st1">f</text>
<text transform="matrix(1 0 0 1 162.7486 57.8236)" class="st0 st1">t</text>
<text transform="matrix(1 0 0 1 168.5679 57.8236)" class="st0 st1">y</text>
<text transform="matrix(1 0 0 1 176.9209 57.8236)" class="st0 st1 st3">-</text>
<text transform="matrix(1 0 0 1 181.6138 57.8236)" class="st0 st1">T</text>
<text transform="matrix(1 0 0 1 192.314 57.8236)" class="st0 st1">w</text>
<text transform="matrix(1 0 0 1 204.2339 57.8236)" class="st0 st1">o </text>
<text transform="matrix(1 0 0 1 217.3745 57.8236)" class="st0 st1">P</text>
<text transform="matrix(1 0 0 1 227.229 57.8236)" class="st0 st1">osts</text>
<text transform="matrix(1 0 0 1 42.1968 466.7654)" class="st0 st1">5</text>
<text transform="matrix(1 0 0 1 50.7378 466.7654)" class="st0 st1">2</text>
<text transform="matrix(1 0 0 1 60.5733 466.2527)" class="st4 st5">本の</text>
<text transform="matrix(1 0 0 1 89.294 466.2527)" class="st4 st5">柱</text>
<text transform="matrix(1 0 0 1 103.9361 466.2527)" class="st4 st5">を</text>
<text transform="matrix(1 0 0 1 118.0152 466.2527)" class="st4 st5 st3">め</text>
<text transform="matrix(1 0 0 1 130.8736 466.2527)" class="st4 st5">ぐ</text>
<text transform="matrix(1 0 0 1 144.1079 466.2527)" class="st4 st5">る</text>
<text transform="matrix(1 0 0 1 158.3716 466.7654)" class="st0 st1">4</text>
<text transform="matrix(1 0 0 1 168.2603 466.2527)" class="st4 st5">度</text>
<text transform="matrix(1 0 0 1 182.3389 466.2527)" class="st4 st5">の</text>
<text transform="matrix(1 0 0 1 196.6997 466.2527)" class="st4 st5">旅</text>
<text transform="matrix(1 0 0 1 42.1968 190.6248)" class="st0 st2">[1]</text>
<text transform="matrix(1 0 0 1 58.0533 190.6248)" class="st0 st2"> </text>
<text transform="matrix(1 0 0 1 42.1968 206.3768)" class="st0 st2">[2] </text>
<text transform="matrix(1 0 0 1 61.3872 206.3768)" class="st0 st2"> </text>
<text transform="matrix(1 0 0 1 42.1968 222.1283)" class="st0 st2">[3] </text>
<text transform="matrix(1 0 0 1 61.3872 222.1283)" class="st0 st2"> </text>
<text transform="matrix(1 0 0 1 42.1968 237.8797)" class="st0 st2">[4] </text>
<text transform="matrix(1 0 0 1 61.3872 237.8797)" class="st0 st2"> </text>
<path d="M46.3,260.7C46.4,260.7,46.4,260.8,46.3,260.7l0.1,0.4c0,0.1,0,0.1-0.1,0.1h-1.8c-0.1,0-0.1,0-0.1,0.2v10.8
	c0,0.2,0,0.2,0.1,0.2h2c0.1,0,0.1,0,0.1,0.1v0.3c0,0.1,0,0.1-0.1,0.1h-2.8c-0.1,0-0.2-0.1-0.2-0.2v-11.8c0-0.1,0.1-0.1,0.1-0.1H46.3
	z"/>
<text transform="matrix(1 0 0 1 47.2896 271.1326)" class="st4 st6">一</text>
<path d="M61,272.8C60.9,272.8,60.9,272.8,61,272.8l-0.1-0.4c0-0.1,0-0.1,0.1-0.1h2c0.1,0,0.1-0.1,0.1-0.2v-10.8c0-0.1,0-0.2-0.1-0.2
	h-1.8c-0.1,0-0.1,0-0.1-0.1v-0.3c0,0,0-0.1,0.1-0.1h2.7c0.1,0,0.1,0,0.1,0.1v11.8c0,0.1,0,0.2-0.2,0.2H61z"/>
<path d="M46.3,276.4C46.4,276.4,46.4,276.4,46.3,276.4l0.1,0.4c0,0.1,0,0.1-0.1,0.1h-1.8c-0.1,0-0.1,0-0.1,0.2v10.8
	c0,0.2,0,0.2,0.1,0.2h2c0.1,0,0.1,0,0.1,0.1v0.3c0,0.1,0,0.1-0.1,0.1h-2.8c-0.1,0-0.2-0.1-0.2-0.2v-11.8c0-0.1,0.1-0.1,0.1-0.1H46.3
	z"/>
<text transform="matrix(1 0 0 1 47.2896 286.8846)" class="st4 st6">二</text>
<path d="M61,288.5C60.9,288.5,60.9,288.5,61,288.5l-0.1-0.4c0-0.1,0-0.1,0.1-0.1h2c0.1,0,0.1-0.1,0.1-0.2v-10.8c0-0.1,0-0.2-0.1-0.2
	h-1.8c-0.1,0-0.1,0-0.1-0.1v-0.3c0,0,0-0.1,0.1-0.1h2.7c0.1,0,0.1,0,0.1,0.1v11.8c0,0.1,0,0.2-0.2,0.2H61z"/>
<text transform="matrix(1 0 0 1 65.167 286.8807)" class="st0 st2"> </text>
<path d="M46.3,292.2C46.4,292.2,46.4,292.2,46.3,292.2l0.1,0.4c0,0.1,0,0.1-0.1,0.1h-1.8c-0.1,0-0.1,0-0.1,0.2v10.7
	c0,0.2,0,0.2,0.1,0.2h2c0.1,0,0.1,0,0.1,0.1v0.3c0,0.1,0,0.1-0.1,0.1h-2.8c-0.1,0-0.2-0.1-0.2-0.2v-11.7c0-0.1,0.1-0.1,0.1-0.1H46.3
	z"/>
<text transform="matrix(1 0 0 1 47.2896 302.6365)" class="st4 st6">三</text>
<path d="M61,304.3C60.9,304.3,60.9,304.3,61,304.3l-0.1-0.4c0-0.1,0-0.1,0.1-0.1h2c0.1,0,0.1-0.1,0.1-0.2v-10.8c0-0.1,0-0.2-0.1-0.2
	h-1.8c-0.1,0-0.1,0-0.1-0.1v-0.3c0,0,0-0.1,0.1-0.1h2.7c0.1,0,0.1,0,0.1,0.1v11.8c0,0.1,0,0.2-0.2,0.2L61,304.3L61,304.3z"/>
<path d="M46.3,308C46.4,308,46.4,308,46.3,308l0.1,0.4c0,0.1,0,0.1-0.1,0.1h-1.8c-0.1,0-0.1,0-0.1,0.2v10.8c0,0.2,0,0.2,0.1,0.2h2
	c0.1,0,0.1,0,0.1,0.1v0.3c0,0.1,0,0.1-0.1,0.1h-2.8c-0.1,0-0.2-0.1-0.2-0.2v-11.8c0-0.1,0.1-0.1,0.1-0.1H46.3z"/>
<text transform="matrix(1 0 0 1 47.5518 318.3885)" class="st4 st6">四</text>
<path d="M61,320C60.9,320,60.9,320,61,320l-0.1-0.4c0-0.1,0-0.1,0.1-0.1h2c0.1,0,0.1-0.1,0.1-0.2v-10.8c0-0.1,0-0.2-0.1-0.2h-1.8
	c-0.1,0-0.1,0-0.1-0.1V308c0,0,0-0.1,0.1-0.1h2.7c0.1,0,0.1,0,0.1,0.1v11.8c0,0.1,0,0.2-0.2,0.2H61z"/>
</svg>
