<?xml version="1.0" encoding="utf-8"?>
<!-- Generator: Adobe Illustrator 26.3.1, SVG Export Plug-In . SVG Version: 6.00 Build 0)  -->
<svg version="1.1" id="Layer_1" xmlns="http://www.w3.org/2000/svg" xmlns:xlink="http://www.w3.org/1999/xlink" x="0px" y="0px"
	 viewBox="0 0 357.2 510.2" style="enable-background:new 0 0 357.2 510.2;" xml:space="preserve">
<style type="text/css">
	.st0{fill:#FFFFFF;}
	.st1{fill:none;stroke:#000000;stroke-width:0.2;stroke-miterlimit:10;}
	.st2{font-family:'ACaslonPro-Regular';}
	.st3{font-size:18.6468px;}
	.st4{font-size:13.9851px;}
	.st5{letter-spacing:-2;}
	.st6{letter-spacing:-1;}
	.st7{font-family:'KozGoPr6N-Regular-83pv-RKSJ-H';}
	.st8{font-size:15.8498px;}
	.st9{font-size:13.0528px;}
</style>
<g>
	
		<image style="overflow:visible;opacity:0.5;" width="351" height="494" xlink:href="B9ABA736C08CE792.png"  transform="matrix(1 0 0 1 7.4961 13.7321)">
	</image>
	<g>
		<rect x="11" y="17.3" class="st0" width="333" height="475.7"/>
		<rect x="11" y="17.3" class="st1" width="333" height="475.7"/>
	</g>
</g>
<text transform="matrix(1 0 0 1 32.1719 44.1798)"><tspan x="0" y="0" class="st2 st3">F</tspan><tspan x="10.4" y="0" class="st2 st3">our</tspan><tspan x="35.5" y="0" class="st2 st3"> </tspan><tspan x="40" y="0" class="st2 st3">V</tspan><tspan x="53.7" y="0" class="st2 st3">isits</tspan></text>
<text transform="matrix(1 0 0 1 115.0186 44.1798)" class="st2 st4"> </text>
<text transform="matrix(1 0 0 1 118.0112 44.1798)"><tspan x="0" y="0" class="st2 st3">to </tspan><tspan x="20" y="0" class="st2 st3">F</tspan><tspan x="31.5" y="0" class="st2 st3">i</tspan><tspan x="36.5" y="0" class="st2 st3">f</tspan><tspan x="42.6" y="0" class="st2 st3">t</tspan><tspan x="48.8" y="0" class="st2 st3">y</tspan><tspan x="57.7" y="0" class="st2 st3 st5">-</tspan><tspan x="62.7" y="0" class="st2 st3 st6">T</tspan><tspan x="74.1" y="0" class="st2 st3">w</tspan><tspan x="86.8" y="0" class="st2 st3">o </tspan><tspan x="100.8" y="0" class="st2 st3">P</tspan><tspan x="111.3" y="0" class="st2 st3">osts</tspan></text>
<text transform="matrix(1 0 0 1 32.1719 479.8776)"><tspan x="0" y="0" class="st2 st3">5</tspan><tspan x="9.1" y="0" class="st2 st3">2</tspan></text>
<text transform="matrix(1 0 0 1 51.751 479.8776)"><tspan x="0" y="0" class="st7 st8">本の</tspan><tspan x="30.6" y="0" class="st7 st8">柱</tspan><tspan x="46.2" y="0" class="st7 st8">を</tspan><tspan x="61.2" y="0" class="st7 st8 st5">め</tspan><tspan x="74.9" y="0" class="st7 st8 st6">ぐ</tspan><tspan x="89" y="0" class="st7 st8">る</tspan></text>
<text transform="matrix(1 0 0 1 155.9482 479.8776)" class="st2 st3">4</text>
<text transform="matrix(1 0 0 1 166.4834 479.8776)"><tspan x="0" y="0" class="st7 st8">度</tspan><tspan x="15" y="0" class="st7 st8">の</tspan><tspan x="30.3" y="0" class="st7 st8">旅</tspan></text>
<text transform="matrix(1 0 0 1 32.1719 185.6701)" class="st2 st4">[1]</text>
<text transform="matrix(1 0 0 1 49.0659 185.6701)" class="st2 st4"> </text>
<text transform="matrix(1 0 0 1 32.1719 202.4523)" class="st2 st4">[2] </text>
<text transform="matrix(1 0 0 1 52.6182 202.4523)" class="st2 st4"> </text>
<text transform="matrix(1 0 0 1 32.1719 219.2345)" class="st2 st4">[3] </text>
<text transform="matrix(1 0 0 1 52.6182 219.2345)" class="st2 st4"> </text>
<text transform="matrix(1 0 0 1 32.1719 236.0167)" class="st2 st4">[4] </text>
<text transform="matrix(1 0 0 1 52.6182 236.0167)" class="st2 st4"> </text>
<path d="M36.5,260.3C36.6,260.3,36.6,260.4,36.5,260.3l0.1,0.4c0,0.1,0,0.1-0.1,0.1h-1.9c-0.1,0-0.1,0-0.1,0.2v11.5
	c0,0.2,0,0.2,0.1,0.2h2.1c0.1,0,0.1,0,0.1,0.1v0.3c0,0.1,0,0.1-0.1,0.1h-3c-0.1,0-0.2-0.1-0.2-0.2v-12.6c0-0.1,0.1-0.1,0.1-0.1H36.5
	z"/>
<text transform="matrix(1 0 0 1 37.5981 271.4455)" class="st7 st9">一</text>
<path d="M52.2,273.2c-0.1,0-0.1,0-0.1-0.1v-0.3c0-0.1,0-0.1,0.1-0.1h2.1c0.1,0,0.1-0.1,0.1-0.2V261c0-0.1,0-0.2-0.1-0.2h-1.9
	c-0.1,0-0.1,0-0.1-0.1v-0.3c0,0,0-0.1,0.1-0.1h2.9c0.1,0,0.1,0,0.1,0.1V273c0,0.1,0,0.2-0.2,0.2H52.2z"/>
<path d="M36.5,277.1C36.6,277.1,36.6,277.1,36.5,277.1l0.1,0.4c0,0.1,0,0.1-0.1,0.1h-1.9c-0.1,0-0.1,0-0.1,0.2v11.5
	c0,0.2,0,0.2,0.1,0.2h2.1c0.1,0,0.1,0,0.1,0.1v0.3c0,0.1,0,0.1-0.1,0.1h-3c-0.1,0-0.2-0.1-0.2-0.2v-12.6c0-0.1,0.1-0.1,0.1-0.1H36.5
	z"/>
<text transform="matrix(1 0 0 1 37.5981 288.2282)" class="st7 st9">二</text>
<path d="M52.2,290c-0.1,0-0.1,0-0.1-0.1v-0.3c0-0.1,0-0.1,0.1-0.1h2.1c0.1,0,0.1-0.1,0.1-0.2v-11.5c0-0.1,0-0.2-0.1-0.2h-1.9
	c-0.1,0-0.1,0-0.1-0.1v-0.3c0,0,0-0.1,0.1-0.1h2.9c0.1,0,0.1,0,0.1,0.1v12.6c0,0.1,0,0.2-0.2,0.2H52.2z"/>
<text transform="matrix(1 0 0 1 56.6455 288.2233)" class="st2 st4"> </text>
<path d="M36.5,293.9C36.6,293.9,36.6,293.9,36.5,293.9l0.1,0.4c0,0.1,0,0.1-0.1,0.1h-1.9c-0.1,0-0.1,0-0.1,0.2V306
	c0,0.2,0,0.2,0.1,0.2h2.1c0.1,0,0.1,0,0.1,0.1v0.3c0,0.1,0,0.1-0.1,0.1h-3c-0.1,0-0.2-0.1-0.2-0.2V294c0-0.1,0.1-0.1,0.1-0.1H36.5z"
	/>
<text transform="matrix(1 0 0 1 37.5981 305.0104)" class="st7 st9">三</text>
<path d="M52.2,306.8c-0.1,0-0.1,0-0.1-0.1v-0.3c0-0.1,0-0.1,0.1-0.1h2.1c0.1,0,0.1-0.1,0.1-0.2v-11.5c0-0.1,0-0.2-0.1-0.2h-1.9
	c-0.1,0-0.1,0-0.1-0.1V294c0,0,0-0.1,0.1-0.1h2.9c0.1,0,0.1,0,0.1,0.1v12.6c0,0.1,0,0.2-0.2,0.2H52.2z"/>
<path d="M36.5,310.7C36.6,310.7,36.6,310.7,36.5,310.7l0.1,0.4c0,0.1,0,0.1-0.1,0.1h-1.9c-0.1,0-0.1,0-0.1,0.2v11.5
	c0,0.2,0,0.2,0.1,0.2h2.1c0.1,0,0.1,0,0.1,0.1v0.3c0,0.1,0,0.1-0.1,0.1h-3c-0.1,0-0.2-0.1-0.2-0.2v-12.6c0-0.1,0.1-0.1,0.1-0.1H36.5
	z"/>
<text transform="matrix(1 0 0 1 37.8774 321.7926)" class="st7 st9">四</text>
<path d="M52.2,323.5c-0.1,0-0.1,0-0.1-0.1v-0.3c0-0.1,0-0.1,0.1-0.1h2.1c0.1,0,0.1-0.1,0.1-0.2v-11.5c0-0.1,0-0.2-0.1-0.2h-1.9
	c-0.1,0-0.1,0-0.1-0.1v-0.3c0,0,0-0.1,0.1-0.1h2.9c0.1,0,0.1,0,0.1,0.1v12.6c0,0.1,0,0.2-0.2,0.2H52.2z"/>
</svg>
