<svg xmlns="http://www.w3.org/2000/svg" viewBox="0 0 800 1120"><defs><style>.cls-1,.cls-2,.cls-3{fill:none;stroke:#231f20;stroke-linecap:round;stroke-linejoin:round;}.cls-1{stroke-width:0.6px;}.cls-2{stroke-width:0.24px;}.cls-3{stroke-width:0.75px;}</style></defs><g id="Wall"><line class="cls-1" x1="381.1" y1="526.8" x2="381.42" y2="526.8"/><line class="cls-1" x1="381.1" y1="526.8" x2="381.1" y2="526.48"/><line class="cls-1" x1="380.55" y1="527.34" x2="381.1" y2="526.8"/><line class="cls-1" x1="418.9" y1="526.8" x2="418.9" y2="526.48"/><line class="cls-1" x1="418.9" y1="526.8" x2="418.58" y2="526.8"/><line class="cls-1" x1="419.45" y1="527.34" x2="418.9" y2="526.8"/><line class="cls-1" x1="381.1" y1="469.78" x2="381.42" y2="469.78"/><line class="cls-1" x1="380.55" y1="469.24" x2="381.1" y2="469.78"/><line class="cls-1" x1="381.1" y1="469.78" x2="381.1" y2="470.1"/><line class="cls-1" x1="418.9" y1="469.78" x2="418.58" y2="469.78"/><line class="cls-1" x1="418.9" y1="469.78" x2="418.9" y2="470.1"/><line class="cls-1" x1="419.45" y1="469.24" x2="418.9" y2="469.78"/><line class="cls-1" x1="390.51" y1="527.58" x2="390.51" y2="526.8"/><line class="cls-1" x1="390.12" y1="526.8" x2="390.9" y2="526.8"/><line class="cls-1" x1="409.49" y1="527.58" x2="409.49" y2="526.8"/><line class="cls-1" x1="409.1" y1="526.8" x2="409.88" y2="526.8"/><line class="cls-1" x1="380.32" y1="517.26" x2="381.1" y2="517.26"/><line class="cls-1" x1="381.1" y1="516.87" x2="381.1" y2="517.65"/><line class="cls-1" x1="380.32" y1="507.78" x2="381.1" y2="507.78"/><line class="cls-1" x1="381.1" y1="507.39" x2="381.1" y2="508.17"/><line class="cls-1" x1="380.32" y1="498.29" x2="381.1" y2="498.29"/><line class="cls-1" x1="381.1" y1="497.9" x2="381.1" y2="498.68"/><line class="cls-1" x1="380.32" y1="488.8" x2="381.1" y2="488.8"/><line class="cls-1" x1="381.1" y1="488.41" x2="381.1" y2="489.19"/><line class="cls-1" x1="380.32" y1="479.32" x2="381.1" y2="479.32"/><line class="cls-1" x1="381.1" y1="478.93" x2="381.1" y2="479.71"/><line class="cls-1" x1="419.68" y1="479.32" x2="418.9" y2="479.32"/><line class="cls-1" x1="418.9" y1="478.93" x2="418.9" y2="479.71"/><line class="cls-1" x1="419.68" y1="488.8" x2="418.9" y2="488.8"/><line class="cls-1" x1="418.9" y1="488.41" x2="418.9" y2="489.19"/><line class="cls-1" x1="419.68" y1="498.29" x2="418.9" y2="498.29"/><line class="cls-1" x1="418.9" y1="497.9" x2="418.9" y2="498.68"/><line class="cls-1" x1="419.68" y1="507.78" x2="418.9" y2="507.78"/><line class="cls-1" x1="418.9" y1="507.39" x2="418.9" y2="508.17"/><line class="cls-1" x1="419.68" y1="517.26" x2="418.9" y2="517.26"/><line class="cls-1" x1="418.9" y1="516.87" x2="418.9" y2="517.65"/><line class="cls-1" x1="390.51" y1="469" x2="390.51" y2="469.78"/><line class="cls-1" x1="390.12" y1="469.78" x2="390.9" y2="469.78"/><line class="cls-1" x1="409.49" y1="469" x2="409.49" y2="469.78"/><line class="cls-1" x1="409.1" y1="469.78" x2="409.88" y2="469.78"/></g><g id="Window_Door_Stairs" data-name="Window/Door/Stairs"><line class="cls-2" x1="390.12" y1="526.8" x2="381.42" y2="526.8"/><line class="cls-2" x1="409.1" y1="469.78" x2="390.9" y2="469.78"/><line class="cls-2" x1="390.12" y1="469.78" x2="381.42" y2="469.78"/><line class="cls-2" x1="418.58" y1="526.8" x2="409.88" y2="526.8"/><line class="cls-2" x1="418.58" y1="469.78" x2="409.88" y2="469.78"/><line class="cls-2" x1="418.9" y1="470.1" x2="418.9" y2="478.93"/><line class="cls-2" x1="418.9" y1="479.71" x2="418.9" y2="488.41"/><line class="cls-2" x1="418.9" y1="489.19" x2="418.9" y2="497.9"/><line class="cls-2" x1="418.9" y1="498.68" x2="418.9" y2="507.39"/><line class="cls-2" x1="418.9" y1="508.17" x2="418.9" y2="516.87"/><line class="cls-2" x1="418.9" y1="517.65" x2="418.9" y2="526.48"/><line class="cls-2" x1="381.1" y1="470.1" x2="381.1" y2="478.93"/><line class="cls-2" x1="381.1" y1="489.19" x2="381.1" y2="497.9"/><line class="cls-2" x1="381.1" y1="498.68" x2="381.1" y2="507.39"/><line class="cls-2" x1="381.1" y1="508.17" x2="381.1" y2="516.87"/><line class="cls-2" x1="381.1" y1="517.65" x2="381.1" y2="526.48"/><line class="cls-2" x1="381.1" y1="479.71" x2="381.1" y2="488.41"/><line class="cls-2" x1="409.1" y1="526.8" x2="390.9" y2="526.8"/></g><g id="TEXT"><path d="M31.17,1024.55H26.49v-.9h1.88v-6.92l-1.78.89v-1l1.93-1h.89v8h1.76Z"/><path d="M62.51,1016.63a4.73,4.73,0,0,0-1.51-.27,2.24,2.24,0,0,0-1.32.37,1.23,1.23,0,0,0-.51,1c0,.54.45,1,1.34,1.42.65.3,1.09.51,1.3.63a3,3,0,0,1,.64.49,2.29,2.29,0,0,1,.53.73,2.2,2.2,0,0,1,.2.94,2.44,2.44,0,0,1-.87,2,3.15,3.15,0,0,1-2.06.72,4.33,4.33,0,0,1-2-.45l.22-.89a4.55,4.55,0,0,0,1.77.46,2.14,2.14,0,0,0,1.42-.46,1.57,1.57,0,0,0,.53-1.26,1.45,1.45,0,0,0-.35-1,3.64,3.64,0,0,0-1.28-.85c-.64-.29-1-.49-1.24-.6a3,3,0,0,1-.55-.44,2.06,2.06,0,0,1-.43-.64,2,2,0,0,1-.15-.77,2,2,0,0,1,.79-1.72,3.19,3.19,0,0,1,2-.62,6,6,0,0,1,1.77.27Z"/><path d="M71,1024.25a4.55,4.55,0,0,1-2,.46c-1.17,0-1.76-.62-1.76-1.86v-4H66V1018h1.26v-1.8h1v1.8h2.23v.85H68.22v3.76a1.49,1.49,0,0,0,.26.93.88.88,0,0,0,.72.33,3.84,3.84,0,0,0,1.6-.36Z"/><path d="M76.11,1017.82a2.66,2.66,0,0,1,2.16.95,3.74,3.74,0,0,1,.8,2.49,3.8,3.8,0,0,1-.8,2.51,2.93,2.93,0,0,1-4.32,0,4.32,4.32,0,0,1,0-5A2.7,2.7,0,0,1,76.11,1017.82Zm0,6a1.61,1.61,0,0,0,1.41-.75,3.16,3.16,0,0,0,.52-1.84,3.2,3.2,0,0,0-.51-1.87,1.75,1.75,0,0,0-2.84,0,3.26,3.26,0,0,0-.5,1.88,3.22,3.22,0,0,0,.51,1.85A1.63,1.63,0,0,0,76.11,1023.86Z"/><path d="M86.51,1018.15l-.39,1a2.9,2.9,0,0,0-1.13-.28,1.61,1.61,0,0,0-.85.25A3.59,3.59,0,0,0,83,1020.3v4.25h-1V1018h1v1.33a2.34,2.34,0,0,1,2-1.49A3.33,3.33,0,0,1,86.51,1018.15Z"/><path d="M94.33,1024.55h-1a3.77,3.77,0,0,1-.12-1.06,2.62,2.62,0,0,1-2.28,1.23,1.81,1.81,0,0,1-1.29-.52,1.76,1.76,0,0,1-.56-1.34,1.67,1.67,0,0,1,.77-1.49,3.12,3.12,0,0,1,.92-.4,7,7,0,0,1,1.29-.21l1.1-.08v-.32c0-1.13-.53-1.69-1.58-1.69a3.53,3.53,0,0,0-.94.16,5.43,5.43,0,0,0-1,.38l-.26-.7a5.53,5.53,0,0,1,2.5-.69c1.5,0,2.24.79,2.24,2.38V1023A6.39,6.39,0,0,0,94.33,1024.55Zm-1.15-1.95v-1.19c-.89.08-1.5.15-1.83.22a2,2,0,0,0-.85.39,1,1,0,0,0-.06,1.48,1.17,1.17,0,0,0,.79.27,2,2,0,0,0,1-.31A3,3,0,0,0,93.18,1022.6Z"/><path d="M98.67,1022.07c-.61.3-.92.56-.92.79a.37.37,0,0,0,.22.31,1.15,1.15,0,0,0,.57.12l2.22-.06a1.77,1.77,0,0,1,1.22.39,1.34,1.34,0,0,1,.44,1.09,2.06,2.06,0,0,1-1,1.78,4.16,4.16,0,0,1-2.33.66,3.15,3.15,0,0,1-1.79-.46,1.37,1.37,0,0,1-.69-1.18c0-.53.36-1,1.07-1.33-.59-.28-.89-.62-.89-1s.38-.9,1.15-1.3a2.15,2.15,0,0,1-.81-.83,2.19,2.19,0,0,1-.29-1.08,2,2,0,0,1,.63-1.52,2.21,2.21,0,0,1,1.58-.6,2.66,2.66,0,0,1,1.23.29l1.95-.3v1H101a2.31,2.31,0,0,1,.29,1.17,2,2,0,0,1-.63,1.51,2.11,2.11,0,0,1-1.58.62Zm.43,4.32a3,3,0,0,0,1.65-.44,1.25,1.25,0,0,0,.69-1.07c0-.43-.33-.65-1-.65-.22,0-.59,0-1.11,0l-.79,0a.94.94,0,0,0-.43.23,2.16,2.16,0,0,0-.45.46.84.84,0,0,0-.15.47.77.77,0,0,0,.43.66A2.07,2.07,0,0,0,99.1,1026.39Zm0-5.07a1.16,1.16,0,0,0,.89-.37,1.47,1.47,0,0,0,.34-1,1.41,1.41,0,0,0-.33-1,1.19,1.19,0,0,0-.9-.36,1.16,1.16,0,0,0-.88.37,1.36,1.36,0,0,0-.36,1,1.38,1.38,0,0,0,.36,1A1.17,1.17,0,0,0,99.06,1021.32Z"/><path d="M109.87,1021.29h-4.52a2.69,2.69,0,0,0,.65,1.85,2.05,2.05,0,0,0,1.59.72,6,6,0,0,0,1.85-.32l.17.79a4.93,4.93,0,0,1-2,.39,3.08,3.08,0,0,1-2.36-.94,3.52,3.52,0,0,1-.9-2.54,3.7,3.7,0,0,1,.8-2.49,2.63,2.63,0,0,1,2.08-.93,2.45,2.45,0,0,1,1.9.86,3.37,3.37,0,0,1,.77,2.31Zm-1.08-.8a1.84,1.84,0,0,0-.48-1.29,1.42,1.42,0,0,0-1.07-.53,1.68,1.68,0,0,0-1.26.51,2,2,0,0,0-.56,1.31Z"/><path d="M402.55,504h-4.68v-.9h1.88v-6.91l-1.78.89v-1l1.93-1h.89v8.05h1.76Z"/><circle class="cls-3" cx="765.53" cy="1024.02" r="11.44"/></g></svg>