<svg width="86" height="24" viewBox="0 0 86 24" fill="none" xmlns="http://www.w3.org/2000/svg">
<path fill-rule="evenodd" clip-rule="evenodd" d="M0.104105 0.102839C0.0468239 0.15927 0 5.32821 0 11.5894V22.9731H1.63775H3.27549L3.3156 12.8723L3.35572 2.77157L7.01938 12.8723L10.683 22.9731H12.2566H13.8302L17.4756 13.2211C19.4806 7.8574 21.2123 3.29563 21.3238 3.08363C21.492 2.76386 21.5276 4.42424 21.5328 12.8356L21.539 22.9731H23.1788H24.8187L24.7786 11.5251L24.7387 0.0770908H22.0268H19.3147L15.9542 9.37316C14.1059 14.4861 12.5435 18.6143 12.4823 18.547C12.3946 18.4508 7.62653 5.03403 6.20605 0.886544L5.90232 0H3.05526C1.48931 0 0.16123 0.0462545 0.104105 0.102839ZM32.1005 0.102839C32.0432 0.15927 31.9964 5.32821 31.9964 11.5894V22.9731H33.7132H35.4301V11.4865V0H33.8174C32.9302 0 32.1576 0.0462545 32.1005 0.102839ZM72.0569 0.102839C71.9996 0.15927 71.9523 4.13145 71.9519 8.92974C71.9514 14.5416 71.8927 17.8615 71.7874 18.2361C71.5998 18.9036 70.857 19.8034 70.2288 20.1244C68.459 21.0284 65.8905 20.5014 65.1418 19.0806C64.9963 18.8046 64.8364 18.1626 64.7863 17.6538L64.6951 16.7287L63.0144 16.6849C61.9926 16.6583 61.6133 16.6849 61.2656 16.6849C61.2656 17.0176 61.1623 17.431 61.316 18.2588C61.8964 21.6465 64.4245 23.4159 68.441 23.2457C71.6467 23.1097 73.9126 21.6856 74.946 19.1574V19.1574C75.1854 18.5716 75.3102 17.9453 75.3133 17.3124L75.3544 9.13526L75.4005 0H73.7807C72.8898 0 72.114 0.0462545 72.0569 0.102839ZM82.6703 0.102839C82.6131 0.15927 82.5662 5.32821 82.5662 11.5894V22.9731H84.2831H86V11.4865V0H84.3872C83.5001 0 82.7275 0.0462545 82.6703 0.102839ZM41.0826 9.90617L41.127 11.4865H52.9111H64.6951L64.7396 9.90617L64.7841 8.32581H52.9111H41.0381L41.0826 9.90617Z" fill="black"/>
</svg>
