<svg width="120" height="12" viewBox="0 0 120 12" fill="none" xmlns="http://www.w3.org/2000/svg">
<path d="M0 0.542601L4.09309 11.6216H6.69359L10.7867 0.542601H8.43238L5.50875 9.26735L2.6005 0.542601H0Z" fill="#F1F1F1"/>
<path d="M12.459 11.6216H14.8441V0.465663H12.459V11.6216Z" fill="#F1F1F1"/>
<path d="M17.5726 11.6216H25.1894V9.77514H19.9577V6.77456H24.697V4.95883H19.9577V2.31217H25.0202V0.496438H17.5726V11.6216Z" fill="#F1F1F1"/>
<path d="M26.6871 0.542601L29.3953 11.6524H32.1035L34.2731 3.15849L36.2889 11.6524H38.9356L41.7669 0.542601H39.4895L37.6892 8.86727L35.735 0.542601H33.0421L30.8725 8.86727L29.1491 0.542601H26.6871Z" fill="#F1F1F1"/>
<path d="M48.3577 11.6216H50.7735V7.29774H52.3892C52.974 7.29774 54.0972 7.29774 54.9128 6.77456C55.7899 6.20522 56.3284 5.11271 56.3284 3.82015C56.3284 3.25081 56.2361 2.45066 55.6514 1.74283C54.7281 0.634926 53.3894 0.527214 51.7891 0.527214H48.3577V11.6216ZM50.712 2.32756H51.9122C52.5893 2.32756 53.8664 2.32756 53.8664 3.83554C53.8664 5.52817 52.4354 5.52817 51.666 5.52817H50.712V2.32756Z" fill="#F1F1F1"/>
<path d="M58.3031 11.6216H60.7343V7.12848H62.827C63.2271 7.12848 63.8118 7.12848 64.0273 7.75937C64.1811 8.19022 64.5197 11.0061 64.6274 11.6216H67.2587C67.1356 11.437 67.0432 11.3139 66.9201 10.8215C66.8432 10.5137 66.7509 9.97518 66.5816 8.66723C66.3816 7.2208 66.2585 6.26677 64.5812 6.1129C65.1198 5.95902 66.9047 5.46662 66.9047 3.3893C66.9047 2.66608 66.6278 1.85054 65.9353 1.25043C65.0429 0.481051 63.7965 0.481051 62.5655 0.496438H58.3031V11.6216ZM60.6574 2.25062H62.2577C63.0117 2.25062 63.4579 2.25062 63.8272 2.51221C64.0427 2.6507 64.412 3.00461 64.412 3.7586C64.412 4.54337 63.9657 4.92806 63.7965 5.05116C63.4118 5.35891 62.8578 5.35891 62.5808 5.35891H60.6574V2.25062Z" fill="#F1F1F1"/>
<path d="M68.7547 6.22061C68.7547 7.23619 68.9086 9.0827 70.1242 10.3753C71.1398 11.437 72.6016 11.8986 74.0634 11.8986C74.9867 11.8986 76.787 11.6986 78.0181 10.3137C78.9259 9.29812 79.4183 7.57472 79.4183 5.95902C79.4183 4.86651 79.1875 3.12771 78.0027 1.77361C76.9102 0.542601 75.2791 0.265625 74.0942 0.265625C70.0935 0.265625 68.7547 3.2662 68.7547 6.22061ZM71.2475 6.14367C71.2475 4.88189 71.4322 3.68166 72.0631 2.91229C72.5093 2.34295 73.2171 1.97364 74.1096 1.97364C75.2483 1.97364 76.1869 2.57376 76.6486 3.94325C76.8794 4.6203 76.9255 5.38968 76.9255 5.92825C76.9255 7.69782 76.5408 8.55952 76.1715 9.11347C75.7253 9.80591 75.0636 10.1444 74.0942 10.1444C72.9863 10.1444 72.417 9.71359 72.0785 9.25196C71.4168 8.39026 71.2475 7.20542 71.2475 6.14367Z" fill="#F1F1F1"/>
<path d="M80.8389 8.02096C80.8543 8.5903 80.8851 9.55971 81.4236 10.3753C82.1315 11.4832 83.1317 11.7294 84.3319 11.7294C85.409 11.7294 86.0553 11.5139 86.4861 11.2523C87.8864 10.3906 88.2096 9.03653 88.2096 7.32852V0.496438H85.7937V7.31313C85.7937 7.89785 85.7937 8.59029 85.7014 9.05192C85.6244 9.34429 85.409 9.99056 84.4858 9.99056C83.501 9.99056 83.2086 9.22119 83.1778 8.02096H80.8389Z" fill="#F1F1F1"/>
<path d="M91.0049 11.6216H98.6218V9.77514H93.39V6.77456H98.1294V4.95883H93.39V2.31217H98.4525V0.496438H91.0049V11.6216Z" fill="#F1F1F1"/>
<path d="M109.644 4.1279C109.644 1.91209 107.936 0.434888 105.505 0.434888C102.381 0.434888 100.412 2.7738 100.412 6.29755C100.412 9.05192 101.658 11.8832 105.49 11.8832C106.505 11.8832 107.752 11.6524 108.736 10.6368C109.629 9.71359 109.69 8.68262 109.737 8.02096H107.228C107.182 9.49816 106.228 10.1291 105.228 10.1291C102.905 10.1291 102.905 6.9746 102.905 6.31294C102.905 4.02019 103.643 2.17368 105.413 2.17368C107.028 2.17368 107.167 3.74321 107.213 4.1279H109.644Z" fill="#F1F1F1"/>
<path d="M114.291 11.6216H116.692V2.34295H120V0.496438H110.983V2.34295H114.291V11.6216Z" fill="#F1F1F1"/>
</svg>
