<svg width="120" height="13" viewBox="0 0 120 13" fill="none" xmlns="http://www.w3.org/2000/svg">
<path d="M0 0.909789L4.09309 11.9888H6.69359L10.7867 0.909789H8.43238L5.50875 9.63454L2.6005 0.909789H0Z" fill="#FF5000"/>
<path d="M12.459 11.9888H14.8441V0.832851H12.459V11.9888Z" fill="#FF5000"/>
<path d="M17.5726 11.9888H25.1894V10.1423H19.9577V7.14175H24.697V5.32602H19.9577V2.67936H25.0202V0.863626H17.5726V11.9888Z" fill="#FF5000"/>
<path d="M26.6871 0.909789L29.3953 12.0196H32.1035L34.2731 3.52567L36.2889 12.0196H38.9356L41.7669 0.909789H39.4895L37.6892 9.23446L35.735 0.909789H33.0421L30.8725 9.23446L29.1491 0.909789H26.6871Z" fill="#FF5000"/>
<path d="M48.3577 11.9888H50.7735V7.66493H52.3892C52.974 7.66493 54.0972 7.66493 54.9128 7.14175C55.7899 6.57241 56.3284 5.47989 56.3284 4.18734C56.3284 3.618 56.2361 2.81785 55.6514 2.11002C54.7281 1.00211 53.3894 0.894401 51.7891 0.894401H48.3577V11.9888ZM50.712 2.69475H51.9122C52.5893 2.69475 53.8664 2.69475 53.8664 4.20273C53.8664 5.89536 52.4354 5.89536 51.666 5.89536H50.712V2.69475Z" fill="#FF5000"/>
<path d="M58.3031 11.9888H60.7343V7.49566H62.827C63.2271 7.49566 63.8118 7.49566 64.0273 8.12655C64.1811 8.55741 64.5197 11.3733 64.6274 11.9888H67.2587C67.1356 11.8042 67.0432 11.6811 66.9201 11.1887C66.8432 10.8809 66.7509 10.3424 66.5816 9.03442C66.3816 7.58799 66.2585 6.63396 64.5812 6.48009C65.1198 6.32621 66.9047 5.83381 66.9047 3.75649C66.9047 3.03327 66.6278 2.21773 65.9353 1.61762C65.0429 0.848238 63.7965 0.848238 62.5655 0.863626H58.3031V11.9888ZM60.6574 2.61781H62.2577C63.0117 2.61781 63.4579 2.61781 63.8272 2.8794C64.0427 3.01788 64.412 3.3718 64.412 4.12579C64.412 4.91055 63.9657 5.29524 63.7965 5.41834C63.4118 5.7261 62.8578 5.7261 62.5808 5.7261H60.6574V2.61781Z" fill="#FF5000"/>
<path d="M68.7547 6.5878C68.7547 7.60338 68.9086 9.44988 70.1242 10.7424C71.1398 11.8042 72.6016 12.2658 74.0634 12.2658C74.9867 12.2658 76.787 12.0658 78.0181 10.6809C78.9259 9.66531 79.4183 7.9419 79.4183 6.32621C79.4183 5.23369 79.1875 3.4949 78.0027 2.14079C76.9102 0.909789 75.2791 0.632812 74.0942 0.632812C70.0935 0.632812 68.7547 3.63339 68.7547 6.5878ZM71.2475 6.51086C71.2475 5.24908 71.4322 4.04885 72.0631 3.27947C72.5093 2.71013 73.2171 2.34083 74.1096 2.34083C75.2483 2.34083 76.1869 2.94095 76.6486 4.31044C76.8794 4.98749 76.9255 5.75687 76.9255 6.29544C76.9255 8.065 76.5408 8.92671 76.1715 9.48066C75.7253 10.1731 75.0636 10.5116 74.0942 10.5116C72.9863 10.5116 72.417 10.0808 72.0785 9.61915C71.4168 8.75744 71.2475 7.5726 71.2475 6.51086Z" fill="#FF5000"/>
<path d="M80.8389 8.38814C80.8543 8.95748 80.8851 9.9269 81.4236 10.7424C82.1315 11.8503 83.1317 12.0965 84.3319 12.0965C85.409 12.0965 86.0553 11.8811 86.4861 11.6195C87.8864 10.7578 88.2096 9.40372 88.2096 7.6957V0.863626H85.7937V7.68032C85.7937 8.26504 85.7937 8.95748 85.7014 9.41911C85.6244 9.71147 85.409 10.3578 84.4858 10.3578C83.501 10.3578 83.2086 9.58837 83.1778 8.38814H80.8389Z" fill="#FF5000"/>
<path d="M91.0049 11.9888H98.6218V10.1423H93.39V7.14175H98.1294V5.32602H93.39V2.67936H98.4525V0.863626H91.0049V11.9888Z" fill="#FF5000"/>
<path d="M109.644 4.49509C109.644 2.27928 107.936 0.802075 105.505 0.802075C102.381 0.802075 100.412 3.14098 100.412 6.66474C100.412 9.41911 101.658 12.2504 105.49 12.2504C106.505 12.2504 107.752 12.0196 108.736 11.004C109.629 10.0808 109.69 9.04981 109.737 8.38814H107.228C107.182 9.86535 106.228 10.4962 105.228 10.4962C102.905 10.4962 102.905 7.34179 102.905 6.68012C102.905 4.38738 103.643 2.54087 105.413 2.54087C107.028 2.54087 107.167 4.1104 107.213 4.49509H109.644Z" fill="#FF5000"/>
<path d="M114.291 11.9888H116.692V2.71013H120V0.863626H110.983V2.71013H114.291V11.9888Z" fill="#FF5000"/>
</svg>
