<svg width="120" height="13" viewBox="0 0 120 13" fill="none" xmlns="http://www.w3.org/2000/svg">
<path d="M0 1.07385L4.09309 12.1529H6.69359L10.7867 1.07385H8.43238L5.50875 9.7986L2.6005 1.07385H0Z" fill="#00C850"/>
<path d="M12.459 12.1529H14.8441V0.996913H12.459V12.1529Z" fill="#00C850"/>
<path d="M17.5726 12.1529H25.1894V10.3064H19.9577V7.30581H24.697V5.49008H19.9577V2.84342H25.0202V1.02769H17.5726V12.1529Z" fill="#00C850"/>
<path d="M26.6871 1.07385L29.3953 12.1837H32.1035L34.2731 3.68974L36.2889 12.1837H38.9356L41.7669 1.07385H39.4895L37.6892 9.39852L35.735 1.07385H33.0421L30.8725 9.39852L29.1491 1.07385H26.6871Z" fill="#00C850"/>
<path d="M48.3577 12.1529H50.7735V7.82899H52.3892C52.974 7.82899 54.0972 7.82899 54.9128 7.30581C55.7899 6.73647 56.3284 5.64396 56.3284 4.3514C56.3284 3.78206 56.2361 2.98191 55.6514 2.27408C54.7281 1.16618 53.3894 1.05846 51.7891 1.05846H48.3577V12.1529ZM50.712 2.85881H51.9122C52.5893 2.85881 53.8664 2.85881 53.8664 4.36679C53.8664 6.05942 52.4354 6.05942 51.666 6.05942H50.712V2.85881Z" fill="#00C850"/>
<path d="M58.3031 12.1529H60.7343V7.65973H62.827C63.2271 7.65973 63.8118 7.65973 64.0273 8.29062C64.1811 8.72147 64.5197 11.5374 64.6274 12.1529H67.2587C67.1356 11.9682 67.0432 11.8451 66.9201 11.3527C66.8432 11.045 66.7509 10.5064 66.5816 9.19848C66.3816 7.75205 66.2585 6.79802 64.5812 6.64415C65.1198 6.49027 66.9047 5.99787 66.9047 3.92055C66.9047 3.19733 66.6278 2.38179 65.9353 1.78168C65.0429 1.0123 63.7965 1.0123 62.5655 1.02769H58.3031V12.1529ZM60.6574 2.78187H62.2577C63.0117 2.78187 63.4579 2.78187 63.8272 3.04346C64.0427 3.18195 64.412 3.53586 64.412 4.28985C64.412 5.07462 63.9657 5.45931 63.7965 5.58241C63.4118 5.89016 62.8578 5.89016 62.5808 5.89016H60.6574V2.78187Z" fill="#00C850"/>
<path d="M68.7547 6.75186C68.7547 7.76744 68.9086 9.61395 70.1242 10.9065C71.1398 11.9682 72.6016 12.4299 74.0634 12.4299C74.9867 12.4299 76.787 12.2298 78.0181 10.845C78.9259 9.82937 79.4183 8.10597 79.4183 6.49027C79.4183 5.39776 79.1875 3.65896 78.0027 2.30486C76.9102 1.07385 75.2791 0.796875 74.0942 0.796875C70.0935 0.796875 68.7547 3.79745 68.7547 6.75186ZM71.2475 6.67492C71.2475 5.41314 71.4322 4.21291 72.0631 3.44354C72.5093 2.8742 73.2171 2.50489 74.1096 2.50489C75.2483 2.50489 76.1869 3.10501 76.6486 4.4745C76.8794 5.15155 76.9255 5.92093 76.9255 6.4595C76.9255 8.22907 76.5408 9.09077 76.1715 9.64472C75.7253 10.3372 75.0636 10.6757 74.0942 10.6757C72.9863 10.6757 72.417 10.2448 72.0785 9.78321C71.4168 8.92151 71.2475 7.73667 71.2475 6.67492Z" fill="#00C850"/>
<path d="M80.8389 8.55221C80.8543 9.12155 80.8851 10.091 81.4236 10.9065C82.1315 12.0144 83.1317 12.2606 84.3319 12.2606C85.409 12.2606 86.0553 12.0452 86.4861 11.7836C87.8864 10.9219 88.2096 9.56778 88.2096 7.85977V1.02769H85.7937V7.84438C85.7937 8.4291 85.7937 9.12154 85.7014 9.58317C85.6244 9.87554 85.409 10.5218 84.4858 10.5218C83.501 10.5218 83.2086 9.75244 83.1778 8.55221H80.8389Z" fill="#00C850"/>
<path d="M91.0049 12.1529H98.6218V10.3064H93.39V7.30581H98.1294V5.49008H93.39V2.84342H98.4525V1.02769H91.0049V12.1529Z" fill="#00C850"/>
<path d="M109.644 4.65915C109.644 2.44334 107.936 0.966138 105.505 0.966138C102.381 0.966138 100.412 3.30505 100.412 6.8288C100.412 9.58317 101.658 12.4145 105.49 12.4145C106.505 12.4145 107.752 12.1837 108.736 11.1681C109.629 10.2448 109.69 9.21387 109.737 8.55221H107.228C107.182 10.0294 106.228 10.6603 105.228 10.6603C102.905 10.6603 102.905 7.50585 102.905 6.84419C102.905 4.55144 103.643 2.70493 105.413 2.70493C107.028 2.70493 107.167 4.27446 107.213 4.65915H109.644Z" fill="#00C850"/>
<path d="M114.291 12.1529H116.692V2.8742H120V1.02769H110.983V2.8742H114.291V12.1529Z" fill="#00C850"/>
</svg>
