<svg width="166" height="16" viewBox="0 0 166 16" fill="none" xmlns="http://www.w3.org/2000/svg">
<path d="M0 0.380952L5.62963 15.619H9.20635L14.836 0.380952H11.5979L7.57672 12.381L3.57672 0.380952H0Z" fill="#FAF000"/>
<path d="M17.1361 15.619H20.4165V0.275132H17.1361V15.619Z" fill="#FAF000"/>
<path d="M24.1693 15.619H34.6455V13.0794H27.4497V8.95238H33.9683V6.45503H27.4497V2.81482H34.4127V0.31746H24.1693V15.619Z" fill="#FAF000"/>
<path d="M36.7054 0.380952L40.4302 15.6614H44.1551L47.1392 3.97884L49.9117 15.6614H53.5519L57.4461 0.380952H54.3138L51.8376 11.8307L49.1498 0.380952H45.4461L42.462 11.8307L40.0916 0.380952H36.7054Z" fill="#FAF000"/>
<path d="M66.5111 15.619H69.8338V9.67196H72.056C72.8603 9.67196 74.4053 9.67196 75.5269 8.95238C76.7333 8.16931 77.474 6.66667 77.474 4.88889C77.474 4.10582 77.3471 3.00529 76.5428 2.03175C75.273 0.507936 73.4317 0.359789 71.2306 0.359789H66.5111V15.619ZM69.7492 2.83598H71.4C72.3312 2.83598 74.0878 2.83598 74.0878 4.91005C74.0878 7.2381 72.1195 7.2381 71.0613 7.2381H69.7492V2.83598Z" fill="#FAF000"/>
<path d="M80.19 15.619H83.5339V9.43915H86.4122C86.9625 9.43915 87.7667 9.43915 88.063 10.3069C88.2746 10.8995 88.7402 14.7725 88.8884 15.619H92.5074C92.3381 15.3651 92.2111 15.1958 92.0418 14.5185C91.936 14.0952 91.809 13.3545 91.5762 11.5556C91.3011 9.56614 91.1318 8.25397 88.8249 8.04233C89.5656 7.83069 92.0207 7.15344 92.0207 4.2963C92.0207 3.30159 91.6397 2.17989 90.6873 1.3545C89.4598 0.296296 87.7455 0.296296 86.0524 0.31746H80.19V15.619ZM83.4281 2.73016H85.6291C86.6662 2.73016 87.2799 2.73016 87.7879 3.08995C88.0842 3.28042 88.5921 3.7672 88.5921 4.80423C88.5921 5.8836 87.9783 6.4127 87.7455 6.58201C87.2164 7.00529 86.4545 7.00529 86.0736 7.00529H83.4281V2.73016Z" fill="#FAF000"/>
<path d="M94.5651 8.19048C94.5651 9.5873 94.7768 12.127 96.4487 13.9048C97.8456 15.3651 99.8561 16 101.867 16C103.137 16 105.613 15.7249 107.306 13.8201C108.555 12.4233 109.232 10.0529 109.232 7.83069C109.232 6.32804 108.914 3.93651 107.285 2.07407C105.782 0.380952 103.539 0 101.909 0C96.4064 0 94.5651 4.12698 94.5651 8.19048ZM97.9937 8.08466C97.9937 6.34921 98.2477 4.69841 99.1154 3.64021C99.7292 2.85714 100.703 2.34921 101.93 2.34921C103.496 2.34921 104.787 3.1746 105.422 5.0582C105.74 5.98942 105.803 7.04762 105.803 7.78836C105.803 10.2222 105.274 11.4074 104.766 12.1693C104.152 13.1217 103.242 13.5873 101.909 13.5873C100.385 13.5873 99.6022 12.9947 99.1366 12.3598C98.2265 11.1746 97.9937 9.54497 97.9937 8.08466Z" fill="#FAF000"/>
<path d="M111.186 10.6667C111.207 11.4497 111.249 12.7831 111.99 13.9048C112.963 15.4286 114.339 15.7672 115.99 15.7672C117.471 15.7672 118.36 15.4709 118.953 15.1111C120.879 13.9259 121.323 12.0635 121.323 9.71429V0.31746H118V9.69312C118 10.4974 118 11.4497 117.874 12.0847C117.768 12.4868 117.471 13.3757 116.202 13.3757C114.847 13.3757 114.445 12.3175 114.403 10.6667H111.186Z" fill="#FAF000"/>
<path d="M125.168 15.619H135.644V13.0794H128.448V8.95238H134.967V6.45503H128.448V2.81482H135.411V0.31746H125.168V15.619Z" fill="#FAF000"/>
<path d="M150.805 5.31217C150.805 2.26455 148.455 0.232804 145.111 0.232804C140.815 0.232804 138.106 3.44973 138.106 8.2963C138.106 12.0847 139.82 15.9788 145.09 15.9788C146.487 15.9788 148.201 15.6614 149.556 14.2645C150.783 12.9947 150.868 11.5767 150.932 10.6667H147.482C147.418 12.6984 146.106 13.5661 144.73 13.5661C141.535 13.5661 141.535 9.22751 141.535 8.31746C141.535 5.16402 142.551 2.62434 144.984 2.62434C147.207 2.62434 147.397 4.78307 147.461 5.31217H150.805Z" fill="#FAF000"/>
<path d="M157.196 15.619H160.498V2.85714H165.048V0.31746H152.646V2.85714H157.196V15.619Z" fill="#FAF000"/>
</svg>
