<svg width="120" height="12" viewBox="0 0 120 12" fill="none" xmlns="http://www.w3.org/2000/svg">
<path d="M0 0.441039L4.09309 11.5201H6.69359L10.7867 0.441039H8.43238L5.50875 9.16579L2.6005 0.441039H0Z" fill="#FAF000"/>
<path d="M12.459 11.5201H14.8441V0.364101H12.459V11.5201Z" fill="#FAF000"/>
<path d="M17.5726 11.5201H25.1894V9.67358H19.9577V6.673H24.697V4.85727H19.9577V2.21061H25.0202V0.394876H17.5726V11.5201Z" fill="#FAF000"/>
<path d="M26.6871 0.441039L29.3953 11.5509H32.1035L34.2731 3.05692L36.2889 11.5509H38.9356L41.7669 0.441039H39.4895L37.6892 8.76571L35.735 0.441039H33.0421L30.8725 8.76571L29.1491 0.441039H26.6871Z" fill="#FAF000"/>
<path d="M48.3577 11.5201H50.7735V7.19618H52.3892C52.974 7.19618 54.0972 7.19618 54.9128 6.673C55.7899 6.10366 56.3284 5.01114 56.3284 3.71859C56.3284 3.14925 56.2361 2.3491 55.6514 1.64127C54.7281 0.533364 53.3894 0.425651 51.7891 0.425651H48.3577V11.5201ZM50.712 2.226H51.9122C52.5893 2.226 53.8664 2.226 53.8664 3.73398C53.8664 5.42661 52.4354 5.42661 51.666 5.42661H50.712V2.226Z" fill="#FAF000"/>
<path d="M58.3031 11.5201H60.7343V7.02691H62.827C63.2271 7.02691 63.8118 7.02691 64.0273 7.6578C64.1811 8.08866 64.5197 10.9046 64.6274 11.5201H67.2587C67.1356 11.3354 67.0432 11.2123 66.9201 10.7199C66.8432 10.4122 66.7509 9.87361 66.5816 8.56567C66.3816 7.11924 66.2585 6.16521 64.5812 6.01134C65.1198 5.85746 66.9047 5.36506 66.9047 3.28774C66.9047 2.56452 66.6278 1.74898 65.9353 1.14887C65.0429 0.379488 63.7965 0.379488 62.5655 0.394876H58.3031V11.5201ZM60.6574 2.14906H62.2577C63.0117 2.14906 63.4579 2.14906 63.8272 2.41065C64.0427 2.54913 64.412 2.90305 64.412 3.65704C64.412 4.4418 63.9657 4.82649 63.7965 4.94959C63.4118 5.25735 62.8578 5.25735 62.5808 5.25735H60.6574V2.14906Z" fill="#FAF000"/>
<path d="M68.7547 6.11905C68.7547 7.13463 68.9086 8.98113 70.1242 10.2737C71.1398 11.3354 72.6016 11.7971 74.0634 11.7971C74.9867 11.7971 76.787 11.597 78.0181 10.2121C78.9259 9.19656 79.4183 7.47315 79.4183 5.85746C79.4183 4.76494 79.1875 3.02615 78.0027 1.67204C76.9102 0.441039 75.2791 0.164062 74.0942 0.164062C70.0935 0.164062 68.7547 3.16464 68.7547 6.11905ZM71.2475 6.04211C71.2475 4.78033 71.4322 3.5801 72.0631 2.81072C72.5093 2.24138 73.2171 1.87208 74.1096 1.87208C75.2483 1.87208 76.1869 2.4722 76.6486 3.84169C76.8794 4.51874 76.9255 5.28812 76.9255 5.82669C76.9255 7.59625 76.5408 8.45796 76.1715 9.01191C75.7253 9.70435 75.0636 10.0429 74.0942 10.0429C72.9863 10.0429 72.417 9.61202 72.0785 9.1504C71.4168 8.28869 71.2475 7.10385 71.2475 6.04211Z" fill="#FAF000"/>
<path d="M80.8389 7.91939C80.8543 8.48873 80.8851 9.45815 81.4236 10.2737C82.1315 11.3816 83.1317 11.6278 84.3319 11.6278C85.409 11.6278 86.0553 11.4124 86.4861 11.1508C87.8864 10.2891 88.2096 8.93497 88.2096 7.22695V0.394876H85.7937V7.21157C85.7937 7.79629 85.7937 8.48873 85.7014 8.95036C85.6244 9.24272 85.409 9.889 84.4858 9.889C83.501 9.889 83.2086 9.11962 83.1778 7.91939H80.8389Z" fill="#FAF000"/>
<path d="M91.0049 11.5201H98.6218V9.67358H93.39V6.673H98.1294V4.85727H93.39V2.21061H98.4525V0.394876H91.0049V11.5201Z" fill="#FAF000"/>
<path d="M109.644 4.02634C109.644 1.81053 107.936 0.333325 105.505 0.333325C102.381 0.333325 100.412 2.67223 100.412 6.19599C100.412 8.95036 101.658 11.7817 105.49 11.7817C106.505 11.7817 107.752 11.5509 108.736 10.5353C109.629 9.61202 109.69 8.58106 109.737 7.91939H107.228C107.182 9.3966 106.228 10.0275 105.228 10.0275C102.905 10.0275 102.905 6.87304 102.905 6.21137C102.905 3.91863 103.643 2.07212 105.413 2.07212C107.028 2.07212 107.167 3.64165 107.213 4.02634H109.644Z" fill="#FAF000"/>
<path d="M114.291 11.5201H116.692V2.24138H120V0.394876H110.983V2.24138H114.291V11.5201Z" fill="#FAF000"/>
</svg>
