<svg width="120" height="12" viewBox="0 0 120 12" fill="none" xmlns="http://www.w3.org/2000/svg">
<path d="M0 0.276976L4.09309 11.356H6.69359L10.7867 0.276976H8.43238L5.50875 9.00172L2.6005 0.276976H0Z" fill="black"/>
<path d="M12.459 11.356H14.8441V0.200038H12.459V11.356Z" fill="black"/>
<path d="M17.5726 11.356H25.1894V9.50951H19.9577V6.50894H24.697V4.69321H19.9577V2.04655H25.0202V0.230813H17.5726V11.356Z" fill="black"/>
<path d="M26.6871 0.276976L29.3953 11.3868H32.1035L34.2731 2.89286L36.2889 11.3868H38.9356L41.7669 0.276976H39.4895L37.6892 8.60165L35.735 0.276976H33.0421L30.8725 8.60165L29.1491 0.276976H26.6871Z" fill="black"/>
<path d="M48.3577 11.356H50.7735V7.03212H52.3892C52.974 7.03212 54.0972 7.03211 54.9128 6.50894C55.7899 5.9396 56.3284 4.84708 56.3284 3.55453C56.3284 2.98519 56.2361 2.18503 55.6514 1.47721C54.7281 0.369301 53.3894 0.261589 51.7891 0.261589H48.3577V11.356ZM50.712 2.06193H51.9122C52.5893 2.06193 53.8664 2.06193 53.8664 3.56991C53.8664 5.26255 52.4354 5.26255 51.666 5.26255H50.712V2.06193Z" fill="black"/>
<path d="M58.3031 11.356H60.7343V6.86285H62.827C63.2271 6.86285 63.8118 6.86285 64.0273 7.49374C64.1811 7.92459 64.5197 10.7405 64.6274 11.356H67.2587C67.1356 11.1714 67.0432 11.0483 66.9201 10.5559C66.8432 10.2481 66.7509 9.70955 66.5816 8.40161C66.3816 6.95518 66.2585 6.00115 64.5812 5.84727C65.1198 5.6934 66.9047 5.201 66.9047 3.12367C66.9047 2.40046 66.6278 1.58492 65.9353 0.984804C65.0429 0.215426 63.7965 0.215426 62.5655 0.230813H58.3031V11.356ZM60.6574 1.985H62.2577C63.0117 1.985 63.4579 1.985 63.8272 2.24658C64.0427 2.38507 64.412 2.73899 64.412 3.49298C64.412 4.27774 63.9657 4.66243 63.7965 4.78553C63.4118 5.09328 62.8578 5.09328 62.5808 5.09328H60.6574V1.985Z" fill="black"/>
<path d="M68.7547 5.95499C68.7547 6.97056 68.9086 8.81707 70.1242 10.1096C71.1398 11.1714 72.6016 11.633 74.0634 11.633C74.9867 11.633 76.787 11.433 78.0181 10.0481C78.9259 9.0325 79.4183 7.30909 79.4183 5.6934C79.4183 4.60088 79.1875 2.86209 78.0027 1.50798C76.9102 0.276976 75.2791 0 74.0942 0C70.0935 0 68.7547 3.00057 68.7547 5.95499ZM71.2475 5.87805C71.2475 4.61627 71.4322 3.41604 72.0631 2.64666C72.5093 2.07732 73.2171 1.70802 74.1096 1.70802C75.2483 1.70802 76.1869 2.30813 76.6486 3.67763C76.8794 4.35468 76.9255 5.12406 76.9255 5.66262C76.9255 7.43219 76.5408 8.29389 76.1715 8.84785C75.7253 9.54029 75.0636 9.87881 74.0942 9.87881C72.9863 9.87881 72.417 9.44796 72.0785 8.98634C71.4168 8.12463 71.2475 6.93979 71.2475 5.87805Z" fill="black"/>
<path d="M80.8389 7.75533C80.8543 8.32467 80.8851 9.29409 81.4236 10.1096C82.1315 11.2175 83.1317 11.4637 84.3319 11.4637C85.409 11.4637 86.0553 11.2483 86.4861 10.9867C87.8864 10.125 88.2096 8.77091 88.2096 7.06289V0.230813H85.7937V7.0475C85.7937 7.63223 85.7937 8.32467 85.7014 8.7863C85.6244 9.07866 85.409 9.72494 84.4858 9.72494C83.501 9.72494 83.2086 8.95556 83.1778 7.75533H80.8389Z" fill="black"/>
<path d="M91.0049 11.356H98.6218V9.50951H93.39V6.50894H98.1294V4.69321H93.39V2.04655H98.4525V0.230813H91.0049V11.356Z" fill="black"/>
<path d="M109.644 3.86228C109.644 1.64647 107.936 0.169263 105.505 0.169263C102.381 0.169263 100.412 2.50817 100.412 6.03192C100.412 8.7863 101.658 11.6176 105.49 11.6176C106.505 11.6176 107.752 11.3868 108.736 10.3712C109.629 9.44796 109.69 8.417 109.737 7.75533H107.228C107.182 9.23254 106.228 9.86343 105.228 9.86343C102.905 9.86343 102.905 6.70898 102.905 6.04731C102.905 3.75456 103.643 1.90806 105.413 1.90806C107.028 1.90806 107.167 3.47759 107.213 3.86228H109.644Z" fill="black"/>
<path d="M114.291 11.356H116.692V2.07732H120V0.230813H110.983V2.07732H114.291V11.356Z" fill="black"/>
</svg>
