<svg width="120" height="13" viewBox="0 0 120 13" fill="none" xmlns="http://www.w3.org/2000/svg">
<path d="M0 0.808226L4.09309 11.8873H6.69359L10.7867 0.808226H8.43238L5.50875 9.53297L2.6005 0.808226H0Z" fill="#F5F5C8"/>
<path d="M12.459 11.8873H14.8441V0.731288H12.459V11.8873Z" fill="#F5F5C8"/>
<path d="M17.5726 11.8873H25.1894V10.0408H19.9577V7.04019H24.697V5.22446H19.9577V2.5778H25.0202V0.762063H17.5726V11.8873Z" fill="#F5F5C8"/>
<path d="M26.6871 0.808226L29.3953 11.918H32.1035L34.2731 3.42411L36.2889 11.918H38.9356L41.7669 0.808226H39.4895L37.6892 9.1329L35.735 0.808226H33.0421L30.8725 9.1329L29.1491 0.808226H26.6871Z" fill="#F5F5C8"/>
<path d="M48.3577 11.8873H50.7735V7.56337H52.3892C52.974 7.56337 54.0972 7.56336 54.9128 7.04019C55.7899 6.47085 56.3284 5.37833 56.3284 4.08578C56.3284 3.51644 56.2361 2.71628 55.6514 2.00846C54.7281 0.900551 53.3894 0.792839 51.7891 0.792839H48.3577V11.8873ZM50.712 2.59318H51.9122C52.5893 2.59318 53.8664 2.59318 53.8664 4.10116C53.8664 5.7938 52.4354 5.7938 51.666 5.7938H50.712V2.59318Z" fill="#F5F5C8"/>
<path d="M58.3031 11.8873H60.7343V7.3941H62.827C63.2271 7.3941 63.8118 7.3941 64.0273 8.02499C64.1811 8.45584 64.5197 11.2718 64.6274 11.8873H67.2587C67.1356 11.7026 67.0432 11.5795 66.9201 11.0871C66.8432 10.7794 66.7509 10.2408 66.5816 8.93286C66.3816 7.48643 66.2585 6.5324 64.5812 6.37852C65.1198 6.22465 66.9047 5.73225 66.9047 3.65492C66.9047 2.93171 66.6278 2.11617 65.9353 1.51605C65.0429 0.746676 63.7965 0.746676 62.5655 0.762063H58.3031V11.8873ZM60.6574 2.51625H62.2577C63.0117 2.51625 63.4579 2.51625 63.8272 2.77783C64.0427 2.91632 64.412 3.27024 64.412 4.02423C64.412 4.80899 63.9657 5.19368 63.7965 5.31678C63.4118 5.62453 62.8578 5.62453 62.5808 5.62453H60.6574V2.51625Z" fill="#F5F5C8"/>
<path d="M68.7547 6.48624C68.7547 7.50181 68.9086 9.34832 70.1242 10.6409C71.1398 11.7026 72.6016 12.1642 74.0634 12.1642C74.9867 12.1642 76.787 11.9642 78.0181 10.5793C78.9259 9.56375 79.4183 7.84034 79.4183 6.22465C79.4183 5.13213 79.1875 3.39334 78.0027 2.03923C76.9102 0.808226 75.2791 0.53125 74.0942 0.53125C70.0935 0.53125 68.7547 3.53182 68.7547 6.48624ZM71.2475 6.4093C71.2475 5.14752 71.4322 3.94729 72.0631 3.17791C72.5093 2.60857 73.2171 2.23927 74.1096 2.23927C75.2483 2.23927 76.1869 2.83938 76.6486 4.20888C76.8794 4.88593 76.9255 5.65531 76.9255 6.19387C76.9255 7.96344 76.5408 8.82514 76.1715 9.3791C75.7253 10.0715 75.0636 10.4101 74.0942 10.4101C72.9863 10.4101 72.417 9.97921 72.0785 9.51759C71.4168 8.65588 71.2475 7.47104 71.2475 6.4093Z" fill="#F5F5C8"/>
<path d="M80.8389 8.28658C80.8543 8.85592 80.8851 9.82534 81.4236 10.6409C82.1315 11.7488 83.1317 11.995 84.3319 11.995C85.409 11.995 86.0553 11.7796 86.4861 11.518C87.8864 10.6563 88.2096 9.30216 88.2096 7.59414V0.762063H85.7937V7.57875C85.7937 8.16348 85.7937 8.85592 85.7014 9.31755C85.6244 9.60991 85.409 10.2562 84.4858 10.2562C83.501 10.2562 83.2086 9.48681 83.1778 8.28658H80.8389Z" fill="#F5F5C8"/>
<path d="M91.0049 11.8873H98.6218V10.0408H93.39V7.04019H98.1294V5.22446H93.39V2.5778H98.4525V0.762063H91.0049V11.8873Z" fill="#F5F5C8"/>
<path d="M109.644 4.39353C109.644 2.17772 107.936 0.700513 105.505 0.700513C102.381 0.700513 100.412 3.03942 100.412 6.56317C100.412 9.31755 101.658 12.1489 105.49 12.1489C106.505 12.1489 107.752 11.918 108.736 10.9025C109.629 9.97921 109.69 8.94825 109.737 8.28658H107.228C107.182 9.76379 106.228 10.3947 105.228 10.3947C102.905 10.3947 102.905 7.24023 102.905 6.57856C102.905 4.28581 103.643 2.43931 105.413 2.43931C107.028 2.43931 107.167 4.00884 107.213 4.39353H109.644Z" fill="#F5F5C8"/>
<path d="M114.291 11.8873H116.692V2.60857H120V0.762063H110.983V2.60857H114.291V11.8873Z" fill="#F5F5C8"/>
</svg>
