<svg width="120" height="13" viewBox="0 0 120 13" fill="none" xmlns="http://www.w3.org/2000/svg">
<path d="M0 1.17541L4.09309 12.2545H6.69359L10.7867 1.17541H8.43238L5.50875 9.90016L2.6005 1.17541H0Z" fill="#FFAFC3"/>
<path d="M12.459 12.2545H14.8441V1.09848H12.459V12.2545Z" fill="#FFAFC3"/>
<path d="M17.5726 12.2545H25.1894V10.408H19.9577V7.40738H24.697V5.59164H19.9577V2.94498H25.0202V1.12925H17.5726V12.2545Z" fill="#FFAFC3"/>
<path d="M26.6871 1.17541L29.3953 12.2852H32.1035L34.2731 3.7913L36.2889 12.2852H38.9356L41.7669 1.17541H39.4895L37.6892 9.50008L35.735 1.17541H33.0421L30.8725 9.50008L29.1491 1.17541H26.6871Z" fill="#FFAFC3"/>
<path d="M48.3577 12.2545H50.7735V7.93055H52.3892C52.974 7.93055 54.0972 7.93055 54.9128 7.40738C55.7899 6.83804 56.3284 5.74552 56.3284 4.45296C56.3284 3.88362 56.2361 3.08347 55.6514 2.37564C54.7281 1.26774 53.3894 1.16003 51.7891 1.16003H48.3577V12.2545ZM50.712 2.96037H51.9122C52.5893 2.96037 53.8664 2.96037 53.8664 4.46835C53.8664 6.16098 52.4354 6.16098 51.666 6.16098H50.712V2.96037Z" fill="#FFAFC3"/>
<path d="M58.3031 12.2545H60.7343V7.76129H62.827C63.2271 7.76129 63.8118 7.76129 64.0273 8.39218C64.1811 8.82303 64.5197 11.639 64.6274 12.2545H67.2587C67.1356 12.0698 67.0432 11.9467 66.9201 11.4543C66.8432 11.1466 66.7509 10.608 66.5816 9.30005C66.3816 7.85361 66.2585 6.89959 64.5812 6.74571C65.1198 6.59183 66.9047 6.09943 66.9047 4.02211C66.9047 3.2989 66.6278 2.48336 65.9353 1.88324C65.0429 1.11386 63.7965 1.11386 62.5655 1.12925H58.3031V12.2545ZM60.6574 2.88343H62.2577C63.0117 2.88343 63.4579 2.88343 63.8272 3.14502C64.0427 3.28351 64.412 3.63742 64.412 4.39141C64.412 5.17618 63.9657 5.56087 63.7965 5.68397C63.4118 5.99172 62.8578 5.99172 62.5808 5.99172H60.6574V2.88343Z" fill="#FFAFC3"/>
<path d="M68.7547 6.85342C68.7547 7.869 68.9086 9.71551 70.1242 11.0081C71.1398 12.0698 72.6016 12.5314 74.0634 12.5314C74.9867 12.5314 76.787 12.3314 78.0181 10.9465C78.9259 9.93094 79.4183 8.20753 79.4183 6.59183C79.4183 5.49932 79.1875 3.76052 78.0027 2.40642C76.9102 1.17541 75.2791 0.898438 74.0942 0.898438C70.0935 0.898438 68.7547 3.89901 68.7547 6.85342ZM71.2475 6.77649C71.2475 5.51471 71.4322 4.31448 72.0631 3.5451C72.5093 2.97576 73.2171 2.60646 74.1096 2.60646C75.2483 2.60646 76.1869 3.20657 76.6486 4.57606C76.8794 5.25312 76.9255 6.0225 76.9255 6.56106C76.9255 8.33063 76.5408 9.19233 76.1715 9.74628C75.7253 10.4387 75.0636 10.7773 74.0942 10.7773C72.9863 10.7773 72.417 10.3464 72.0785 9.88477C71.4168 9.02307 71.2475 7.83823 71.2475 6.77649Z" fill="#FFAFC3"/>
<path d="M80.8389 8.65377C80.8543 9.22311 80.8851 10.1925 81.4236 11.0081C82.1315 12.116 83.1317 12.3622 84.3319 12.3622C85.409 12.3622 86.0553 12.1467 86.4861 11.8852C87.8864 11.0235 88.2096 9.66935 88.2096 7.96133V1.12925H85.7937V7.94594C85.7937 8.53067 85.7937 9.22311 85.7014 9.68473C85.6244 9.9771 85.409 10.6234 84.4858 10.6234C83.501 10.6234 83.2086 9.854 83.1778 8.65377H80.8389Z" fill="#FFAFC3"/>
<path d="M91.0049 12.2545H98.6218V10.408H93.39V7.40738H98.1294V5.59164H93.39V2.94498H98.4525V1.12925H91.0049V12.2545Z" fill="#FFAFC3"/>
<path d="M109.644 4.76072C109.644 2.54491 107.936 1.0677 105.505 1.0677C102.381 1.0677 100.412 3.40661 100.412 6.93036C100.412 9.68473 101.658 12.516 105.49 12.516C106.505 12.516 107.752 12.2852 108.736 11.2697C109.629 10.3464 109.69 9.31543 109.737 8.65377H107.228C107.182 10.131 106.228 10.7619 105.228 10.7619C102.905 10.7619 102.905 7.60741 102.905 6.94575C102.905 4.653 103.643 2.8065 105.413 2.8065C107.028 2.8065 107.167 4.37603 107.213 4.76072H109.644Z" fill="#FFAFC3"/>
<path d="M114.291 12.2545H116.692V2.97576H120V1.12925H110.983V2.97576H114.291V12.2545Z" fill="#FFAFC3"/>
</svg>
