<svg xmlns="http://www.w3.org/2000/svg" viewBox="0 0 800 1120"><defs><style>.cls-1,.cls-2,.cls-5{fill:none;stroke:#231f20;stroke-linecap:round;stroke-linejoin:round;}.cls-1{stroke-width:0.6px;}.cls-2{stroke-width:0.24px;}.cls-3{font-size:12.92px;font-family:AndaleMono, Andale Mono;}.cls-4{letter-spacing:1.28em;}.cls-5{stroke-width:0.75px;}</style></defs><g id="Wall"><line class="cls-1" x1="381.1" y1="526.8" x2="381.42" y2="526.8"/><line class="cls-1" x1="381.1" y1="526.8" x2="381.1" y2="526.48"/><line class="cls-1" x1="380.55" y1="527.34" x2="381.1" y2="526.8"/><line class="cls-1" x1="418.9" y1="526.8" x2="418.9" y2="526.48"/><line class="cls-1" x1="418.9" y1="526.8" x2="418.58" y2="526.8"/><line class="cls-1" x1="419.45" y1="527.34" x2="418.9" y2="526.8"/><line class="cls-1" x1="381.1" y1="469.78" x2="381.42" y2="469.78"/><line class="cls-1" x1="380.55" y1="469.24" x2="381.1" y2="469.78"/><line class="cls-1" x1="381.1" y1="469.78" x2="381.1" y2="470.1"/><line class="cls-1" x1="418.9" y1="469.78" x2="418.58" y2="469.78"/><line class="cls-1" x1="418.9" y1="469.78" x2="418.9" y2="470.1"/><line class="cls-1" x1="419.45" y1="469.24" x2="418.9" y2="469.78"/><line class="cls-1" x1="390.51" y1="527.58" x2="390.51" y2="526.8"/><line class="cls-1" x1="390.12" y1="526.8" x2="390.9" y2="526.8"/><line class="cls-1" x1="409.49" y1="527.58" x2="409.49" y2="526.8"/><line class="cls-1" x1="409.1" y1="526.8" x2="409.88" y2="526.8"/><line class="cls-1" x1="380.32" y1="517.26" x2="381.1" y2="517.26"/><line class="cls-1" x1="381.1" y1="516.87" x2="381.1" y2="517.65"/><line class="cls-1" x1="380.32" y1="507.78" x2="381.1" y2="507.78"/><line class="cls-1" x1="381.1" y1="507.39" x2="381.1" y2="508.17"/><line class="cls-1" x1="380.32" y1="498.29" x2="381.1" y2="498.29"/><line class="cls-1" x1="381.1" y1="497.9" x2="381.1" y2="498.68"/><line class="cls-1" x1="380.32" y1="488.8" x2="381.1" y2="488.8"/><line class="cls-1" x1="381.1" y1="488.41" x2="381.1" y2="489.19"/><line class="cls-1" x1="380.32" y1="479.32" x2="381.1" y2="479.32"/><line class="cls-1" x1="381.1" y1="478.93" x2="381.1" y2="479.71"/><line class="cls-1" x1="419.68" y1="479.32" x2="418.9" y2="479.32"/><line class="cls-1" x1="418.9" y1="478.93" x2="418.9" y2="479.71"/><line class="cls-1" x1="419.68" y1="488.8" x2="418.9" y2="488.8"/><line class="cls-1" x1="418.9" y1="488.41" x2="418.9" y2="489.19"/><line class="cls-1" x1="419.68" y1="498.29" x2="418.9" y2="498.29"/><line class="cls-1" x1="418.9" y1="497.9" x2="418.9" y2="498.68"/><line class="cls-1" x1="419.68" y1="507.78" x2="418.9" y2="507.78"/><line class="cls-1" x1="418.9" y1="507.39" x2="418.9" y2="508.17"/><line class="cls-1" x1="419.68" y1="517.26" x2="418.9" y2="517.26"/><line class="cls-1" x1="418.9" y1="516.87" x2="418.9" y2="517.65"/><line class="cls-1" x1="390.51" y1="469" x2="390.51" y2="469.78"/><line class="cls-1" x1="390.12" y1="469.78" x2="390.9" y2="469.78"/><line class="cls-1" x1="409.49" y1="469" x2="409.49" y2="469.78"/><line class="cls-1" x1="409.1" y1="469.78" x2="409.88" y2="469.78"/></g><g id="Window_Door_Stairs" data-name="Window/Door/Stairs"><line class="cls-2" x1="390.12" y1="526.8" x2="381.42" y2="526.8"/><line class="cls-2" x1="409.1" y1="469.78" x2="390.9" y2="469.78"/><line class="cls-2" x1="390.12" y1="469.78" x2="381.42" y2="469.78"/><line class="cls-2" x1="418.58" y1="526.8" x2="409.88" y2="526.8"/><line class="cls-2" x1="418.58" y1="469.78" x2="409.88" y2="469.78"/><line class="cls-2" x1="418.9" y1="470.1" x2="418.9" y2="478.93"/><line class="cls-2" x1="418.9" y1="479.71" x2="418.9" y2="488.41"/><line class="cls-2" x1="418.9" y1="489.19" x2="418.9" y2="497.9"/><line class="cls-2" x1="418.9" y1="498.68" x2="418.9" y2="507.39"/><line class="cls-2" x1="418.9" y1="508.17" x2="418.9" y2="516.87"/><line class="cls-2" x1="418.9" y1="517.65" x2="418.9" y2="526.48"/><line class="cls-2" x1="381.1" y1="470.1" x2="381.1" y2="478.93"/><line class="cls-2" x1="381.1" y1="489.19" x2="381.1" y2="497.9"/><line class="cls-2" x1="381.1" y1="498.68" x2="381.1" y2="507.39"/><line class="cls-2" x1="381.1" y1="508.17" x2="381.1" y2="516.87"/><line class="cls-2" x1="381.1" y1="517.65" x2="381.1" y2="526.48"/><line class="cls-2" x1="381.1" y1="479.71" x2="381.1" y2="488.41"/><line class="cls-2" x1="409.1" y1="526.8" x2="390.9" y2="526.8"/></g><g id="TEXT"><text class="cls-3"><tspan x="24.74" y="1024.55">1</tspan><tspan class="cls-4" x="32.5" y="1024.55">	</tspan><tspan x="56.73" y="1024.55">Storage</tspan></text><text class="cls-3" transform="translate(396.12 503.98)">1</text><circle class="cls-5" cx="765.53" cy="1024.02" r="11.44"/></g></svg>