<svg xmlns="http://www.w3.org/2000/svg" viewBox="0 0 800 1120"><defs><style>.cls-1,.cls-2,.cls-3,.cls-6{fill:none;stroke:#231f20;stroke-linecap:round;stroke-linejoin:round;}.cls-1{stroke-width:0.6px;}.cls-2{stroke-width:0.18px;}.cls-3{stroke-width:0.3px;}.cls-4{font-size:12.92px;font-family:AndaleMono, Andale Mono;}.cls-5{letter-spacing:1.28em;}.cls-6{stroke-width:0.75px;}</style></defs><g id="Wall"><rect class="cls-1" x="332.06" y="533.67" width="3.13" height="3.13"/><rect class="cls-1" x="435.38" y="563.1" width="3.13" height="3.13"/><rect class="cls-1" x="332.06" y="509.25" width="3.13" height="3.13"/><rect class="cls-1" x="332.06" y="484.2" width="3.13" height="3.13"/><rect class="cls-1" x="332.06" y="459.15" width="3.13" height="3.13"/><rect class="cls-1" x="332.06" y="434.11" width="3.13" height="3.13"/><rect class="cls-1" x="360.86" y="430.35" width="3.13" height="3.13"/><rect class="cls-1" x="385.91" y="430.35" width="3.13" height="3.13"/><rect class="cls-1" x="410.96" y="430.35" width="3.13" height="3.13"/><rect class="cls-1" x="436.01" y="430.35" width="3.13" height="3.13"/><rect class="cls-1" x="461.05" y="430.35" width="3.13" height="3.13"/><rect class="cls-1" x="335.82" y="430.35" width="3.13" height="3.13"/><rect class="cls-1" x="464.81" y="534.3" width="3.13" height="3.13"/><rect class="cls-1" x="464.81" y="509.25" width="3.13" height="3.13"/><rect class="cls-1" x="464.81" y="484.2" width="3.13" height="3.13"/><rect class="cls-1" x="464.81" y="459.15" width="3.13" height="3.13"/><rect class="cls-1" x="464.81" y="434.11" width="3.13" height="3.13"/><rect class="cls-1" x="360.86" y="563.1" width="3.13" height="3.13"/><rect class="cls-1" x="385.91" y="563.1" width="3.13" height="3.13"/><rect class="cls-1" x="461.05" y="563.1" width="3.13" height="3.13"/><rect class="cls-1" x="464.81" y="559.34" width="3.13" height="3.13"/><rect class="cls-1" x="335.82" y="563.1" width="3.13" height="3.13"/><rect class="cls-1" x="332.06" y="559.34" width="3.13" height="3.13"/><rect class="cls-1" x="410.96" y="563.1" width="3.13" height="3.13"/><line class="cls-1" x1="335.19" y1="562.47" x2="335.19" y2="559.34"/></g><g id="Window_Door_Stairs" data-name="Window/Door/Stairs"><rect class="cls-2" x="418.79" y="503.61" width="6.26" height="9.39"/><polyline class="cls-2" points="403.13 487.96 403.13 478.56 396.87 478.56 396.87 487.96"/><polyline class="cls-2" points="410.33 513 410.33 503.61 389.67 503.61 389.67 513"/><path class="cls-2" d="M385.28,448.82a10.3,10.3,0,0,0-.72-3.8,10.24,10.24,0,0,0-2.3-3.5,10.37,10.37,0,0,0-3.5-2.31,10.38,10.38,0,0,0-7.61,0,10.39,10.39,0,0,0-5.8,5.81,9.83,9.83,0,0,0-.56,1.92,10.48,10.48,0,0,0,0,3.76,9.83,9.83,0,0,0,.56,1.92,10.31,10.31,0,0,0,5.8,5.81,10.54,10.54,0,0,0,1.92.55,10.48,10.48,0,0,0,3.76,0,10.88,10.88,0,0,0,1.93-.55,10.31,10.31,0,0,0,5.8-5.81,10.3,10.3,0,0,0,.72-3.8Z"/><path class="cls-2" d="M400.63,511.71a.59.59,0,0,0-.05-.23.64.64,0,0,0-.14-.22.6.6,0,0,0-.21-.14.68.68,0,0,0-.46,0,.6.6,0,0,0-.21.14.64.64,0,0,0-.14.22.59.59,0,0,0-.05.23.68.68,0,0,0,.05.23.64.64,0,0,0,.35.35.68.68,0,0,0,.46,0,.64.64,0,0,0,.35-.35A.68.68,0,0,0,400.63,511.71Z"/><path class="cls-2" d="M455.42,503a5.23,5.23,0,0,0-.09-1,4.89,4.89,0,0,0-.29-1,5.3,5.3,0,0,0-1.18-1.81,5.45,5.45,0,0,0-1.81-1.18,5.62,5.62,0,0,0-1-.29,5.22,5.22,0,0,0-1.93,0,5.62,5.62,0,0,0-1,.29,5.45,5.45,0,0,0-1.81,1.18,5.3,5.3,0,0,0-1.18,1.81,4.89,4.89,0,0,0-.29,1,5.23,5.23,0,0,0-.09,1,5.12,5.12,0,0,0,.09,1,5,5,0,0,0,.29,1,5.26,5.26,0,0,0,1.18,1.8,5.48,5.48,0,0,0,1.81,1.19,5.6,5.6,0,0,0,1,.28,5.22,5.22,0,0,0,1.93,0,5.6,5.6,0,0,0,1-.28,5.48,5.48,0,0,0,1.81-1.19A5.26,5.26,0,0,0,455,505a5,5,0,0,0,.29-1A5.12,5.12,0,0,0,455.42,503Z"/><path class="cls-2" d="M340.83,491.09h41.64a3.14,3.14,0,0,1,3.13,3.13v12.52a3.12,3.12,0,0,1-3.13,3.13H340.83a3.12,3.12,0,0,1-3.14-3.13V494.22a3.14,3.14,0,0,1,3.14-3.13Z"/><line class="cls-2" x1="459.8" y1="566.23" x2="439.76" y2="566.23"/><line class="cls-2" x1="459.8" y1="561.85" x2="439.76" y2="561.85"/><line class="cls-2" x1="336.44" y1="538.05" x2="439.14" y2="538.05"/><line class="cls-2" x1="431.31" y1="513.01" x2="463.56" y2="513.01"/><line class="cls-2" x1="396.56" y1="487.96" x2="463.56" y2="487.96"/><line class="cls-2" x1="336.44" y1="462.91" x2="463.56" y2="462.91"/><line class="cls-2" x1="336.44" y1="487.96" x2="396.56" y2="487.96"/><line class="cls-2" x1="336.44" y1="513.01" x2="418.79" y2="513.01"/><rect class="cls-2" x="439.14" y="528.66" width="6.89" height="9.39"/><rect class="cls-2" x="452.91" y="528.66" width="6.89" height="9.39"/><polyline class="cls-2" points="452.91 528.66 446.02 528.66 446.02 538.05 452.91 538.05"/><polyline class="cls-2" points="446.02 528.66 439.14 528.66 439.14 538.05 446.02 538.05"/><polyline class="cls-2" points="435.38 566.23 332.06 566.23 332.06 430.35 467.94 430.35 467.94 566.23 464.18 566.23"/><polyline class="cls-2" points="425.05 513 431.31 513 431.31 503.61 425.05 503.61"/><line class="cls-2" x1="459.8" y1="538.05" x2="463.56" y2="538.05"/></g><g id="Accessory"><polyline class="cls-3" points="461.05 566.23 459.8 566.23 459.8 561.85 463.56 561.85 463.56 434.73"/><polyline class="cls-3" points="438.51 566.23 439.76 566.23 439.76 561.85 336.44 561.85 336.44 558.09 332.06 558.09 332.06 559.34 335.19 559.34"/><polyline class="cls-3" points="435.38 563.1 335.19 563.1 335.19 562.47"/><line class="cls-3" x1="335.19" y1="536.8" x2="335.19" y2="434.11"/><polyline class="cls-3" points="336.44 538.05 332.06 538.05 332.06 536.8"/><line class="cls-3" x1="336.44" y1="434.73" x2="336.44" y2="538.05"/><line class="cls-3" x1="463.56" y1="434.73" x2="336.44" y2="434.73"/><polyline class="cls-3" points="464.81 562.47 464.81 563.1 461.05 563.1"/><line class="cls-3" x1="464.81" y1="434.11" x2="464.81" y2="559.34"/><polyline class="cls-3" points="335.19 434.11 335.19 433.48 464.81 433.48 464.81 434.11"/></g><g id="TEXT"><text class="cls-4"><tspan x="24.74" y="1024.55">1</tspan><tspan class="cls-5" x="32.5" y="1024.55">	</tspan><tspan x="56.73" y="1024.55">Sleep</tspan><tspan x="24.74" y="1043.62">2</tspan><tspan class="cls-5" x="32.5" y="1043.62">	</tspan><tspan x="56.73" y="1043.62">Relax</tspan><tspan x="24.74" y="1062.69">3</tspan><tspan class="cls-5" x="32.5" y="1062.69">	</tspan><tspan x="56.73" y="1062.69">Clean</tspan><tspan x="24.74" y="1081.76">4</tspan><tspan class="cls-5" x="32.5" y="1081.76">	</tspan><tspan x="56.73" y="1081.76">Eat</tspan><tspan x="24.74" y="1100.83">5</tspan><tspan class="cls-5" x="32.5" y="1100.83">	</tspan><tspan x="56.73" y="1100.83">Work</tspan></text><text class="cls-4" transform="translate(433.07 455.75)">1</text><text class="cls-4" transform="translate(433.07 479.86)">2</text><text class="cls-4" transform="translate(358.55 507.68)">3</text><text class="cls-4" transform="translate(396.12 532.46)">4</text><text class="cls-4" transform="translate(358.55 532.46)">5</text><circle class="cls-6" cx="765.53" cy="1024.02" r="11.44"/></g></svg>