<svg xmlns="http://www.w3.org/2000/svg" viewBox="0 0 800 1120"><defs><style>.cls-1,.cls-2,.cls-3,.cls-7{fill:none;stroke:#231f20;stroke-linecap:round;stroke-linejoin:round;}.cls-1{stroke-width:0.9px;}.cls-2{stroke-width:0.24px;}.cls-3{stroke-width:0.36px;}.cls-4{font-size:12.92px;font-family:AndaleMono, Andale Mono;}.cls-5{letter-spacing:1.28em;}.cls-6{letter-spacing:0.68em;}.cls-7{stroke-width:0.75px;}</style></defs><g id="Wall"><line class="cls-1" x1="412.96" y1="331.47" x2="409.2" y2="331.47"/><path class="cls-1" d="M305,504.17a36.88,36.88,0,0,0,5.31,1"/><polyline class="cls-1" points="376.14 145.65 388.85 145.65 388.85 149.41 376.14 149.41 376.14 205.46 390.73 205.46 409.2 205.46"/><line class="cls-1" x1="259.54" y1="91.18" x2="253.59" y2="91.18"/><line class="cls-1" x1="546.33" y1="91.18" x2="540.39" y2="91.18"/><line class="cls-1" x1="359.15" y1="664.27" x2="407.94" y2="680.33"/><line class="cls-1" x1="381.72" y1="856.14" x2="376.49" y2="872.05"/><line class="cls-1" x1="407.94" y1="680.33" x2="410.59" y2="672.3"/><line class="cls-1" x1="410.59" y1="672.3" x2="367.76" y2="658.21"/><line class="cls-1" x1="329.8" y1="883.7" x2="258.58" y2="860.25"/><line class="cls-1" x1="253.67" y1="864.59" x2="328.04" y2="889.05"/><line class="cls-1" x1="307.71" y1="760.08" x2="312.4" y2="745.81"/><rect class="cls-1" x="416.81" y="858.31" width="5.63" height="115.84" transform="translate(-581.87 1028.36) rotate(-71.78)"/><rect class="cls-1" x="298.68" y="91.18" width="82.59" height="5.95"/><line class="cls-1" x1="418.65" y1="97.12" x2="418.65" y2="91.18"/><path class="cls-1" d="M359.15,664.27a979.74,979.74,0,0,0,51-291.31"/><line class="cls-1" x1="376.49" y1="872.05" x2="373.22" y2="870.97"/><path class="cls-1" d="M367.76,658.21a979,979,0,0,0,48.49-276.36"/><line class="cls-1" x1="375.7" y1="379.22" x2="375.7" y2="372.96"/><line class="cls-1" x1="310.2" y1="764.52" x2="315.97" y2="746.98"/><line class="cls-1" x1="315.97" y1="746.98" x2="376.71" y2="766.72"/><line class="cls-1" x1="293.55" y1="735.98" x2="381.13" y2="764.8"/><line class="cls-1" x1="412.96" y1="331.47" x2="412.96" y2="138.92"/><line class="cls-1" x1="409.2" y1="138.92" x2="412.96" y2="138.92"/><polyline class="cls-1" points="258.58 860.25 292.05 758.55 310.2 764.52"/><line class="cls-1" x1="416.25" y1="372.96" x2="416.25" y2="381.85"/><polyline class="cls-1" points="253.67 864.59 287.78 753.51 307.71 760.08"/><polyline class="cls-1" points="312.4 745.81 292.53 739.26 293.55 735.98"/><line class="cls-1" x1="540.39" y1="379.22" x2="546.33" y2="379.22"/><line class="cls-1" x1="546.33" y1="379.22" x2="546.33" y2="91.18"/><line class="cls-1" x1="540.39" y1="379.22" x2="540.39" y2="91.18"/><line class="cls-1" x1="328.04" y1="889.05" x2="329.8" y2="883.7"/><polyline class="cls-1" points="381.72 856.14 488.79 891.38 489.86 888.11 382.8 852.87 401.94 794.72 428.7 803.53 422.83 821.38 473.39 838.02 480.34 816.9 477.07 815.83 471.19 833.67 427.18 819.18 433.05 801.34 399.74 790.38 373.21 870.97"/><polyline class="cls-1" points="407.77 765.99 435.87 680.63 546.2 716.95 521.82 791 516.47 789.24 539.08 720.54 437.38 687.06"/><rect class="cls-1" x="492.81" y="833.55" width="22.24" height="5.64" transform="translate(-448.07 1053.55) rotate(-71.78)"/><line class="cls-1" x1="416.25" y1="372.96" x2="410.14" y2="372.96"/><path class="cls-1" d="M310.83,500.54l48.87,5.75q2.12-12.75,3.89-25.55l3.42.4q-3.37,24.41-8,48.62l-6.51-1.36a27.6,27.6,0,0,0-1.5-4.32,28.5,28.5,0,0,0-2.29-4.2A28.1,28.1,0,0,0,333,508.35a26.67,26.67,0,0,0-4.69-.93,27.93,27.93,0,0,0-4.57-.14,27.56,27.56,0,0,0-4.53.61,28.16,28.16,0,0,0-20.84,18.92,27.13,27.13,0,0,0-1,4.45A28.13,28.13,0,0,0,311.42,560a27.45,27.45,0,0,0,4.16,1.91,28,28,0,0,0,9.17,1.69,28.11,28.11,0,0,0,18.38-6.45,27.78,27.78,0,0,0,6.11-7l5.38,1.12q-.81,3.75-1.65,7.49l-5.34-1.22a32.23,32.23,0,0,1-5.42,4.54,31.65,31.65,0,0,1-6.44,3.32,32.29,32.29,0,0,1-33.48-6.55,31.77,31.77,0,0,1-4.61-5.35,32.2,32.2,0,0,1-3.34-6.23,32.59,32.59,0,0,1-1.94-7,31.89,31.89,0,0,1-.32-7.24,32.34,32.34,0,0,1,8.16-19.38,33,33,0,0,1,5.41-4.82,32.48,32.48,0,0,1,6.19-3.42l-1.56-.19A35.89,35.89,0,0,1,300,502.41l3.32-3.75A24.68,24.68,0,0,0,310.83,500.54Z"/><path class="cls-1" d="M367.92,444.21l-49.77-5.86a31.35,31.35,0,0,0-31.46,45.57l-3.28,3.7a36,36,0,0,1,35.29-53.94l53.1,6.25q-.93,9.75-2,19.47l-3.42-.41Q367.19,451.61,367.92,444.21Z"/><line class="cls-1" x1="437.37" y1="687.06" x2="411.04" y2="767.07"/><line class="cls-1" x1="399.74" y1="790.38" x2="403.01" y2="791.45"/><line class="cls-1" x1="376.71" y1="766.76" x2="370.92" y2="784.34"/><line class="cls-1" x1="370.92" y1="784.54" x2="374.28" y2="785.62"/><line class="cls-1" x1="375.7" y1="379.22" x2="253.59" y2="379.22"/><line class="cls-1" x1="375.7" y1="372.96" x2="259.54" y2="372.96"/><line class="cls-1" x1="374.31" y1="785.6" x2="381.11" y2="764.79"/><line class="cls-1" x1="253.59" y1="91.18" x2="253.59" y2="379.22"/><line class="cls-1" x1="259.54" y1="91.18" x2="259.54" y2="372.96"/><line class="cls-1" x1="409.2" y1="205.45" x2="409.2" y2="138.92"/><line class="cls-1" x1="376.64" y1="210.15" x2="409.2" y2="210.15"/><line class="cls-1" x1="376.64" y1="210.15" x2="376.64" y2="331.47"/><line class="cls-1" x1="376.64" y1="331.47" x2="371.94" y2="331.47"/><line class="cls-1" x1="376.14" y1="145.65" x2="376.16" y2="138.92"/><line class="cls-1" x1="376.16" y1="138.92" x2="371.94" y2="138.92"/><line class="cls-1" x1="371.94" y1="138.92" x2="371.94" y2="331.47"/><line class="cls-1" x1="409.2" y1="210.15" x2="409.2" y2="331.47"/><line class="cls-1" x1="502.81" y1="97.12" x2="502.81" y2="91.18"/><line class="cls-1" x1="502.81" y1="91.18" x2="418.65" y2="91.18"/><line class="cls-1" x1="502.81" y1="97.12" x2="418.65" y2="97.12"/><line class="cls-1" x1="411.04" y1="767.07" x2="407.77" y2="765.99"/></g><g id="Window_Door_Stairs" data-name="Window/Door/Stairs"><path class="cls-2" d="M283.41,487.62a36.88,36.88,0,0,0,7.16,8.68,36.49,36.49,0,0,0,9.44,6.11"/><path class="cls-2" d="M286.69,483.92a31.75,31.75,0,0,0,16.65,14.75"/><line class="cls-2" x1="294.29" y1="91.18" x2="294.29" y2="54.54"/><line class="cls-2" x1="516.47" y1="789.24" x2="504.72" y2="824.93"/><line class="cls-2" x1="521.82" y1="791" x2="510.08" y2="826.69"/><line class="cls-2" x1="484.51" y1="886.34" x2="497.77" y2="846.05"/><line class="cls-2" x1="470.17" y1="929.91" x2="483.43" y2="889.61"/><line class="cls-2" x1="363.73" y1="900.8" x2="328.04" y2="889.05"/><line class="cls-2" x1="365.49" y1="895.45" x2="329.8" y2="883.7"/><path class="cls-2" d="M490.94,698.75A1101.56,1101.56,0,0,0,530.32,541a1128.73,1128.73,0,0,0,16-161.8"/><line class="cls-2" x1="540.39" y1="379.22" x2="416.25" y2="379.22"/><polyline class="cls-2" points="298.76 737.69 309.64 704.64 321.35 669.04 328.1 648.53"/><polyline class="cls-2" points="293.55 735.98 304.43 702.92 316.14 667.33 322.9 646.81"/><line class="cls-2" x1="381.08" y1="97.12" x2="418.65" y2="97.12"/><line class="cls-2" x1="540.39" y1="91.18" x2="502.81" y2="91.18"/><line class="cls-2" x1="322.12" y1="649.16" x2="322.52" y2="647.97"/><line class="cls-2" x1="327.33" y1="650.88" x2="327.72" y2="649.69"/><polyline class="cls-2" points="292.95 541.82 285.77 505.56 255.8 511.5"/><line class="cls-2" x1="257.19" y1="520.64" x2="287.57" y2="514.63"/><line class="cls-2" x1="258.98" y1="529.7" x2="289.36" y2="523.69"/><line class="cls-2" x1="261.29" y1="538.66" x2="291.15" y2="532.75"/><line class="cls-2" x1="264.16" y1="547.51" x2="292.95" y2="541.81"/><line class="cls-2" x1="532.85" y1="679.59" x2="500.33" y2="668.89"/><line class="cls-2" x1="523.06" y1="709.33" x2="532.85" y2="679.59"/><line class="cls-2" x1="515.03" y1="706.68" x2="524.82" y2="676.95"/><line class="cls-2" x1="507" y1="704.04" x2="516.79" y2="674.31"/><line class="cls-2" x1="498.97" y1="701.4" x2="508.76" y2="671.66"/><line class="cls-2" x1="253.59" y1="91.18" x2="253.59" y2="54.54"/><line class="cls-2" x1="263.77" y1="91.18" x2="263.77" y2="54.54"/><line class="cls-2" x1="273.94" y1="91.18" x2="273.94" y2="54.54"/><line class="cls-2" x1="284.12" y1="91.18" x2="284.12" y2="54.54"/><polyline class="cls-2" points="253.59 91.17 253.59 54.54 546.33 54.54 546.33 91.17"/><polyline class="cls-2" points="317.14 433.5 276.72 428.75 282.54 379.22"/><line class="cls-2" x1="286.82" y1="429.93" x2="292.79" y2="379.22"/><line class="cls-2" x1="296.93" y1="431.16" x2="303.04" y2="379.22"/><line class="cls-2" x1="307.03" y1="432.35" x2="313.28" y2="379.22"/><line class="cls-2" x1="251.71" y1="96.81" x2="253.59" y2="96.81"/><line class="cls-2" x1="251.71" y1="189.24" x2="253.59" y2="189.24"/><line class="cls-2" x1="251.71" y1="281.66" x2="253.59" y2="281.66"/><line class="cls-2" x1="251.71" y1="374.09" x2="253.59" y2="374.09"/><line class="cls-2" x1="548.21" y1="96.81" x2="546.33" y2="96.81"/><line class="cls-2" x1="548.21" y1="189.24" x2="546.33" y2="189.24"/><line class="cls-2" x1="548.21" y1="281.66" x2="546.33" y2="281.66"/><line class="cls-2" x1="469" y1="938.98" x2="470.05" y2="935.8"/><path class="cls-2" d="M371.8,439.93q2.73-30.3,3.9-60.71"/><path class="cls-2" d="M366.35,439.35q2.81-30,3.7-60.2"/><path class="cls-2" d="M328.1,648.53A930.16,930.16,0,0,0,353,558.7"/><path class="cls-2" d="M322.9,646.81a923.64,923.64,0,0,0,24.72-89.3"/><line class="cls-2" x1="381.27" y1="91.18" x2="418.65" y2="91.18"/><line class="cls-2" x1="489.86" y1="888.11" x2="503.12" y2="847.81"/><line class="cls-2" x1="475.52" y1="931.67" x2="488.79" y2="891.38"/><line class="cls-2" x1="548.21" y1="374.09" x2="546.33" y2="374.09"/><line class="cls-2" x1="548.29" y1="721.76" x2="544.97" y2="720.67"/><line class="cls-2" x1="317.14" y1="433.54" x2="323.53" y2="379.22"/><line class="cls-2" x1="415.37" y1="91.18" x2="416.3" y2="91.18"/><line class="cls-2" x1="259.54" y1="91.18" x2="298.68" y2="91.18"/><line class="cls-2" x1="407.94" y1="680.33" x2="433.22" y2="688.66"/><line class="cls-2" x1="253.59" y1="450.43" x2="253.59" y2="379.22"/><path class="cls-2" d="M256.25,514.83l-.09-.65c-.34-2.45-.64-4.9-.89-7.37s-.47-4.93-.65-7.4-.33-5-.45-7.43-.21-5-.28-7.45-.12-5-.15-7.46c-.06-4.25-.07-8.51-.07-12.76,0-1.4,0-2.79-.08-13.88"/><line class="cls-2" x1="298.68" y1="97.12" x2="259.54" y2="97.12"/><line class="cls-2" x1="502.81" y1="97.12" x2="540.39" y2="97.12"/><line class="cls-2" x1="540.39" y1="372.96" x2="416.25" y2="372.96"/><line class="cls-2" x1="410.59" y1="672.3" x2="435.87" y2="680.63"/><path class="cls-2" d="M253.67,864.59v-89c0-1.13,0-2.26,0-3.39,0-1.54,0-3.08,0-4.61,0-2,.06-4,.1-6,0-1.54.08-3.07.13-4.61,0-.93.07-1.85.11-2.78.06-1.56.13-3.13.22-4.69s.18-3.13.29-4.69.24-3.13.38-4.69.29-3.14.47-4.71q.12-1.17.27-2.34c.09-.78.19-1.56.29-2.34s.21-1.56.33-2.34.23-1.56.35-2.34c.24-1.56.51-3.13.8-4.69.14-.78.29-1.56.44-2.33s.31-1.56.48-2.33.33-1.55.51-2.33.36-1.55.55-2.33.38-1.56.59-2.33.45-1.73.69-2.59.53-1.85.8-2.78c.09-.28.17-.56.26-.84s.21-.69.32-1,.24-.78.37-1.17.25-.78.38-1.18l.24-.71.39-1.17c.27-.78.54-1.56.82-2.34l.84-2.35c.29-.78.58-1.57.88-2.35l.9-2.36c.3-.79.61-1.57.92-2.36q.58-1.51,1.2-3l.91-2.28.93-2.29c.68-1.68,1.36-3.35,2-5q.6-1.46,1.17-2.91c.29-.7.56-1.41.84-2.11s.64-1.6.95-2.4.62-1.59.92-2.39.61-1.6.9-2.4.6-1.6.89-2.4l.86-2.42c.28-.8.55-1.6.82-2.41s.54-1.61.79-2.42.51-1.61.76-2.42.51-1.71.75-2.57.48-1.75.71-2.62.42-1.63.61-2.45.38-1.63.56-2.44.34-1.63.49-2.45l.24-1.3q.21-1.23.39-2.46c.13-.81.24-1.64.33-2.46s.19-1.65.26-2.48.13-1.65.18-2.47.07-1.65.09-2.48c0-.3,0-.6,0-.91s0-.41,0-.62,0-.52,0-.78,0-.83,0-1.24c0-.83-.07-1.65-.12-2.48s-.11-1.65-.19-2.47-.17-1.65-.27-2.48l-.21-1.57c-.12-.83-.25-1.64-.39-2.46s-.29-1.64-.46-2.45-.33-1.63-.51-2.45-.37-1.63-.57-2.44-.34-1.37-.52-2.05-.4-1.47-.61-2.21-.46-1.62-.71-2.42-.49-1.62-.75-2.43-.52-1.61-.79-2.42-.54-1.61-.82-2.42-.57-1.6-.86-2.41-.58-1.6-.88-2.4l-.9-2.39c-.31-.8-.61-1.6-.92-2.39s-.63-1.6-.95-2.41c-.57-1.44-1.15-2.89-1.73-4.33-.95-2.37-1.91-4.72-2.87-7.09l-1.18-2.94L268,557.62c-.3-.79-.61-1.57-.91-2.36s-.61-1.57-.9-2.35-.59-1.57-.88-2.35-.57-1.57-.85-2.35-.55-1.56-.82-2.34c-.37-1.07-.72-2.14-1.07-3.21-.24-.74-.47-1.47-.69-2.21l-.27-.87-.27-.92-.45-1.58c-.25-.89-.5-1.78-.73-2.68s-.4-1.56-.93-3.82c-.58-2.47-1.55-6.71-2.93-15.75"/></g><g id="Accessory"><path class="cls-3" d="M250.15,187.67a1.62,1.62,0,0,0-.58.11,1.58,1.58,0,0,0-.88.88,1.56,1.56,0,0,0,0,1.15,1.58,1.58,0,0,0,.88.88,1.43,1.43,0,0,0,.58.11,1.41,1.41,0,0,0,.57-.11,1.58,1.58,0,0,0,.88-.88,1.41,1.41,0,0,0,.11-.57,1.43,1.43,0,0,0-.11-.58,1.44,1.44,0,0,0-.35-.53,1.58,1.58,0,0,0-.53-.35A1.6,1.6,0,0,0,250.15,187.67Z"/><path class="cls-3" d="M250.15,280.1a1.43,1.43,0,0,0-.58.11,1.55,1.55,0,0,0-.53.34,1.73,1.73,0,0,0-.35.54,1.56,1.56,0,0,0-.11.57,1.66,1.66,0,0,0,.11.58,1.58,1.58,0,0,0,.88.88,1.56,1.56,0,0,0,1.15,0,1.58,1.58,0,0,0,.53-.35,1.44,1.44,0,0,0,.35-.53,1.46,1.46,0,0,0,.11-.58,1.38,1.38,0,0,0-.11-.57,1.58,1.58,0,0,0-.88-.88A1.41,1.41,0,0,0,250.15,280.1Z"/><path class="cls-3" d="M250.15,326.31a1.62,1.62,0,0,0-.58.11,1.58,1.58,0,0,0-.88.88,1.56,1.56,0,0,0,0,1.15,1.58,1.58,0,0,0,.88.88,1.56,1.56,0,0,0,1.15,0,1.58,1.58,0,0,0,.53-.35,1.44,1.44,0,0,0,.35-.53,1.43,1.43,0,0,0,.11-.58,1.41,1.41,0,0,0-.11-.57,1.44,1.44,0,0,0-.35-.53,1.58,1.58,0,0,0-.53-.35A1.6,1.6,0,0,0,250.15,326.31Z"/><path class="cls-3" d="M250.15,372.52a1.62,1.62,0,0,0-.58.11,1.58,1.58,0,0,0-.88.88,1.56,1.56,0,0,0,0,1.15,1.58,1.58,0,0,0,.35.53,1.44,1.44,0,0,0,.53.35,1.43,1.43,0,0,0,.58.11,1.41,1.41,0,0,0,.57-.11,1.58,1.58,0,0,0,.88-.88,1.41,1.41,0,0,0,.11-.57,1.43,1.43,0,0,0-.11-.58,1.44,1.44,0,0,0-.35-.53,1.58,1.58,0,0,0-.53-.35A1.6,1.6,0,0,0,250.15,372.52Z"/><path class="cls-3" d="M250.15,416a1.62,1.62,0,0,0-.58.11,1.58,1.58,0,0,0-.88.88,1.56,1.56,0,0,0,0,1.15,1.58,1.58,0,0,0,.35.53,1.44,1.44,0,0,0,.53.35,1.43,1.43,0,0,0,.58.11,1.41,1.41,0,0,0,.57-.11,1.58,1.58,0,0,0,.88-.88,1.41,1.41,0,0,0,.11-.57,1.43,1.43,0,0,0-.11-.58,1.44,1.44,0,0,0-.35-.53,1.58,1.58,0,0,0-.53-.35A1.6,1.6,0,0,0,250.15,416Z"/><path class="cls-3" d="M250.21,459.56a1.6,1.6,0,0,0-.57.11,1.58,1.58,0,0,0-.88.88,1.56,1.56,0,0,0,0,1.15,1.58,1.58,0,0,0,.35.53,1.44,1.44,0,0,0,.53.35,1.41,1.41,0,0,0,.57.11,1.43,1.43,0,0,0,.58-.11,1.44,1.44,0,0,0,.53-.35,1.58,1.58,0,0,0,.35-.53,1.56,1.56,0,0,0,0-1.15,1.58,1.58,0,0,0-.88-.88A1.62,1.62,0,0,0,250.21,459.56Z"/><path class="cls-3" d="M251.6,503.08a1.66,1.66,0,0,0-.58.11,1.81,1.81,0,0,0-.53.35,1.59,1.59,0,0,0,0,2.21,1.63,1.63,0,0,0,.53.35,1.58,1.58,0,0,0,1.16,0,1.44,1.44,0,0,0,.53-.35,1.58,1.58,0,0,0,.35-.53,1.56,1.56,0,0,0,0-1.15,1.58,1.58,0,0,0-.88-.88A1.66,1.66,0,0,0,251.6,503.08Z"/><path class="cls-3" d="M260.83,546.6a1.6,1.6,0,0,0-.57.11,1.58,1.58,0,0,0-.88.88,1.56,1.56,0,0,0,0,1.15,1.58,1.58,0,0,0,.35.53,1.44,1.44,0,0,0,.53.35,1.41,1.41,0,0,0,.57.11,1.43,1.43,0,0,0,.58-.11,1.44,1.44,0,0,0,.53-.35,1.58,1.58,0,0,0,.35-.53,1.56,1.56,0,0,0,0-1.15,1.58,1.58,0,0,0-.88-.88A1.62,1.62,0,0,0,260.83,546.6Z"/><path class="cls-3" d="M277.48,590.12a1.66,1.66,0,0,0-.58.11,1.58,1.58,0,0,0-.88.88,1.56,1.56,0,0,0,0,1.15,1.58,1.58,0,0,0,.35.53,1.44,1.44,0,0,0,.53.35,1.46,1.46,0,0,0,.58.11,1.38,1.38,0,0,0,.57-.11,1.51,1.51,0,0,0,.88-.88,1.41,1.41,0,0,0,.11-.57,1.43,1.43,0,0,0-.11-.58,1.55,1.55,0,0,0-.34-.53,1.73,1.73,0,0,0-.54-.35A1.56,1.56,0,0,0,277.48,590.12Z"/><path class="cls-3" d="M281.81,633.64a1.62,1.62,0,0,0-.58.11,1.58,1.58,0,0,0-.88.88,1.56,1.56,0,0,0,0,1.15,1.58,1.58,0,0,0,.35.53,1.44,1.44,0,0,0,.53.35,1.43,1.43,0,0,0,.58.11,1.41,1.41,0,0,0,.57-.11,1.58,1.58,0,0,0,.88-.88,1.41,1.41,0,0,0,.11-.57,1.43,1.43,0,0,0-.11-.58,1.44,1.44,0,0,0-.35-.53,1.58,1.58,0,0,0-.53-.35A1.6,1.6,0,0,0,281.81,633.64Z"/><path class="cls-3" d="M267.38,677.16a1.62,1.62,0,0,0-.58.11,1.58,1.58,0,0,0-.88.88,1.56,1.56,0,0,0,0,1.15,1.58,1.58,0,0,0,.35.53,1.44,1.44,0,0,0,.53.35,1.43,1.43,0,0,0,.58.11,1.41,1.41,0,0,0,.57-.11,1.58,1.58,0,0,0,.88-.88,1.41,1.41,0,0,0,.11-.57,1.43,1.43,0,0,0-.11-.58,1.44,1.44,0,0,0-.35-.53,1.58,1.58,0,0,0-.53-.35A1.6,1.6,0,0,0,267.38,677.16Z"/><path class="cls-3" d="M250.22,902.28a1.38,1.38,0,0,0-.57.11,1.54,1.54,0,0,0-.54.34,1.77,1.77,0,0,0-.34.53,1.58,1.58,0,0,0,0,1.16,1.55,1.55,0,0,0,.34.53,1.73,1.73,0,0,0,.54.35,1.56,1.56,0,0,0,.57.11,1.66,1.66,0,0,0,.58-.11,1.58,1.58,0,0,0,.88-.88,1.66,1.66,0,0,0,.11-.58,1.56,1.56,0,0,0-.11-.57,1.73,1.73,0,0,0-.35-.54,1.42,1.42,0,0,0-.53-.34A1.46,1.46,0,0,0,250.22,902.28Z"/><path class="cls-3" d="M250.22,856.88a1.38,1.38,0,0,0-.57.11,1.51,1.51,0,0,0-.88.88,1.41,1.41,0,0,0-.11.57,1.43,1.43,0,0,0,.11.58,1.55,1.55,0,0,0,.34.53,1.73,1.73,0,0,0,.54.35,1.56,1.56,0,0,0,.57.11,1.66,1.66,0,0,0,.58-.11,1.58,1.58,0,0,0,.88-.88,1.56,1.56,0,0,0,0-1.15,1.58,1.58,0,0,0-.35-.53,1.44,1.44,0,0,0-.53-.35A1.46,1.46,0,0,0,250.22,856.88Z"/><path class="cls-3" d="M250.22,811.48a1.56,1.56,0,0,0-.57.11,1.73,1.73,0,0,0-.54.35,1.55,1.55,0,0,0-.34.53,1.41,1.41,0,0,0-.11.57,1.43,1.43,0,0,0,.11.58,1.55,1.55,0,0,0,.34.53,1.73,1.73,0,0,0,.54.35,1.56,1.56,0,0,0,.57.11,1.66,1.66,0,0,0,.58-.11,1.58,1.58,0,0,0,.88-.88,1.56,1.56,0,0,0,0-1.15,1.58,1.58,0,0,0-.88-.88A1.66,1.66,0,0,0,250.22,811.48Z"/><path class="cls-3" d="M250.22,766.08a1.56,1.56,0,0,0-.57.11,1.73,1.73,0,0,0-.54.35,1.55,1.55,0,0,0-.34.53,1.43,1.43,0,0,0-.11.58,1.41,1.41,0,0,0,.11.57,1.55,1.55,0,0,0,.34.53,1.73,1.73,0,0,0,.54.35,1.56,1.56,0,0,0,.57.11,1.66,1.66,0,0,0,.58-.11,1.58,1.58,0,0,0,.88-.88,1.56,1.56,0,0,0,0-1.15,1.58,1.58,0,0,0-.88-.88A1.66,1.66,0,0,0,250.22,766.08Z"/><path class="cls-3" d="M253.84,720.68a1.66,1.66,0,0,0-.58.11,1.81,1.81,0,0,0-.53.35,1.59,1.59,0,0,0,0,2.21,1.63,1.63,0,0,0,.53.35,1.58,1.58,0,0,0,1.16,0,1.44,1.44,0,0,0,.53-.35,1.58,1.58,0,0,0,.35-.53,1.56,1.56,0,0,0,0-1.15,1.58,1.58,0,0,0-.88-.88A1.66,1.66,0,0,0,253.84,720.68Z"/><path class="cls-3" d="M549.78,95.25a1.46,1.46,0,0,0-.58.11,1.42,1.42,0,0,0-.53.34,1.73,1.73,0,0,0-.35.54,1.56,1.56,0,0,0-.11.57,1.66,1.66,0,0,0,.11.58,1.58,1.58,0,0,0,.88.88,1.66,1.66,0,0,0,.58.11,1.56,1.56,0,0,0,.57-.11,1.58,1.58,0,0,0,.53-.35,1.44,1.44,0,0,0,.35-.53,1.46,1.46,0,0,0,.11-.58,1.38,1.38,0,0,0-.11-.57,1.57,1.57,0,0,0-.35-.54,1.42,1.42,0,0,0-.53-.34A1.38,1.38,0,0,0,549.78,95.25Z"/><path class="cls-3" d="M549.78,141.46a1.66,1.66,0,0,0-.58.11,1.58,1.58,0,0,0-.88.88,1.56,1.56,0,0,0,0,1.15,1.58,1.58,0,0,0,.88.88,1.66,1.66,0,0,0,.58.11,1.56,1.56,0,0,0,.57-.11,1.58,1.58,0,0,0,.53-.35,1.44,1.44,0,0,0,.35-.53,1.43,1.43,0,0,0,.11-.58,1.41,1.41,0,0,0-.11-.57,1.44,1.44,0,0,0-.35-.53,1.58,1.58,0,0,0-.53-.35A1.56,1.56,0,0,0,549.78,141.46Z"/><path class="cls-3" d="M549.78,187.67a1.66,1.66,0,0,0-.58.11,1.58,1.58,0,0,0-.88.88,1.56,1.56,0,0,0,0,1.15,1.58,1.58,0,0,0,.88.88,1.46,1.46,0,0,0,.58.11,1.38,1.38,0,0,0,.57-.11,1.58,1.58,0,0,0,.88-.88,1.41,1.41,0,0,0,.11-.57,1.43,1.43,0,0,0-.11-.58,1.44,1.44,0,0,0-.35-.53,1.58,1.58,0,0,0-.53-.35A1.56,1.56,0,0,0,549.78,187.67Z"/><path class="cls-3" d="M549.78,233.88a1.66,1.66,0,0,0-.58.11,1.58,1.58,0,0,0-.88.88,1.58,1.58,0,0,0,0,1.16,1.69,1.69,0,0,0,.35.53,1.42,1.42,0,0,0,.53.34,1.46,1.46,0,0,0,.58.11,1.38,1.38,0,0,0,.57-.11,1.42,1.42,0,0,0,.53-.34,1.53,1.53,0,0,0,.35-.53,1.58,1.58,0,0,0,0-1.16,1.44,1.44,0,0,0-.35-.53,1.58,1.58,0,0,0-.53-.35A1.56,1.56,0,0,0,549.78,233.88Z"/><path class="cls-3" d="M549.78,280.1a1.46,1.46,0,0,0-.58.11,1.55,1.55,0,0,0-.53.34,1.73,1.73,0,0,0-.35.54,1.56,1.56,0,0,0-.11.57,1.66,1.66,0,0,0,.11.58,1.58,1.58,0,0,0,.88.88,1.66,1.66,0,0,0,.58.11,1.56,1.56,0,0,0,.57-.11,1.58,1.58,0,0,0,.53-.35,1.44,1.44,0,0,0,.35-.53,1.46,1.46,0,0,0,.11-.58,1.38,1.38,0,0,0-.11-.57,1.58,1.58,0,0,0-.88-.88A1.38,1.38,0,0,0,549.78,280.1Z"/><path class="cls-3" d="M549.78,326.31a1.66,1.66,0,0,0-.58.11,1.58,1.58,0,0,0-.88.88,1.56,1.56,0,0,0,0,1.15,1.58,1.58,0,0,0,.88.88,1.66,1.66,0,0,0,.58.11,1.56,1.56,0,0,0,.57-.11,1.58,1.58,0,0,0,.53-.35,1.44,1.44,0,0,0,.35-.53,1.43,1.43,0,0,0,.11-.58,1.41,1.41,0,0,0-.11-.57,1.44,1.44,0,0,0-.35-.53,1.58,1.58,0,0,0-.53-.35A1.56,1.56,0,0,0,549.78,326.31Z"/><path class="cls-3" d="M549.78,372.52a1.66,1.66,0,0,0-.58.11,1.58,1.58,0,0,0-.88.88,1.56,1.56,0,0,0,0,1.15,1.58,1.58,0,0,0,.35.53,1.44,1.44,0,0,0,.53.35,1.46,1.46,0,0,0,.58.11,1.38,1.38,0,0,0,.57-.11,1.58,1.58,0,0,0,.88-.88,1.41,1.41,0,0,0,.11-.57,1.43,1.43,0,0,0-.11-.58,1.44,1.44,0,0,0-.35-.53,1.58,1.58,0,0,0-.53-.35A1.56,1.56,0,0,0,549.78,372.52Z"/><path class="cls-3" d="M549.78,416a1.66,1.66,0,0,0-.58.11,1.58,1.58,0,0,0-.88.88,1.56,1.56,0,0,0,0,1.15,1.58,1.58,0,0,0,.35.53,1.44,1.44,0,0,0,.53.35,1.46,1.46,0,0,0,.58.11,1.38,1.38,0,0,0,.57-.11,1.58,1.58,0,0,0,.88-.88,1.41,1.41,0,0,0,.11-.57,1.43,1.43,0,0,0-.11-.58,1.44,1.44,0,0,0-.35-.53,1.58,1.58,0,0,0-.53-.35A1.56,1.56,0,0,0,549.78,416Z"/><path class="cls-3" d="M549.78,459.56a1.66,1.66,0,0,0-.58.11,1.58,1.58,0,0,0-.88.88,1.56,1.56,0,0,0,0,1.15,1.58,1.58,0,0,0,.35.53,1.44,1.44,0,0,0,.53.35,1.46,1.46,0,0,0,.58.11,1.38,1.38,0,0,0,.57-.11,1.58,1.58,0,0,0,.88-.88,1.41,1.41,0,0,0,.11-.57,1.43,1.43,0,0,0-.11-.58,1.44,1.44,0,0,0-.35-.53,1.58,1.58,0,0,0-.53-.35A1.56,1.56,0,0,0,549.78,459.56Z"/><path class="cls-3" d="M549.78,503.08a1.66,1.66,0,0,0-.58.11,1.58,1.58,0,0,0-.88.88,1.56,1.56,0,0,0,0,1.15,1.58,1.58,0,0,0,.35.53,1.44,1.44,0,0,0,.53.35,1.46,1.46,0,0,0,.58.11,1.38,1.38,0,0,0,.57-.11,1.58,1.58,0,0,0,.88-.88,1.41,1.41,0,0,0,.11-.57,1.43,1.43,0,0,0-.11-.58,1.44,1.44,0,0,0-.35-.53,1.58,1.58,0,0,0-.53-.35A1.56,1.56,0,0,0,549.78,503.08Z"/><path class="cls-3" d="M549.78,546.6a1.66,1.66,0,0,0-.58.11,1.58,1.58,0,0,0-.88.88,1.56,1.56,0,0,0,0,1.15,1.58,1.58,0,0,0,.35.53,1.44,1.44,0,0,0,.53.35,1.46,1.46,0,0,0,.58.11,1.38,1.38,0,0,0,.57-.11,1.58,1.58,0,0,0,.88-.88,1.41,1.41,0,0,0,.11-.57,1.43,1.43,0,0,0-.11-.58,1.44,1.44,0,0,0-.35-.53,1.58,1.58,0,0,0-.53-.35A1.56,1.56,0,0,0,549.78,546.6Z"/><path class="cls-3" d="M549.78,590.12a1.66,1.66,0,0,0-.58.11,1.58,1.58,0,0,0-.88.88,1.56,1.56,0,0,0,0,1.15,1.58,1.58,0,0,0,.35.53,1.44,1.44,0,0,0,.53.35,1.46,1.46,0,0,0,.58.11,1.38,1.38,0,0,0,.57-.11,1.58,1.58,0,0,0,.88-.88,1.41,1.41,0,0,0,.11-.57,1.43,1.43,0,0,0-.11-.58,1.44,1.44,0,0,0-.35-.53,1.58,1.58,0,0,0-.53-.35A1.56,1.56,0,0,0,549.78,590.12Z"/><path class="cls-3" d="M549.78,633.64a1.66,1.66,0,0,0-.58.11,1.58,1.58,0,0,0-.88.88,1.56,1.56,0,0,0,0,1.15,1.58,1.58,0,0,0,.35.53,1.44,1.44,0,0,0,.53.35,1.46,1.46,0,0,0,.58.11,1.38,1.38,0,0,0,.57-.11,1.58,1.58,0,0,0,.88-.88,1.41,1.41,0,0,0,.11-.57,1.43,1.43,0,0,0-.11-.58,1.44,1.44,0,0,0-.35-.53,1.58,1.58,0,0,0-.53-.35A1.56,1.56,0,0,0,549.78,633.64Z"/><path class="cls-3" d="M549.78,677.16a1.66,1.66,0,0,0-.58.11,1.58,1.58,0,0,0-.88.88,1.56,1.56,0,0,0,0,1.15,1.58,1.58,0,0,0,.35.53,1.44,1.44,0,0,0,.53.35,1.46,1.46,0,0,0,.58.11,1.38,1.38,0,0,0,.57-.11,1.58,1.58,0,0,0,.88-.88,1.41,1.41,0,0,0,.11-.57,1.43,1.43,0,0,0-.11-.58,1.44,1.44,0,0,0-.35-.53,1.58,1.58,0,0,0-.53-.35A1.56,1.56,0,0,0,549.78,677.16Z"/><path class="cls-3" d="M549.78,902.28a1.46,1.46,0,0,0-.58.11,1.42,1.42,0,0,0-.53.34,1.81,1.81,0,0,0-.35.53,1.58,1.58,0,0,0,0,1.16,1.58,1.58,0,0,0,.88.88,1.66,1.66,0,0,0,.58.11,1.56,1.56,0,0,0,.57-.11,1.58,1.58,0,0,0,.53-.35,1.44,1.44,0,0,0,.35-.53,1.46,1.46,0,0,0,.11-.58,1.38,1.38,0,0,0-.11-.57,1.57,1.57,0,0,0-.35-.54,1.42,1.42,0,0,0-.53-.34A1.38,1.38,0,0,0,549.78,902.28Z"/><path class="cls-3" d="M549.78,856.88a1.46,1.46,0,0,0-.58.11,1.44,1.44,0,0,0-.53.35,1.58,1.58,0,0,0-.35.53,1.56,1.56,0,0,0,0,1.15,1.58,1.58,0,0,0,.88.88,1.66,1.66,0,0,0,.58.11,1.56,1.56,0,0,0,.57-.11,1.58,1.58,0,0,0,.53-.35,1.44,1.44,0,0,0,.35-.53,1.43,1.43,0,0,0,.11-.58,1.41,1.41,0,0,0-.11-.57,1.58,1.58,0,0,0-.88-.88A1.38,1.38,0,0,0,549.78,856.88Z"/><path class="cls-3" d="M549.78,811.48a1.66,1.66,0,0,0-.58.11,1.58,1.58,0,0,0-.88.88,1.56,1.56,0,0,0,0,1.15,1.58,1.58,0,0,0,.88.88,1.66,1.66,0,0,0,.58.11,1.56,1.56,0,0,0,.57-.11,1.58,1.58,0,0,0,.53-.35,1.44,1.44,0,0,0,.35-.53,1.43,1.43,0,0,0,.11-.58,1.41,1.41,0,0,0-.11-.57,1.44,1.44,0,0,0-.35-.53,1.58,1.58,0,0,0-.53-.35A1.56,1.56,0,0,0,549.78,811.48Z"/><path class="cls-3" d="M549.78,766.08a1.66,1.66,0,0,0-.58.11,1.58,1.58,0,0,0-.88.88,1.56,1.56,0,0,0,0,1.15,1.58,1.58,0,0,0,.88.88,1.66,1.66,0,0,0,.58.11,1.56,1.56,0,0,0,.57-.11,1.58,1.58,0,0,0,.53-.35,1.44,1.44,0,0,0,.35-.53,1.41,1.41,0,0,0,.11-.57,1.43,1.43,0,0,0-.11-.58,1.44,1.44,0,0,0-.35-.53,1.58,1.58,0,0,0-.53-.35A1.56,1.56,0,0,0,549.78,766.08Z"/><line class="cls-3" x1="371.52" y1="784.83" x2="310.2" y2="764.52"/><path class="cls-3" d="M549.78,720.68a1.66,1.66,0,0,0-.58.11,1.58,1.58,0,0,0-.88.88,1.56,1.56,0,0,0,0,1.15,1.58,1.58,0,0,0,.35.53,1.44,1.44,0,0,0,.53.35,1.46,1.46,0,0,0,.58.11,1.38,1.38,0,0,0,.57-.11,1.58,1.58,0,0,0,.88-.88,1.41,1.41,0,0,0,.11-.57,1.43,1.43,0,0,0-.11-.58,1.44,1.44,0,0,0-.35-.53,1.58,1.58,0,0,0-.53-.35A1.56,1.56,0,0,0,549.78,720.68Z"/><path class="cls-3" d="M468.55,938.91a1.4,1.4,0,0,0-.54.1,1.42,1.42,0,0,0-.81.81,1.36,1.36,0,0,0,0,1.07,1.34,1.34,0,0,0,.32.49,1.4,1.4,0,0,0,1,.43,1.61,1.61,0,0,0,.53-.1,1.63,1.63,0,0,0,.49-.33,1.34,1.34,0,0,0,.32-.49,1.36,1.36,0,0,0,0-1.07,1.42,1.42,0,0,0-.81-.81A1.39,1.39,0,0,0,468.55,938.91Z"/><line class="cls-3" x1="376.64" y1="332.88" x2="376.64" y2="331.47"/><line class="cls-3" x1="409.2" y1="332.88" x2="409.2" y2="331.47"/><line class="cls-3" x1="366.61" y1="456.66" x2="341.36" y2="453.69"/><line class="cls-3" x1="363.27" y1="483.06" x2="283.47" y2="473.68"/><line class="cls-3" x1="341.36" y1="453.69" x2="291.81" y2="447.86"/><path class="cls-3" d="M259.23,86.13a1.43,1.43,0,0,0-.58.11,1.44,1.44,0,0,0-.53.35,1.58,1.58,0,0,0-.35.53,1.56,1.56,0,0,0-.11.57,1.62,1.62,0,0,0,.11.58,1.58,1.58,0,0,0,.88.88,1.56,1.56,0,0,0,1.15,0,1.58,1.58,0,0,0,.53-.35,1.44,1.44,0,0,0,.35-.53,1.43,1.43,0,0,0,.11-.58,1.38,1.38,0,0,0-.11-.57,1.58,1.58,0,0,0-.88-.88A1.41,1.41,0,0,0,259.23,86.13Z"/><path class="cls-3" d="M298.68,86.13a1.43,1.43,0,0,0-.58.11,1.44,1.44,0,0,0-.53.35,1.58,1.58,0,0,0-.35.53,1.56,1.56,0,0,0-.11.57,1.62,1.62,0,0,0,.11.58,1.58,1.58,0,0,0,.88.88,1.56,1.56,0,0,0,1.15,0,1.58,1.58,0,0,0,.53-.35,1.44,1.44,0,0,0,.35-.53,1.43,1.43,0,0,0,.11-.58,1.38,1.38,0,0,0-.11-.57,1.58,1.58,0,0,0-.88-.88A1.41,1.41,0,0,0,298.68,86.13Z"/><path class="cls-3" d="M339.19,86.13a1.38,1.38,0,0,0-.57.11,1.57,1.57,0,0,0-.54.35,1.42,1.42,0,0,0-.34.53,1.38,1.38,0,0,0-.11.57,1.6,1.6,0,0,0,.45,1.11,1.73,1.73,0,0,0,.54.35,1.56,1.56,0,0,0,.57.11,1.66,1.66,0,0,0,.58-.11,1.58,1.58,0,0,0,.88-.88,1.62,1.62,0,0,0,.11-.58,1.56,1.56,0,0,0-.11-.57,1.58,1.58,0,0,0-.35-.53,1.44,1.44,0,0,0-.53-.35A1.46,1.46,0,0,0,339.19,86.13Z"/><path class="cls-3" d="M379.71,86.13a1.43,1.43,0,0,0-.58.11,1.44,1.44,0,0,0-.53.35,1.58,1.58,0,0,0-.35.53,1.56,1.56,0,0,0-.11.57,1.62,1.62,0,0,0,.11.58,1.58,1.58,0,0,0,.88.88,1.56,1.56,0,0,0,1.15,0,1.58,1.58,0,0,0,.88-.88,1.62,1.62,0,0,0,.11-.58,1.56,1.56,0,0,0-.11-.57,1.58,1.58,0,0,0-.35-.53,1.44,1.44,0,0,0-.53-.35A1.41,1.41,0,0,0,379.71,86.13Z"/><path class="cls-3" d="M420.22,86.13a1.46,1.46,0,0,0-.58.11,1.44,1.44,0,0,0-.53.35,1.58,1.58,0,0,0-.35.53,1.56,1.56,0,0,0-.11.57,1.62,1.62,0,0,0,.11.58,1.58,1.58,0,0,0,.88.88,1.58,1.58,0,0,0,1.16,0,1.58,1.58,0,0,0,.88-.88,1.62,1.62,0,0,0,.11-.58,1.56,1.56,0,0,0-.11-.57,1.58,1.58,0,0,0-.35-.53,1.44,1.44,0,0,0-.53-.35A1.46,1.46,0,0,0,420.22,86.13Z"/><path class="cls-3" d="M460.73,86.13a1.41,1.41,0,0,0-.57.11,1.44,1.44,0,0,0-.53.35,1.58,1.58,0,0,0-.35.53,1.56,1.56,0,0,0-.11.57,1.62,1.62,0,0,0,.11.58,1.58,1.58,0,0,0,.88.88,1.56,1.56,0,0,0,1.15,0,1.58,1.58,0,0,0,.88-.88,1.62,1.62,0,0,0,.11-.58,1.56,1.56,0,0,0-.11-.57,1.58,1.58,0,0,0-.35-.53,1.44,1.44,0,0,0-.53-.35A1.43,1.43,0,0,0,460.73,86.13Z"/><path class="cls-3" d="M501.25,86.13a1.46,1.46,0,0,0-.58.11,1.44,1.44,0,0,0-.53.35,1.58,1.58,0,0,0-.35.53,1.56,1.56,0,0,0-.11.57,1.62,1.62,0,0,0,.11.58,1.58,1.58,0,0,0,.88.88,1.66,1.66,0,0,0,.58.11,1.56,1.56,0,0,0,.57-.11,1.73,1.73,0,0,0,.54-.35,1.6,1.6,0,0,0,.45-1.11,1.38,1.38,0,0,0-.11-.57,1.42,1.42,0,0,0-.34-.53,1.57,1.57,0,0,0-.54-.35A1.38,1.38,0,0,0,501.25,86.13Z"/><path class="cls-3" d="M540.7,86.13a1.46,1.46,0,0,0-.58.11,1.44,1.44,0,0,0-.53.35,1.58,1.58,0,0,0-.35.53,1.56,1.56,0,0,0-.11.57,1.62,1.62,0,0,0,.11.58,1.58,1.58,0,0,0,.88.88,1.66,1.66,0,0,0,.58.11,1.56,1.56,0,0,0,.57-.11,1.73,1.73,0,0,0,.54-.35,1.6,1.6,0,0,0,.45-1.11,1.38,1.38,0,0,0-.11-.57,1.42,1.42,0,0,0-.34-.53,1.57,1.57,0,0,0-.54-.35A1.38,1.38,0,0,0,540.7,86.13Z"/><line class="cls-3" x1="431.59" y1="331.47" x2="431.74" y2="331.47"/><rect class="cls-3" x="467.12" y="254.3" width="32.87" height="77.18"/><line class="cls-3" x1="375.07" y1="341.65" x2="375.07" y2="331.47"/><line class="cls-3" x1="410.76" y1="341.65" x2="410.76" y2="331.47"/><line class="cls-3" x1="287.73" y1="753.84" x2="292.53" y2="739.27"/><line class="cls-3" x1="376.64" y1="218.92" x2="409.2" y2="218.92"/><line class="cls-3" x1="376.64" y1="227.68" x2="409.2" y2="227.68"/><line class="cls-3" x1="376.64" y1="236.45" x2="409.2" y2="236.45"/><line class="cls-3" x1="376.64" y1="245.22" x2="409.2" y2="245.22"/><line class="cls-3" x1="433.05" y1="801.34" x2="477.07" y2="815.83"/><line class="cls-3" x1="376.64" y1="253.98" x2="409.2" y2="253.98"/><line class="cls-3" x1="376.64" y1="262.75" x2="409.2" y2="262.75"/><line class="cls-3" x1="376.64" y1="271.52" x2="409.2" y2="271.52"/><line class="cls-3" x1="376.64" y1="280.28" x2="409.2" y2="280.28"/><polyline class="cls-3" points="412.96 331.48 431.74 331.48 431.74 138.92 412.96 138.92"/><line class="cls-3" x1="376.64" y1="289.05" x2="409.2" y2="289.05"/><line class="cls-3" x1="376.64" y1="297.82" x2="409.2" y2="297.82"/><line class="cls-3" x1="376.64" y1="306.58" x2="409.2" y2="306.58"/><line class="cls-3" x1="376.64" y1="315.35" x2="409.2" y2="315.35"/><line class="cls-3" x1="376.64" y1="324.12" x2="409.2" y2="324.12"/><line class="cls-3" x1="376.64" y1="332.88" x2="409.2" y2="332.88"/><line class="cls-3" x1="375.07" y1="341.65" x2="410.76" y2="341.65"/><path class="cls-3" d="M334.74,938.91a1.4,1.4,0,0,0-.54.1,1.42,1.42,0,0,0-.81.81,1.36,1.36,0,0,0,0,1.07,1.34,1.34,0,0,0,.32.49,1.4,1.4,0,0,0,1,.43,1.61,1.61,0,0,0,.53-.1,1.63,1.63,0,0,0,.49-.33,1.51,1.51,0,0,0,.33-.49,1.48,1.48,0,0,0,0-1.07,1.63,1.63,0,0,0-.33-.49,1.43,1.43,0,0,0-.49-.32A1.39,1.39,0,0,0,334.74,938.91Z"/><path class="cls-3" d="M423.94,938.91a1.39,1.39,0,0,0-.53.1,1.34,1.34,0,0,0-.49.32,1.4,1.4,0,0,0-.43,1,1.61,1.61,0,0,0,.1.53,1.54,1.54,0,0,0,.82.82,1.48,1.48,0,0,0,1.07,0,1.63,1.63,0,0,0,.49-.33,1.34,1.34,0,0,0,.32-.49,1.39,1.39,0,0,0,.1-.53,1.4,1.4,0,0,0-.1-.54,1.42,1.42,0,0,0-.81-.81A1.4,1.4,0,0,0,423.94,938.91Z"/><path class="cls-3" d="M513.15,938.91a1.46,1.46,0,0,0-.58.11,1.42,1.42,0,0,0-.53.34,1.81,1.81,0,0,0-.35.53,1.58,1.58,0,0,0,0,1.16,1.58,1.58,0,0,0,.88.88,1.66,1.66,0,0,0,.58.11,1.56,1.56,0,0,0,.57-.11,1.73,1.73,0,0,0,.54-.35,1.42,1.42,0,0,0,.34-.53,1.58,1.58,0,0,0,0-1.16,1.6,1.6,0,0,0-.34-.53,1.54,1.54,0,0,0-.54-.34A1.38,1.38,0,0,0,513.15,938.91Z"/><path class="cls-3" d="M290.13,938.91a1.39,1.39,0,0,0-.53.1,1.34,1.34,0,0,0-.49.32,1.4,1.4,0,0,0-.43,1,1.61,1.61,0,0,0,.1.53,1.54,1.54,0,0,0,.82.82,1.48,1.48,0,0,0,1.07,0,1.63,1.63,0,0,0,.49-.33,1.34,1.34,0,0,0,.32-.49,1.39,1.39,0,0,0,.1-.53,1.4,1.4,0,0,0-.1-.54,1.42,1.42,0,0,0-.81-.81A1.4,1.4,0,0,0,290.13,938.91Z"/><path class="cls-3" d="M379.34,938.91a1.43,1.43,0,0,0-1.35.91,1.4,1.4,0,0,0-.1.54,1.39,1.39,0,0,0,.1.53,1.34,1.34,0,0,0,.32.49,1.63,1.63,0,0,0,.49.33,1.66,1.66,0,0,0,.54.1,1.61,1.61,0,0,0,.53-.1,1.67,1.67,0,0,0,.5-.33,1.34,1.34,0,0,0,.32-.49,1.39,1.39,0,0,0,.1-.53,1.4,1.4,0,0,0-.1-.54,1.43,1.43,0,0,0-.32-.49,1.49,1.49,0,0,0-1-.42Z"/><path class="cls-3" d="M250.15,95.25a1.6,1.6,0,0,0-1.11.45,1.73,1.73,0,0,0-.35.54,1.56,1.56,0,0,0-.11.57,1.66,1.66,0,0,0,.11.58,1.58,1.58,0,0,0,.88.88,1.56,1.56,0,0,0,1.15,0,1.58,1.58,0,0,0,.53-.35,1.44,1.44,0,0,0,.35-.53,1.46,1.46,0,0,0,.11-.58,1.38,1.38,0,0,0-.11-.57,1.57,1.57,0,0,0-.35-.54,1.6,1.6,0,0,0-1.1-.45Z"/><path class="cls-3" d="M250.15,141.46a1.62,1.62,0,0,0-.58.11,1.58,1.58,0,0,0-.88.88,1.56,1.56,0,0,0,0,1.15,1.58,1.58,0,0,0,.88.88,1.56,1.56,0,0,0,1.15,0,1.58,1.58,0,0,0,.53-.35,1.44,1.44,0,0,0,.35-.53,1.43,1.43,0,0,0,.11-.58,1.41,1.41,0,0,0-.11-.57,1.44,1.44,0,0,0-.35-.53,1.58,1.58,0,0,0-.53-.35A1.6,1.6,0,0,0,250.15,141.46Z"/><path class="cls-3" d="M250.15,233.88a1.62,1.62,0,0,0-.58.11,1.58,1.58,0,0,0-.88.88,1.58,1.58,0,0,0,0,1.16,1.69,1.69,0,0,0,.35.53,1.59,1.59,0,0,0,2.21,0,1.53,1.53,0,0,0,.35-.53,1.58,1.58,0,0,0,0-1.16,1.44,1.44,0,0,0-.35-.53,1.58,1.58,0,0,0-.53-.35A1.6,1.6,0,0,0,250.15,233.88Z"/></g><g id="TEXT"><text class="cls-4"><tspan x="24.74" y="1024.55">1</tspan><tspan class="cls-5" x="32.5" y="1024.55">	</tspan><tspan x="56.73" y="1024.55">Kitchen</tspan><tspan x="24.74" y="1043.62">2</tspan><tspan class="cls-5" x="32.5" y="1043.62">	</tspan><tspan x="56.73" y="1043.62">Living</tspan><tspan x="24.74" y="1062.69">3</tspan><tspan class="cls-5" x="32.5" y="1062.69">	</tspan><tspan x="56.73" y="1062.69">Dining</tspan><tspan x="24.74" y="1081.76">4</tspan><tspan class="cls-5" x="32.5" y="1081.76">	</tspan><tspan x="56.73" y="1081.76">Laundry</tspan><tspan x="24.74" y="1100.83">5</tspan><tspan class="cls-5" x="32.5" y="1100.83">	</tspan><tspan x="56.73" y="1100.83">WC</tspan></text><text class="cls-4"><tspan x="196.43" y="1024.55">6</tspan><tspan class="cls-5" x="204.18" y="1024.55">	</tspan><tspan x="228.42" y="1024.55">Bed</tspan><tspan x="196.43" y="1043.62">7</tspan><tspan class="cls-5" x="204.18" y="1043.62">	</tspan><tspan x="228.42" y="1043.62">Bathroom</tspan><tspan x="196.43" y="1062.69">8</tspan><tspan class="cls-5" x="204.18" y="1062.69">	</tspan><tspan x="228.42" y="1062.69">Sitting</tspan><tspan x="196.43" y="1081.76">9</tspan><tspan class="cls-5" x="204.18" y="1081.76">	</tspan><tspan x="228.42" y="1081.76">Entry</tspan><tspan x="196.43" y="1100.83">10</tspan><tspan class="cls-6" x="211.93" y="1100.83">	</tspan><tspan x="228.42" y="1100.83">Deck</tspan></text><circle class="cls-7" cx="765.53" cy="1024.02" r="11.44"/><line class="cls-7" x1="765.53" y1="1024.02" x2="765.53" y2="1035.46"/><text class="cls-4" transform="translate(479.68 303.18)">1</text><text class="cls-4" transform="translate(479.68 189.33)">3</text><text class="cls-4" transform="translate(314.21 241.81)">2</text><text class="cls-4" transform="translate(395.99 123.21)">9</text><text class="cls-4" transform="translate(323.45 470.27)">4</text><text class="cls-4" transform="translate(321.08 541.25)">5</text><text class="cls-4" transform="translate(392.11 75.47)">10</text><text class="cls-4" transform="translate(452.98 526.3)">10</text><text class="cls-4" transform="translate(467.09 759.48)">6</text><text class="cls-4" transform="translate(349.09 720.41)">8</text><text class="cls-4" transform="translate(435.87 853.47)">7</text><text class="cls-4" transform="translate(420.07 898.87)">7</text><text class="cls-4" transform="translate(320.88 828.79)">6</text><text class="cls-4" transform="translate(299.52 603.74)">10</text></g></svg>