<svg xmlns="http://www.w3.org/2000/svg" viewBox="0 0 800 1120"><defs><style>.cls-1,.cls-2,.cls-3,.cls-4{fill:none;stroke:#231f20;stroke-linecap:round;stroke-linejoin:round;}.cls-1{stroke-width:0.9px;}.cls-2{stroke-width:0.24px;}.cls-3{stroke-width:0.36px;}.cls-4{stroke-width:0.75px;}</style></defs><g id="Wall"><line class="cls-1" x1="412.96" y1="331.47" x2="409.2" y2="331.47"/><path class="cls-1" d="M305,504.17a36.88,36.88,0,0,0,5.31,1"/><polyline class="cls-1" points="376.14 145.65 388.85 145.65 388.85 149.41 376.14 149.41 376.14 205.46 390.73 205.46 409.2 205.46"/><line class="cls-1" x1="259.54" y1="91.18" x2="253.59" y2="91.18"/><line class="cls-1" x1="546.33" y1="91.18" x2="540.39" y2="91.18"/><line class="cls-1" x1="359.15" y1="664.27" x2="407.94" y2="680.33"/><line class="cls-1" x1="381.72" y1="856.14" x2="376.49" y2="872.05"/><line class="cls-1" x1="407.94" y1="680.33" x2="410.59" y2="672.3"/><line class="cls-1" x1="410.59" y1="672.3" x2="367.76" y2="658.21"/><line class="cls-1" x1="329.8" y1="883.7" x2="258.58" y2="860.25"/><line class="cls-1" x1="253.67" y1="864.59" x2="328.04" y2="889.05"/><line class="cls-1" x1="307.71" y1="760.08" x2="312.4" y2="745.81"/><rect class="cls-1" x="416.81" y="858.31" width="5.63" height="115.84" transform="translate(-581.87 1028.36) rotate(-71.78)"/><rect class="cls-1" x="298.68" y="91.18" width="82.59" height="5.95"/><line class="cls-1" x1="418.65" y1="97.12" x2="418.65" y2="91.18"/><path class="cls-1" d="M359.15,664.27a979.74,979.74,0,0,0,51-291.31"/><line class="cls-1" x1="376.49" y1="872.05" x2="373.22" y2="870.97"/><path class="cls-1" d="M367.76,658.21a979,979,0,0,0,48.49-276.36"/><line class="cls-1" x1="375.7" y1="379.22" x2="375.7" y2="372.96"/><line class="cls-1" x1="310.2" y1="764.52" x2="315.97" y2="746.98"/><line class="cls-1" x1="315.97" y1="746.98" x2="376.71" y2="766.72"/><line class="cls-1" x1="293.55" y1="735.98" x2="381.13" y2="764.8"/><line class="cls-1" x1="412.96" y1="331.47" x2="412.96" y2="138.92"/><line class="cls-1" x1="409.2" y1="138.92" x2="412.96" y2="138.92"/><polyline class="cls-1" points="258.58 860.25 292.05 758.55 310.2 764.52"/><line class="cls-1" x1="416.25" y1="372.96" x2="416.25" y2="381.85"/><polyline class="cls-1" points="253.67 864.59 287.78 753.51 307.71 760.08"/><polyline class="cls-1" points="312.4 745.81 292.53 739.26 293.55 735.98"/><line class="cls-1" x1="540.39" y1="379.22" x2="546.33" y2="379.22"/><line class="cls-1" x1="546.33" y1="379.22" x2="546.33" y2="91.18"/><line class="cls-1" x1="540.39" y1="379.22" x2="540.39" y2="91.18"/><line class="cls-1" x1="328.04" y1="889.05" x2="329.8" y2="883.7"/><polyline class="cls-1" points="381.72 856.14 488.79 891.38 489.86 888.11 382.8 852.87 401.94 794.72 428.7 803.53 422.83 821.38 473.39 838.02 480.34 816.9 477.07 815.83 471.19 833.67 427.18 819.18 433.05 801.34 399.74 790.38 373.21 870.97"/><polyline class="cls-1" points="407.77 765.99 435.87 680.63 546.2 716.95 521.82 791 516.47 789.24 539.08 720.54 437.38 687.06"/><rect class="cls-1" x="492.81" y="833.55" width="22.24" height="5.64" transform="translate(-448.07 1053.55) rotate(-71.78)"/><line class="cls-1" x1="416.25" y1="372.96" x2="410.14" y2="372.96"/><path class="cls-1" d="M310.83,500.54l48.87,5.75q2.12-12.75,3.89-25.55l3.42.4q-3.37,24.41-8,48.62l-6.51-1.36a27.6,27.6,0,0,0-1.5-4.32,28.5,28.5,0,0,0-2.29-4.2A28.1,28.1,0,0,0,333,508.35a26.67,26.67,0,0,0-4.69-.93,27.93,27.93,0,0,0-4.57-.14,27.56,27.56,0,0,0-4.53.61,28.16,28.16,0,0,0-20.84,18.92,27.13,27.13,0,0,0-1,4.45A28.13,28.13,0,0,0,311.42,560a27.45,27.45,0,0,0,4.16,1.91,28,28,0,0,0,9.17,1.69,28.11,28.11,0,0,0,18.38-6.45,27.78,27.78,0,0,0,6.11-7l5.38,1.12q-.81,3.75-1.65,7.49l-5.34-1.22a32.23,32.23,0,0,1-5.42,4.54,31.65,31.65,0,0,1-6.44,3.32,32.29,32.29,0,0,1-33.48-6.55,31.77,31.77,0,0,1-4.61-5.35,32.2,32.2,0,0,1-3.34-6.23,32.59,32.59,0,0,1-1.94-7,31.89,31.89,0,0,1-.32-7.24,32.34,32.34,0,0,1,8.16-19.38,33,33,0,0,1,5.41-4.82,32.48,32.48,0,0,1,6.19-3.42l-1.56-.19A35.89,35.89,0,0,1,300,502.41l3.32-3.75A24.68,24.68,0,0,0,310.83,500.54Z"/><path class="cls-1" d="M367.92,444.21l-49.77-5.86a31.35,31.35,0,0,0-31.46,45.57l-3.28,3.7a36,36,0,0,1,35.29-53.94l53.1,6.25q-.93,9.75-2,19.47l-3.42-.41Q367.19,451.61,367.92,444.21Z"/><line class="cls-1" x1="437.37" y1="687.06" x2="411.04" y2="767.07"/><line class="cls-1" x1="399.74" y1="790.38" x2="403.01" y2="791.45"/><line class="cls-1" x1="376.71" y1="766.76" x2="370.92" y2="784.34"/><line class="cls-1" x1="370.92" y1="784.54" x2="374.28" y2="785.62"/><line class="cls-1" x1="375.7" y1="379.22" x2="253.59" y2="379.22"/><line class="cls-1" x1="375.7" y1="372.96" x2="259.54" y2="372.96"/><line class="cls-1" x1="374.31" y1="785.6" x2="381.11" y2="764.79"/><line class="cls-1" x1="253.59" y1="91.18" x2="253.59" y2="379.22"/><line class="cls-1" x1="259.54" y1="91.18" x2="259.54" y2="372.96"/><line class="cls-1" x1="409.2" y1="205.45" x2="409.2" y2="138.92"/><line class="cls-1" x1="376.64" y1="210.15" x2="409.2" y2="210.15"/><line class="cls-1" x1="376.64" y1="210.15" x2="376.64" y2="331.47"/><line class="cls-1" x1="376.64" y1="331.47" x2="371.94" y2="331.47"/><line class="cls-1" x1="376.14" y1="145.65" x2="376.16" y2="138.92"/><line class="cls-1" x1="376.16" y1="138.92" x2="371.94" y2="138.92"/><line class="cls-1" x1="371.94" y1="138.92" x2="371.94" y2="331.47"/><line class="cls-1" x1="409.2" y1="210.15" x2="409.2" y2="331.47"/><line class="cls-1" x1="502.81" y1="97.12" x2="502.81" y2="91.18"/><line class="cls-1" x1="502.81" y1="91.18" x2="418.65" y2="91.18"/><line class="cls-1" x1="502.81" y1="97.12" x2="418.65" y2="97.12"/><line class="cls-1" x1="411.04" y1="767.07" x2="407.77" y2="765.99"/></g><g id="Window_Door_Stairs" data-name="Window/Door/Stairs"><path class="cls-2" d="M283.41,487.62a36.88,36.88,0,0,0,7.16,8.68,36.49,36.49,0,0,0,9.44,6.11"/><path class="cls-2" d="M286.69,483.92a31.75,31.75,0,0,0,16.65,14.75"/><line class="cls-2" x1="294.29" y1="91.18" x2="294.29" y2="54.54"/><line class="cls-2" x1="516.47" y1="789.24" x2="504.72" y2="824.93"/><line class="cls-2" x1="521.82" y1="791" x2="510.08" y2="826.69"/><line class="cls-2" x1="484.51" y1="886.34" x2="497.77" y2="846.05"/><line class="cls-2" x1="470.17" y1="929.91" x2="483.43" y2="889.61"/><line class="cls-2" x1="363.73" y1="900.8" x2="328.04" y2="889.05"/><line class="cls-2" x1="365.49" y1="895.45" x2="329.8" y2="883.7"/><path class="cls-2" d="M490.94,698.75A1101.56,1101.56,0,0,0,530.32,541a1128.73,1128.73,0,0,0,16-161.8"/><line class="cls-2" x1="540.39" y1="379.22" x2="416.25" y2="379.22"/><polyline class="cls-2" points="298.76 737.69 309.64 704.64 321.35 669.04 328.1 648.53"/><polyline class="cls-2" points="293.55 735.98 304.43 702.92 316.14 667.33 322.9 646.81"/><line class="cls-2" x1="381.08" y1="97.12" x2="418.65" y2="97.12"/><line class="cls-2" x1="540.39" y1="91.18" x2="502.81" y2="91.18"/><line class="cls-2" x1="322.12" y1="649.16" x2="322.52" y2="647.97"/><line class="cls-2" x1="327.33" y1="650.88" x2="327.72" y2="649.69"/><polyline class="cls-2" points="292.95 541.82 285.77 505.56 255.8 511.5"/><line class="cls-2" x1="257.19" y1="520.64" x2="287.57" y2="514.63"/><line class="cls-2" x1="258.98" y1="529.7" x2="289.36" y2="523.69"/><line class="cls-2" x1="261.29" y1="538.66" x2="291.15" y2="532.75"/><line class="cls-2" x1="264.16" y1="547.51" x2="292.95" y2="541.81"/><line class="cls-2" x1="532.85" y1="679.59" x2="500.33" y2="668.89"/><line class="cls-2" x1="523.06" y1="709.33" x2="532.85" y2="679.59"/><line class="cls-2" x1="515.03" y1="706.68" x2="524.82" y2="676.95"/><line class="cls-2" x1="507" y1="704.04" x2="516.79" y2="674.31"/><line class="cls-2" x1="498.97" y1="701.4" x2="508.76" y2="671.66"/><line class="cls-2" x1="253.59" y1="91.18" x2="253.59" y2="54.54"/><line class="cls-2" x1="263.77" y1="91.18" x2="263.77" y2="54.54"/><line class="cls-2" x1="273.94" y1="91.18" x2="273.94" y2="54.54"/><line class="cls-2" x1="284.12" y1="91.18" x2="284.12" y2="54.54"/><polyline class="cls-2" points="253.59 91.17 253.59 54.54 546.33 54.54 546.33 91.17"/><polyline class="cls-2" points="317.14 433.5 276.72 428.75 282.54 379.22"/><line class="cls-2" x1="286.82" y1="429.93" x2="292.79" y2="379.22"/><line class="cls-2" x1="296.93" y1="431.16" x2="303.04" y2="379.22"/><line class="cls-2" x1="307.03" y1="432.35" x2="313.28" y2="379.22"/><line class="cls-2" x1="251.71" y1="96.81" x2="253.59" y2="96.81"/><line class="cls-2" x1="251.71" y1="189.24" x2="253.59" y2="189.24"/><line class="cls-2" x1="251.71" y1="281.66" x2="253.59" y2="281.66"/><line class="cls-2" x1="251.71" y1="374.09" x2="253.59" y2="374.09"/><line class="cls-2" x1="548.21" y1="96.81" x2="546.33" y2="96.81"/><line class="cls-2" x1="548.21" y1="189.24" x2="546.33" y2="189.24"/><line class="cls-2" x1="548.21" y1="281.66" x2="546.33" y2="281.66"/><line class="cls-2" x1="469" y1="938.98" x2="470.05" y2="935.8"/><path class="cls-2" d="M371.8,439.93q2.73-30.3,3.9-60.71"/><path class="cls-2" d="M366.35,439.35q2.81-30,3.7-60.2"/><path class="cls-2" d="M328.1,648.53A930.16,930.16,0,0,0,353,558.7"/><path class="cls-2" d="M322.9,646.81a923.64,923.64,0,0,0,24.72-89.3"/><line class="cls-2" x1="381.27" y1="91.18" x2="418.65" y2="91.18"/><line class="cls-2" x1="489.86" y1="888.11" x2="503.12" y2="847.81"/><line class="cls-2" x1="475.52" y1="931.67" x2="488.79" y2="891.38"/><line class="cls-2" x1="548.21" y1="374.09" x2="546.33" y2="374.09"/><line class="cls-2" x1="548.29" y1="721.76" x2="544.97" y2="720.67"/><line class="cls-2" x1="317.14" y1="433.54" x2="323.53" y2="379.22"/><line class="cls-2" x1="415.37" y1="91.18" x2="416.3" y2="91.18"/><line class="cls-2" x1="259.54" y1="91.18" x2="298.68" y2="91.18"/><line class="cls-2" x1="407.94" y1="680.33" x2="433.22" y2="688.66"/><line class="cls-2" x1="253.59" y1="450.43" x2="253.59" y2="379.22"/><path class="cls-2" d="M256.25,514.83l-.09-.65c-.34-2.45-.64-4.9-.89-7.37s-.47-4.93-.65-7.4-.33-5-.45-7.43-.21-5-.28-7.45-.12-5-.15-7.46c-.06-4.25-.07-8.51-.07-12.76,0-1.4,0-2.79-.08-13.88"/><line class="cls-2" x1="298.68" y1="97.12" x2="259.54" y2="97.12"/><line class="cls-2" x1="502.81" y1="97.12" x2="540.39" y2="97.12"/><line class="cls-2" x1="540.39" y1="372.96" x2="416.25" y2="372.96"/><line class="cls-2" x1="410.59" y1="672.3" x2="435.87" y2="680.63"/><path class="cls-2" d="M253.67,864.59v-89c0-1.13,0-2.26,0-3.39,0-1.54,0-3.08,0-4.61,0-2,.06-4,.1-6,0-1.54.08-3.07.13-4.61,0-.93.07-1.85.11-2.78.06-1.56.13-3.13.22-4.69s.18-3.13.29-4.69.24-3.13.38-4.69.29-3.14.47-4.71q.12-1.17.27-2.34c.09-.78.19-1.56.29-2.34s.21-1.56.33-2.34.23-1.56.35-2.34c.24-1.56.51-3.13.8-4.69.14-.78.29-1.56.44-2.33s.31-1.56.48-2.33.33-1.55.51-2.33.36-1.55.55-2.33.38-1.56.59-2.33.45-1.73.69-2.59.53-1.85.8-2.78c.09-.28.17-.56.26-.84s.21-.69.32-1,.24-.78.37-1.17.25-.78.38-1.18l.24-.71.39-1.17c.27-.78.54-1.56.82-2.34l.84-2.35c.29-.78.58-1.57.88-2.35l.9-2.36c.3-.79.61-1.57.92-2.36q.58-1.51,1.2-3l.91-2.28.93-2.29c.68-1.68,1.36-3.35,2-5q.6-1.46,1.17-2.91c.29-.7.56-1.41.84-2.11s.64-1.6.95-2.4.62-1.59.92-2.39.61-1.6.9-2.4.6-1.6.89-2.4l.86-2.42c.28-.8.55-1.6.82-2.41s.54-1.61.79-2.42.51-1.61.76-2.42.51-1.71.75-2.57.48-1.75.71-2.62.42-1.63.61-2.45.38-1.63.56-2.44.34-1.63.49-2.45l.24-1.3q.21-1.23.39-2.46c.13-.81.24-1.64.33-2.46s.19-1.65.26-2.48.13-1.65.18-2.47.07-1.65.09-2.48c0-.3,0-.6,0-.91s0-.41,0-.62,0-.52,0-.78,0-.83,0-1.24c0-.83-.07-1.65-.12-2.48s-.11-1.65-.19-2.47-.17-1.65-.27-2.48l-.21-1.57c-.12-.83-.25-1.64-.39-2.46s-.29-1.64-.46-2.45-.33-1.63-.51-2.45-.37-1.63-.57-2.44-.34-1.37-.52-2.05-.4-1.47-.61-2.21-.46-1.62-.71-2.42-.49-1.62-.75-2.43-.52-1.61-.79-2.42-.54-1.61-.82-2.42-.57-1.6-.86-2.41-.58-1.6-.88-2.4l-.9-2.39c-.31-.8-.61-1.6-.92-2.39s-.63-1.6-.95-2.41c-.57-1.44-1.15-2.89-1.73-4.33-.95-2.37-1.91-4.72-2.87-7.09l-1.18-2.94L268,557.62c-.3-.79-.61-1.57-.91-2.36s-.61-1.57-.9-2.35-.59-1.57-.88-2.35-.57-1.57-.85-2.35-.55-1.56-.82-2.34c-.37-1.07-.72-2.14-1.07-3.21-.24-.74-.47-1.47-.69-2.21l-.27-.87-.27-.92-.45-1.58c-.25-.89-.5-1.78-.73-2.68s-.4-1.56-.93-3.82c-.58-2.47-1.55-6.71-2.93-15.75"/></g><g id="Accessory"><path class="cls-3" d="M250.15,187.67a1.62,1.62,0,0,0-.58.11,1.58,1.58,0,0,0-.88.88,1.56,1.56,0,0,0,0,1.15,1.58,1.58,0,0,0,.88.88,1.43,1.43,0,0,0,.58.11,1.41,1.41,0,0,0,.57-.11,1.58,1.58,0,0,0,.88-.88,1.41,1.41,0,0,0,.11-.57,1.43,1.43,0,0,0-.11-.58,1.44,1.44,0,0,0-.35-.53,1.58,1.58,0,0,0-.53-.35A1.6,1.6,0,0,0,250.15,187.67Z"/><path class="cls-3" d="M250.15,280.1a1.43,1.43,0,0,0-.58.11,1.55,1.55,0,0,0-.53.34,1.73,1.73,0,0,0-.35.54,1.56,1.56,0,0,0-.11.57,1.66,1.66,0,0,0,.11.58,1.58,1.58,0,0,0,.88.88,1.56,1.56,0,0,0,1.15,0,1.58,1.58,0,0,0,.53-.35,1.44,1.44,0,0,0,.35-.53,1.46,1.46,0,0,0,.11-.58,1.38,1.38,0,0,0-.11-.57,1.58,1.58,0,0,0-.88-.88A1.41,1.41,0,0,0,250.15,280.1Z"/><path class="cls-3" d="M250.15,326.31a1.62,1.62,0,0,0-.58.11,1.58,1.58,0,0,0-.88.88,1.56,1.56,0,0,0,0,1.15,1.58,1.58,0,0,0,.88.88,1.56,1.56,0,0,0,1.15,0,1.58,1.58,0,0,0,.53-.35,1.44,1.44,0,0,0,.35-.53,1.43,1.43,0,0,0,.11-.58,1.41,1.41,0,0,0-.11-.57,1.44,1.44,0,0,0-.35-.53,1.58,1.58,0,0,0-.53-.35A1.6,1.6,0,0,0,250.15,326.31Z"/><path class="cls-3" d="M250.15,372.52a1.62,1.62,0,0,0-.58.11,1.58,1.58,0,0,0-.88.88,1.56,1.56,0,0,0,0,1.15,1.58,1.58,0,0,0,.35.53,1.44,1.44,0,0,0,.53.35,1.43,1.43,0,0,0,.58.11,1.41,1.41,0,0,0,.57-.11,1.58,1.58,0,0,0,.88-.88,1.41,1.41,0,0,0,.11-.57,1.43,1.43,0,0,0-.11-.58,1.44,1.44,0,0,0-.35-.53,1.58,1.58,0,0,0-.53-.35A1.6,1.6,0,0,0,250.15,372.52Z"/><path class="cls-3" d="M250.15,416a1.62,1.62,0,0,0-.58.11,1.58,1.58,0,0,0-.88.88,1.56,1.56,0,0,0,0,1.15,1.58,1.58,0,0,0,.35.53,1.44,1.44,0,0,0,.53.35,1.43,1.43,0,0,0,.58.11,1.41,1.41,0,0,0,.57-.11,1.58,1.58,0,0,0,.88-.88,1.41,1.41,0,0,0,.11-.57,1.43,1.43,0,0,0-.11-.58,1.44,1.44,0,0,0-.35-.53,1.58,1.58,0,0,0-.53-.35A1.6,1.6,0,0,0,250.15,416Z"/><path class="cls-3" d="M250.21,459.56a1.6,1.6,0,0,0-.57.11,1.58,1.58,0,0,0-.88.88,1.56,1.56,0,0,0,0,1.15,1.58,1.58,0,0,0,.35.53,1.44,1.44,0,0,0,.53.35,1.41,1.41,0,0,0,.57.11,1.43,1.43,0,0,0,.58-.11,1.44,1.44,0,0,0,.53-.35,1.58,1.58,0,0,0,.35-.53,1.56,1.56,0,0,0,0-1.15,1.58,1.58,0,0,0-.88-.88A1.62,1.62,0,0,0,250.21,459.56Z"/><path class="cls-3" d="M251.6,503.08a1.66,1.66,0,0,0-.58.11,1.81,1.81,0,0,0-.53.35,1.59,1.59,0,0,0,0,2.21,1.63,1.63,0,0,0,.53.35,1.58,1.58,0,0,0,1.16,0,1.44,1.44,0,0,0,.53-.35,1.58,1.58,0,0,0,.35-.53,1.56,1.56,0,0,0,0-1.15,1.58,1.58,0,0,0-.88-.88A1.66,1.66,0,0,0,251.6,503.08Z"/><path class="cls-3" d="M260.83,546.6a1.6,1.6,0,0,0-.57.11,1.58,1.58,0,0,0-.88.88,1.56,1.56,0,0,0,0,1.15,1.58,1.58,0,0,0,.35.53,1.44,1.44,0,0,0,.53.35,1.41,1.41,0,0,0,.57.11,1.43,1.43,0,0,0,.58-.11,1.44,1.44,0,0,0,.53-.35,1.58,1.58,0,0,0,.35-.53,1.56,1.56,0,0,0,0-1.15,1.58,1.58,0,0,0-.88-.88A1.62,1.62,0,0,0,260.83,546.6Z"/><path class="cls-3" d="M277.48,590.12a1.66,1.66,0,0,0-.58.11,1.58,1.58,0,0,0-.88.88,1.56,1.56,0,0,0,0,1.15,1.58,1.58,0,0,0,.35.53,1.44,1.44,0,0,0,.53.35,1.46,1.46,0,0,0,.58.11,1.38,1.38,0,0,0,.57-.11,1.51,1.51,0,0,0,.88-.88,1.41,1.41,0,0,0,.11-.57,1.43,1.43,0,0,0-.11-.58,1.55,1.55,0,0,0-.34-.53,1.73,1.73,0,0,0-.54-.35A1.56,1.56,0,0,0,277.48,590.12Z"/><path class="cls-3" d="M281.81,633.64a1.62,1.62,0,0,0-.58.11,1.58,1.58,0,0,0-.88.88,1.56,1.56,0,0,0,0,1.15,1.58,1.58,0,0,0,.35.53,1.44,1.44,0,0,0,.53.35,1.43,1.43,0,0,0,.58.11,1.41,1.41,0,0,0,.57-.11,1.58,1.58,0,0,0,.88-.88,1.41,1.41,0,0,0,.11-.57,1.43,1.43,0,0,0-.11-.58,1.44,1.44,0,0,0-.35-.53,1.58,1.58,0,0,0-.53-.35A1.6,1.6,0,0,0,281.81,633.64Z"/><path class="cls-3" d="M267.38,677.16a1.62,1.62,0,0,0-.58.11,1.58,1.58,0,0,0-.88.88,1.56,1.56,0,0,0,0,1.15,1.58,1.58,0,0,0,.35.53,1.44,1.44,0,0,0,.53.35,1.43,1.43,0,0,0,.58.11,1.41,1.41,0,0,0,.57-.11,1.58,1.58,0,0,0,.88-.88,1.41,1.41,0,0,0,.11-.57,1.43,1.43,0,0,0-.11-.58,1.44,1.44,0,0,0-.35-.53,1.58,1.58,0,0,0-.53-.35A1.6,1.6,0,0,0,267.38,677.16Z"/><path class="cls-3" d="M250.22,902.28a1.38,1.38,0,0,0-.57.11,1.54,1.54,0,0,0-.54.34,1.77,1.77,0,0,0-.34.53,1.58,1.58,0,0,0,0,1.16,1.55,1.55,0,0,0,.34.53,1.73,1.73,0,0,0,.54.35,1.56,1.56,0,0,0,.57.11,1.66,1.66,0,0,0,.58-.11,1.58,1.58,0,0,0,.88-.88,1.66,1.66,0,0,0,.11-.58,1.56,1.56,0,0,0-.11-.57,1.73,1.73,0,0,0-.35-.54,1.42,1.42,0,0,0-.53-.34A1.46,1.46,0,0,0,250.22,902.28Z"/><path class="cls-3" d="M250.22,856.88a1.38,1.38,0,0,0-.57.11,1.51,1.51,0,0,0-.88.88,1.41,1.41,0,0,0-.11.57,1.43,1.43,0,0,0,.11.58,1.55,1.55,0,0,0,.34.53,1.73,1.73,0,0,0,.54.35,1.56,1.56,0,0,0,.57.11,1.66,1.66,0,0,0,.58-.11,1.58,1.58,0,0,0,.88-.88,1.56,1.56,0,0,0,0-1.15,1.58,1.58,0,0,0-.35-.53,1.44,1.44,0,0,0-.53-.35A1.46,1.46,0,0,0,250.22,856.88Z"/><path class="cls-3" d="M250.22,811.48a1.56,1.56,0,0,0-.57.11,1.73,1.73,0,0,0-.54.35,1.55,1.55,0,0,0-.34.53,1.41,1.41,0,0,0-.11.57,1.43,1.43,0,0,0,.11.58,1.55,1.55,0,0,0,.34.53,1.73,1.73,0,0,0,.54.35,1.56,1.56,0,0,0,.57.11,1.66,1.66,0,0,0,.58-.11,1.58,1.58,0,0,0,.88-.88,1.56,1.56,0,0,0,0-1.15,1.58,1.58,0,0,0-.88-.88A1.66,1.66,0,0,0,250.22,811.48Z"/><path class="cls-3" d="M250.22,766.08a1.56,1.56,0,0,0-.57.11,1.73,1.73,0,0,0-.54.35,1.55,1.55,0,0,0-.34.53,1.43,1.43,0,0,0-.11.58,1.41,1.41,0,0,0,.11.57,1.55,1.55,0,0,0,.34.53,1.73,1.73,0,0,0,.54.35,1.56,1.56,0,0,0,.57.11,1.66,1.66,0,0,0,.58-.11,1.58,1.58,0,0,0,.88-.88,1.56,1.56,0,0,0,0-1.15,1.58,1.58,0,0,0-.88-.88A1.66,1.66,0,0,0,250.22,766.08Z"/><path class="cls-3" d="M253.84,720.68a1.66,1.66,0,0,0-.58.11,1.81,1.81,0,0,0-.53.35,1.59,1.59,0,0,0,0,2.21,1.63,1.63,0,0,0,.53.35,1.58,1.58,0,0,0,1.16,0,1.44,1.44,0,0,0,.53-.35,1.58,1.58,0,0,0,.35-.53,1.56,1.56,0,0,0,0-1.15,1.58,1.58,0,0,0-.88-.88A1.66,1.66,0,0,0,253.84,720.68Z"/><path class="cls-3" d="M549.78,95.25a1.46,1.46,0,0,0-.58.11,1.42,1.42,0,0,0-.53.34,1.73,1.73,0,0,0-.35.54,1.56,1.56,0,0,0-.11.57,1.66,1.66,0,0,0,.11.58,1.58,1.58,0,0,0,.88.88,1.66,1.66,0,0,0,.58.11,1.56,1.56,0,0,0,.57-.11,1.58,1.58,0,0,0,.53-.35,1.44,1.44,0,0,0,.35-.53,1.46,1.46,0,0,0,.11-.58,1.38,1.38,0,0,0-.11-.57,1.57,1.57,0,0,0-.35-.54,1.42,1.42,0,0,0-.53-.34A1.38,1.38,0,0,0,549.78,95.25Z"/><path class="cls-3" d="M549.78,141.46a1.66,1.66,0,0,0-.58.11,1.58,1.58,0,0,0-.88.88,1.56,1.56,0,0,0,0,1.15,1.58,1.58,0,0,0,.88.88,1.66,1.66,0,0,0,.58.11,1.56,1.56,0,0,0,.57-.11,1.58,1.58,0,0,0,.53-.35,1.44,1.44,0,0,0,.35-.53,1.43,1.43,0,0,0,.11-.58,1.41,1.41,0,0,0-.11-.57,1.44,1.44,0,0,0-.35-.53,1.58,1.58,0,0,0-.53-.35A1.56,1.56,0,0,0,549.78,141.46Z"/><path class="cls-3" d="M549.78,187.67a1.66,1.66,0,0,0-.58.11,1.58,1.58,0,0,0-.88.88,1.56,1.56,0,0,0,0,1.15,1.58,1.58,0,0,0,.88.88,1.46,1.46,0,0,0,.58.11,1.38,1.38,0,0,0,.57-.11,1.58,1.58,0,0,0,.88-.88,1.41,1.41,0,0,0,.11-.57,1.43,1.43,0,0,0-.11-.58,1.44,1.44,0,0,0-.35-.53,1.58,1.58,0,0,0-.53-.35A1.56,1.56,0,0,0,549.78,187.67Z"/><path class="cls-3" d="M549.78,233.88a1.66,1.66,0,0,0-.58.11,1.58,1.58,0,0,0-.88.88,1.58,1.58,0,0,0,0,1.16,1.69,1.69,0,0,0,.35.53,1.42,1.42,0,0,0,.53.34,1.46,1.46,0,0,0,.58.11,1.38,1.38,0,0,0,.57-.11,1.42,1.42,0,0,0,.53-.34,1.53,1.53,0,0,0,.35-.53,1.58,1.58,0,0,0,0-1.16,1.44,1.44,0,0,0-.35-.53,1.58,1.58,0,0,0-.53-.35A1.56,1.56,0,0,0,549.78,233.88Z"/><path class="cls-3" d="M549.78,280.1a1.46,1.46,0,0,0-.58.11,1.55,1.55,0,0,0-.53.34,1.73,1.73,0,0,0-.35.54,1.56,1.56,0,0,0-.11.57,1.66,1.66,0,0,0,.11.58,1.58,1.58,0,0,0,.88.88,1.66,1.66,0,0,0,.58.11,1.56,1.56,0,0,0,.57-.11,1.58,1.58,0,0,0,.53-.35,1.44,1.44,0,0,0,.35-.53,1.46,1.46,0,0,0,.11-.58,1.38,1.38,0,0,0-.11-.57,1.58,1.58,0,0,0-.88-.88A1.38,1.38,0,0,0,549.78,280.1Z"/><path class="cls-3" d="M549.78,326.31a1.66,1.66,0,0,0-.58.11,1.58,1.58,0,0,0-.88.88,1.56,1.56,0,0,0,0,1.15,1.58,1.58,0,0,0,.88.88,1.66,1.66,0,0,0,.58.11,1.56,1.56,0,0,0,.57-.11,1.58,1.58,0,0,0,.53-.35,1.44,1.44,0,0,0,.35-.53,1.43,1.43,0,0,0,.11-.58,1.41,1.41,0,0,0-.11-.57,1.44,1.44,0,0,0-.35-.53,1.58,1.58,0,0,0-.53-.35A1.56,1.56,0,0,0,549.78,326.31Z"/><path class="cls-3" d="M549.78,372.52a1.66,1.66,0,0,0-.58.11,1.58,1.58,0,0,0-.88.88,1.56,1.56,0,0,0,0,1.15,1.58,1.58,0,0,0,.35.53,1.44,1.44,0,0,0,.53.35,1.46,1.46,0,0,0,.58.11,1.38,1.38,0,0,0,.57-.11,1.58,1.58,0,0,0,.88-.88,1.41,1.41,0,0,0,.11-.57,1.43,1.43,0,0,0-.11-.58,1.44,1.44,0,0,0-.35-.53,1.58,1.58,0,0,0-.53-.35A1.56,1.56,0,0,0,549.78,372.52Z"/><path class="cls-3" d="M549.78,416a1.66,1.66,0,0,0-.58.11,1.58,1.58,0,0,0-.88.88,1.56,1.56,0,0,0,0,1.15,1.58,1.58,0,0,0,.35.53,1.44,1.44,0,0,0,.53.35,1.46,1.46,0,0,0,.58.11,1.38,1.38,0,0,0,.57-.11,1.58,1.58,0,0,0,.88-.88,1.41,1.41,0,0,0,.11-.57,1.43,1.43,0,0,0-.11-.58,1.44,1.44,0,0,0-.35-.53,1.58,1.58,0,0,0-.53-.35A1.56,1.56,0,0,0,549.78,416Z"/><path class="cls-3" d="M549.78,459.56a1.66,1.66,0,0,0-.58.11,1.58,1.58,0,0,0-.88.88,1.56,1.56,0,0,0,0,1.15,1.58,1.58,0,0,0,.35.53,1.44,1.44,0,0,0,.53.35,1.46,1.46,0,0,0,.58.11,1.38,1.38,0,0,0,.57-.11,1.58,1.58,0,0,0,.88-.88,1.41,1.41,0,0,0,.11-.57,1.43,1.43,0,0,0-.11-.58,1.44,1.44,0,0,0-.35-.53,1.58,1.58,0,0,0-.53-.35A1.56,1.56,0,0,0,549.78,459.56Z"/><path class="cls-3" d="M549.78,503.08a1.66,1.66,0,0,0-.58.11,1.58,1.58,0,0,0-.88.88,1.56,1.56,0,0,0,0,1.15,1.58,1.58,0,0,0,.35.53,1.44,1.44,0,0,0,.53.35,1.46,1.46,0,0,0,.58.11,1.38,1.38,0,0,0,.57-.11,1.58,1.58,0,0,0,.88-.88,1.41,1.41,0,0,0,.11-.57,1.43,1.43,0,0,0-.11-.58,1.44,1.44,0,0,0-.35-.53,1.58,1.58,0,0,0-.53-.35A1.56,1.56,0,0,0,549.78,503.08Z"/><path class="cls-3" d="M549.78,546.6a1.66,1.66,0,0,0-.58.11,1.58,1.58,0,0,0-.88.88,1.56,1.56,0,0,0,0,1.15,1.58,1.58,0,0,0,.35.53,1.44,1.44,0,0,0,.53.35,1.46,1.46,0,0,0,.58.11,1.38,1.38,0,0,0,.57-.11,1.58,1.58,0,0,0,.88-.88,1.41,1.41,0,0,0,.11-.57,1.43,1.43,0,0,0-.11-.58,1.44,1.44,0,0,0-.35-.53,1.58,1.58,0,0,0-.53-.35A1.56,1.56,0,0,0,549.78,546.6Z"/><path class="cls-3" d="M549.78,590.12a1.66,1.66,0,0,0-.58.11,1.58,1.58,0,0,0-.88.88,1.56,1.56,0,0,0,0,1.15,1.58,1.58,0,0,0,.35.53,1.44,1.44,0,0,0,.53.35,1.46,1.46,0,0,0,.58.11,1.38,1.38,0,0,0,.57-.11,1.58,1.58,0,0,0,.88-.88,1.41,1.41,0,0,0,.11-.57,1.43,1.43,0,0,0-.11-.58,1.44,1.44,0,0,0-.35-.53,1.58,1.58,0,0,0-.53-.35A1.56,1.56,0,0,0,549.78,590.12Z"/><path class="cls-3" d="M549.78,633.64a1.66,1.66,0,0,0-.58.11,1.58,1.58,0,0,0-.88.88,1.56,1.56,0,0,0,0,1.15,1.58,1.58,0,0,0,.35.53,1.44,1.44,0,0,0,.53.35,1.46,1.46,0,0,0,.58.11,1.38,1.38,0,0,0,.57-.11,1.58,1.58,0,0,0,.88-.88,1.41,1.41,0,0,0,.11-.57,1.43,1.43,0,0,0-.11-.58,1.44,1.44,0,0,0-.35-.53,1.58,1.58,0,0,0-.53-.35A1.56,1.56,0,0,0,549.78,633.64Z"/><path class="cls-3" d="M549.78,677.16a1.66,1.66,0,0,0-.58.11,1.58,1.58,0,0,0-.88.88,1.56,1.56,0,0,0,0,1.15,1.58,1.58,0,0,0,.35.53,1.44,1.44,0,0,0,.53.35,1.46,1.46,0,0,0,.58.11,1.38,1.38,0,0,0,.57-.11,1.58,1.58,0,0,0,.88-.88,1.41,1.41,0,0,0,.11-.57,1.43,1.43,0,0,0-.11-.58,1.44,1.44,0,0,0-.35-.53,1.58,1.58,0,0,0-.53-.35A1.56,1.56,0,0,0,549.78,677.16Z"/><path class="cls-3" d="M549.78,902.28a1.46,1.46,0,0,0-.58.11,1.42,1.42,0,0,0-.53.34,1.81,1.81,0,0,0-.35.53,1.58,1.58,0,0,0,0,1.16,1.58,1.58,0,0,0,.88.88,1.66,1.66,0,0,0,.58.11,1.56,1.56,0,0,0,.57-.11,1.58,1.58,0,0,0,.53-.35,1.44,1.44,0,0,0,.35-.53,1.46,1.46,0,0,0,.11-.58,1.38,1.38,0,0,0-.11-.57,1.57,1.57,0,0,0-.35-.54,1.42,1.42,0,0,0-.53-.34A1.38,1.38,0,0,0,549.78,902.28Z"/><path class="cls-3" d="M549.78,856.88a1.46,1.46,0,0,0-.58.11,1.44,1.44,0,0,0-.53.35,1.58,1.58,0,0,0-.35.53,1.56,1.56,0,0,0,0,1.15,1.58,1.58,0,0,0,.88.88,1.66,1.66,0,0,0,.58.11,1.56,1.56,0,0,0,.57-.11,1.58,1.58,0,0,0,.53-.35,1.44,1.44,0,0,0,.35-.53,1.43,1.43,0,0,0,.11-.58,1.41,1.41,0,0,0-.11-.57,1.58,1.58,0,0,0-.88-.88A1.38,1.38,0,0,0,549.78,856.88Z"/><path class="cls-3" d="M549.78,811.48a1.66,1.66,0,0,0-.58.11,1.58,1.58,0,0,0-.88.88,1.56,1.56,0,0,0,0,1.15,1.58,1.58,0,0,0,.88.88,1.66,1.66,0,0,0,.58.11,1.56,1.56,0,0,0,.57-.11,1.58,1.58,0,0,0,.53-.35,1.44,1.44,0,0,0,.35-.53,1.43,1.43,0,0,0,.11-.58,1.41,1.41,0,0,0-.11-.57,1.44,1.44,0,0,0-.35-.53,1.58,1.58,0,0,0-.53-.35A1.56,1.56,0,0,0,549.78,811.48Z"/><path class="cls-3" d="M549.78,766.08a1.66,1.66,0,0,0-.58.11,1.58,1.58,0,0,0-.88.88,1.56,1.56,0,0,0,0,1.15,1.58,1.58,0,0,0,.88.88,1.66,1.66,0,0,0,.58.11,1.56,1.56,0,0,0,.57-.11,1.58,1.58,0,0,0,.53-.35,1.44,1.44,0,0,0,.35-.53,1.41,1.41,0,0,0,.11-.57,1.43,1.43,0,0,0-.11-.58,1.44,1.44,0,0,0-.35-.53,1.58,1.58,0,0,0-.53-.35A1.56,1.56,0,0,0,549.78,766.08Z"/><line class="cls-3" x1="371.52" y1="784.83" x2="310.2" y2="764.52"/><path class="cls-3" d="M549.78,720.68a1.66,1.66,0,0,0-.58.11,1.58,1.58,0,0,0-.88.88,1.56,1.56,0,0,0,0,1.15,1.58,1.58,0,0,0,.35.53,1.44,1.44,0,0,0,.53.35,1.46,1.46,0,0,0,.58.11,1.38,1.38,0,0,0,.57-.11,1.58,1.58,0,0,0,.88-.88,1.41,1.41,0,0,0,.11-.57,1.43,1.43,0,0,0-.11-.58,1.44,1.44,0,0,0-.35-.53,1.58,1.58,0,0,0-.53-.35A1.56,1.56,0,0,0,549.78,720.68Z"/><path class="cls-3" d="M468.55,938.91a1.4,1.4,0,0,0-.54.1,1.42,1.42,0,0,0-.81.81,1.36,1.36,0,0,0,0,1.07,1.34,1.34,0,0,0,.32.49,1.4,1.4,0,0,0,1,.43,1.61,1.61,0,0,0,.53-.1,1.63,1.63,0,0,0,.49-.33,1.34,1.34,0,0,0,.32-.49,1.36,1.36,0,0,0,0-1.07,1.42,1.42,0,0,0-.81-.81A1.39,1.39,0,0,0,468.55,938.91Z"/><line class="cls-3" x1="376.64" y1="332.88" x2="376.64" y2="331.47"/><line class="cls-3" x1="409.2" y1="332.88" x2="409.2" y2="331.47"/><line class="cls-3" x1="366.61" y1="456.66" x2="341.36" y2="453.69"/><line class="cls-3" x1="363.27" y1="483.06" x2="283.47" y2="473.68"/><line class="cls-3" x1="341.36" y1="453.69" x2="291.81" y2="447.86"/><path class="cls-3" d="M259.23,86.13a1.43,1.43,0,0,0-.58.11,1.44,1.44,0,0,0-.53.35,1.58,1.58,0,0,0-.35.53,1.56,1.56,0,0,0-.11.57,1.62,1.62,0,0,0,.11.58,1.58,1.58,0,0,0,.88.88,1.56,1.56,0,0,0,1.15,0,1.58,1.58,0,0,0,.53-.35,1.44,1.44,0,0,0,.35-.53,1.43,1.43,0,0,0,.11-.58,1.38,1.38,0,0,0-.11-.57,1.58,1.58,0,0,0-.88-.88A1.41,1.41,0,0,0,259.23,86.13Z"/><path class="cls-3" d="M298.68,86.13a1.43,1.43,0,0,0-.58.11,1.44,1.44,0,0,0-.53.35,1.58,1.58,0,0,0-.35.53,1.56,1.56,0,0,0-.11.57,1.62,1.62,0,0,0,.11.58,1.58,1.58,0,0,0,.88.88,1.56,1.56,0,0,0,1.15,0,1.58,1.58,0,0,0,.53-.35,1.44,1.44,0,0,0,.35-.53,1.43,1.43,0,0,0,.11-.58,1.38,1.38,0,0,0-.11-.57,1.58,1.58,0,0,0-.88-.88A1.41,1.41,0,0,0,298.68,86.13Z"/><path class="cls-3" d="M339.19,86.13a1.38,1.38,0,0,0-.57.11,1.57,1.57,0,0,0-.54.35,1.42,1.42,0,0,0-.34.53,1.38,1.38,0,0,0-.11.57,1.6,1.6,0,0,0,.45,1.11,1.73,1.73,0,0,0,.54.35,1.56,1.56,0,0,0,.57.11,1.66,1.66,0,0,0,.58-.11,1.58,1.58,0,0,0,.88-.88,1.62,1.62,0,0,0,.11-.58,1.56,1.56,0,0,0-.11-.57,1.58,1.58,0,0,0-.35-.53,1.44,1.44,0,0,0-.53-.35A1.46,1.46,0,0,0,339.19,86.13Z"/><path class="cls-3" d="M379.71,86.13a1.43,1.43,0,0,0-.58.11,1.44,1.44,0,0,0-.53.35,1.58,1.58,0,0,0-.35.53,1.56,1.56,0,0,0-.11.57,1.62,1.62,0,0,0,.11.58,1.58,1.58,0,0,0,.88.88,1.56,1.56,0,0,0,1.15,0,1.58,1.58,0,0,0,.88-.88,1.62,1.62,0,0,0,.11-.58,1.56,1.56,0,0,0-.11-.57,1.58,1.58,0,0,0-.35-.53,1.44,1.44,0,0,0-.53-.35A1.41,1.41,0,0,0,379.71,86.13Z"/><path class="cls-3" d="M420.22,86.13a1.46,1.46,0,0,0-.58.11,1.44,1.44,0,0,0-.53.35,1.58,1.58,0,0,0-.35.53,1.56,1.56,0,0,0-.11.57,1.62,1.62,0,0,0,.11.58,1.58,1.58,0,0,0,.88.88,1.58,1.58,0,0,0,1.16,0,1.58,1.58,0,0,0,.88-.88,1.62,1.62,0,0,0,.11-.58,1.56,1.56,0,0,0-.11-.57,1.58,1.58,0,0,0-.35-.53,1.44,1.44,0,0,0-.53-.35A1.46,1.46,0,0,0,420.22,86.13Z"/><path class="cls-3" d="M460.73,86.13a1.41,1.41,0,0,0-.57.11,1.44,1.44,0,0,0-.53.35,1.58,1.58,0,0,0-.35.53,1.56,1.56,0,0,0-.11.57,1.62,1.62,0,0,0,.11.58,1.58,1.58,0,0,0,.88.88,1.56,1.56,0,0,0,1.15,0,1.58,1.58,0,0,0,.88-.88,1.62,1.62,0,0,0,.11-.58,1.56,1.56,0,0,0-.11-.57,1.58,1.58,0,0,0-.35-.53,1.44,1.44,0,0,0-.53-.35A1.43,1.43,0,0,0,460.73,86.13Z"/><path class="cls-3" d="M501.25,86.13a1.46,1.46,0,0,0-.58.11,1.44,1.44,0,0,0-.53.35,1.58,1.58,0,0,0-.35.53,1.56,1.56,0,0,0-.11.57,1.62,1.62,0,0,0,.11.58,1.58,1.58,0,0,0,.88.88,1.66,1.66,0,0,0,.58.11,1.56,1.56,0,0,0,.57-.11,1.73,1.73,0,0,0,.54-.35,1.6,1.6,0,0,0,.45-1.11,1.38,1.38,0,0,0-.11-.57,1.42,1.42,0,0,0-.34-.53,1.57,1.57,0,0,0-.54-.35A1.38,1.38,0,0,0,501.25,86.13Z"/><path class="cls-3" d="M540.7,86.13a1.46,1.46,0,0,0-.58.11,1.44,1.44,0,0,0-.53.35,1.58,1.58,0,0,0-.35.53,1.56,1.56,0,0,0-.11.57,1.62,1.62,0,0,0,.11.58,1.58,1.58,0,0,0,.88.88,1.66,1.66,0,0,0,.58.11,1.56,1.56,0,0,0,.57-.11,1.73,1.73,0,0,0,.54-.35,1.6,1.6,0,0,0,.45-1.11,1.38,1.38,0,0,0-.11-.57,1.42,1.42,0,0,0-.34-.53,1.57,1.57,0,0,0-.54-.35A1.38,1.38,0,0,0,540.7,86.13Z"/><line class="cls-3" x1="431.59" y1="331.47" x2="431.74" y2="331.47"/><rect class="cls-3" x="467.12" y="254.3" width="32.87" height="77.18"/><line class="cls-3" x1="375.07" y1="341.65" x2="375.07" y2="331.47"/><line class="cls-3" x1="410.76" y1="341.65" x2="410.76" y2="331.47"/><line class="cls-3" x1="287.73" y1="753.84" x2="292.53" y2="739.27"/><line class="cls-3" x1="376.64" y1="218.92" x2="409.2" y2="218.92"/><line class="cls-3" x1="376.64" y1="227.68" x2="409.2" y2="227.68"/><line class="cls-3" x1="376.64" y1="236.45" x2="409.2" y2="236.45"/><line class="cls-3" x1="376.64" y1="245.22" x2="409.2" y2="245.22"/><line class="cls-3" x1="433.05" y1="801.34" x2="477.07" y2="815.83"/><line class="cls-3" x1="376.64" y1="253.98" x2="409.2" y2="253.98"/><line class="cls-3" x1="376.64" y1="262.75" x2="409.2" y2="262.75"/><line class="cls-3" x1="376.64" y1="271.52" x2="409.2" y2="271.52"/><line class="cls-3" x1="376.64" y1="280.28" x2="409.2" y2="280.28"/><polyline class="cls-3" points="412.96 331.48 431.74 331.48 431.74 138.92 412.96 138.92"/><line class="cls-3" x1="376.64" y1="289.05" x2="409.2" y2="289.05"/><line class="cls-3" x1="376.64" y1="297.82" x2="409.2" y2="297.82"/><line class="cls-3" x1="376.64" y1="306.58" x2="409.2" y2="306.58"/><line class="cls-3" x1="376.64" y1="315.35" x2="409.2" y2="315.35"/><line class="cls-3" x1="376.64" y1="324.12" x2="409.2" y2="324.12"/><line class="cls-3" x1="376.64" y1="332.88" x2="409.2" y2="332.88"/><line class="cls-3" x1="375.07" y1="341.65" x2="410.76" y2="341.65"/><path class="cls-3" d="M334.74,938.91a1.4,1.4,0,0,0-.54.1,1.42,1.42,0,0,0-.81.81,1.36,1.36,0,0,0,0,1.07,1.34,1.34,0,0,0,.32.49,1.4,1.4,0,0,0,1,.43,1.61,1.61,0,0,0,.53-.1,1.63,1.63,0,0,0,.49-.33,1.51,1.51,0,0,0,.33-.49,1.48,1.48,0,0,0,0-1.07,1.63,1.63,0,0,0-.33-.49,1.43,1.43,0,0,0-.49-.32A1.39,1.39,0,0,0,334.74,938.91Z"/><path class="cls-3" d="M423.94,938.91a1.39,1.39,0,0,0-.53.1,1.34,1.34,0,0,0-.49.32,1.4,1.4,0,0,0-.43,1,1.61,1.61,0,0,0,.1.53,1.54,1.54,0,0,0,.82.82,1.48,1.48,0,0,0,1.07,0,1.63,1.63,0,0,0,.49-.33,1.34,1.34,0,0,0,.32-.49,1.39,1.39,0,0,0,.1-.53,1.4,1.4,0,0,0-.1-.54,1.42,1.42,0,0,0-.81-.81A1.4,1.4,0,0,0,423.94,938.91Z"/><path class="cls-3" d="M513.15,938.91a1.46,1.46,0,0,0-.58.11,1.42,1.42,0,0,0-.53.34,1.81,1.81,0,0,0-.35.53,1.58,1.58,0,0,0,0,1.16,1.58,1.58,0,0,0,.88.88,1.66,1.66,0,0,0,.58.11,1.56,1.56,0,0,0,.57-.11,1.73,1.73,0,0,0,.54-.35,1.42,1.42,0,0,0,.34-.53,1.58,1.58,0,0,0,0-1.16,1.6,1.6,0,0,0-.34-.53,1.54,1.54,0,0,0-.54-.34A1.38,1.38,0,0,0,513.15,938.91Z"/><path class="cls-3" d="M290.13,938.91a1.39,1.39,0,0,0-.53.1,1.34,1.34,0,0,0-.49.32,1.4,1.4,0,0,0-.43,1,1.61,1.61,0,0,0,.1.53,1.54,1.54,0,0,0,.82.82,1.48,1.48,0,0,0,1.07,0,1.63,1.63,0,0,0,.49-.33,1.34,1.34,0,0,0,.32-.49,1.39,1.39,0,0,0,.1-.53,1.4,1.4,0,0,0-.1-.54,1.42,1.42,0,0,0-.81-.81A1.4,1.4,0,0,0,290.13,938.91Z"/><path class="cls-3" d="M379.34,938.91a1.43,1.43,0,0,0-1.35.91,1.4,1.4,0,0,0-.1.54,1.39,1.39,0,0,0,.1.53,1.34,1.34,0,0,0,.32.49,1.63,1.63,0,0,0,.49.33,1.66,1.66,0,0,0,.54.1,1.61,1.61,0,0,0,.53-.1,1.67,1.67,0,0,0,.5-.33,1.34,1.34,0,0,0,.32-.49,1.39,1.39,0,0,0,.1-.53,1.4,1.4,0,0,0-.1-.54,1.43,1.43,0,0,0-.32-.49,1.49,1.49,0,0,0-1-.42Z"/><path class="cls-3" d="M250.15,95.25a1.6,1.6,0,0,0-1.11.45,1.73,1.73,0,0,0-.35.54,1.56,1.56,0,0,0-.11.57,1.66,1.66,0,0,0,.11.58,1.58,1.58,0,0,0,.88.88,1.56,1.56,0,0,0,1.15,0,1.58,1.58,0,0,0,.53-.35,1.44,1.44,0,0,0,.35-.53,1.46,1.46,0,0,0,.11-.58,1.38,1.38,0,0,0-.11-.57,1.57,1.57,0,0,0-.35-.54,1.6,1.6,0,0,0-1.1-.45Z"/><path class="cls-3" d="M250.15,141.46a1.62,1.62,0,0,0-.58.11,1.58,1.58,0,0,0-.88.88,1.56,1.56,0,0,0,0,1.15,1.58,1.58,0,0,0,.88.88,1.56,1.56,0,0,0,1.15,0,1.58,1.58,0,0,0,.53-.35,1.44,1.44,0,0,0,.35-.53,1.43,1.43,0,0,0,.11-.58,1.41,1.41,0,0,0-.11-.57,1.44,1.44,0,0,0-.35-.53,1.58,1.58,0,0,0-.53-.35A1.6,1.6,0,0,0,250.15,141.46Z"/><path class="cls-3" d="M250.15,233.88a1.62,1.62,0,0,0-.58.11,1.58,1.58,0,0,0-.88.88,1.58,1.58,0,0,0,0,1.16,1.69,1.69,0,0,0,.35.53,1.59,1.59,0,0,0,2.21,0,1.53,1.53,0,0,0,.35-.53,1.58,1.58,0,0,0,0-1.16,1.44,1.44,0,0,0-.35-.53,1.58,1.58,0,0,0-.53-.35A1.6,1.6,0,0,0,250.15,233.88Z"/></g><g id="TEXT"><path d="M31.17,1024.55H26.49v-.9h1.88v-6.91l-1.78.88v-1l1.93-1h.89v8h1.76Z"/><path d="M64.34,1024.55H63l-3-4.36-.94,1v3.34h-1v-8.9h1v4.26l3.94-4.26h1.2l-3.48,3.76Z"/><path d="M69.27,1024.55h-1v-5.72H66.35V1018h2.92Zm-.48-9.06a.68.68,0,0,1,.47,1.16.62.62,0,0,1-.47.2.6.6,0,0,1-.46-.21.65.65,0,0,1-.2-.47.69.69,0,0,1,.2-.48A.63.63,0,0,1,68.79,1015.49Z"/><path d="M78.72,1024.25a4.55,4.55,0,0,1-2,.46c-1.17,0-1.76-.62-1.76-1.86v-4H73.75V1018H75v-1.8h1v1.8h2.24v.85H76v3.76a1.43,1.43,0,0,0,.27.93.86.86,0,0,0,.72.33,3.79,3.79,0,0,0,1.59-.36Z"/><path d="M86.39,1024.33a4.53,4.53,0,0,1-1.89.39,3.32,3.32,0,0,1-2.48-.94,3.46,3.46,0,0,1-.92-2.51,3.43,3.43,0,0,1,.93-2.51,3.29,3.29,0,0,1,2.45-.94,5.19,5.19,0,0,1,1.88.35l-.26.81a4.85,4.85,0,0,0-1.61-.31,2.21,2.21,0,0,0-1.72.7,2.75,2.75,0,0,0-.64,1.9,2.71,2.71,0,0,0,.66,1.85,2.2,2.2,0,0,0,1.71.74,4.88,4.88,0,0,0,1.72-.32Z"/><path d="M94.16,1024.55h-1v-4.21a2.19,2.19,0,0,0-.28-1.27,1,1,0,0,0-.88-.4,2.86,2.86,0,0,0-1.94,1.12v4.76h-1v-8.9h1v3.29a3.07,3.07,0,0,1,2.24-1.12c1.23,0,1.84.74,1.84,2.23Z"/><path d="M102.11,1021.3H97.6a2.69,2.69,0,0,0,.65,1.84,2.05,2.05,0,0,0,1.59.72,5.57,5.57,0,0,0,1.84-.32l.17.79a4.9,4.9,0,0,1-2,.39,3.11,3.11,0,0,1-2.36-.94,3.56,3.56,0,0,1-.89-2.54,3.7,3.7,0,0,1,.8-2.49,2.63,2.63,0,0,1,2.08-.93,2.45,2.45,0,0,1,1.9.86,3.37,3.37,0,0,1,.76,2.31Zm-1.07-.81a1.84,1.84,0,0,0-.48-1.29,1.44,1.44,0,0,0-1.07-.53,1.72,1.72,0,0,0-1.27.51,1.94,1.94,0,0,0-.55,1.31Z"/><path d="M109.67,1024.55h-1v-4.21a2.18,2.18,0,0,0-.29-1.27,1,1,0,0,0-.88-.4,2.84,2.84,0,0,0-1.93,1.12v4.76h-1V1018h1v1a3.06,3.06,0,0,1,2.23-1.12c1.23,0,1.85.74,1.85,2.23Z"/><path d="M30.93,1043.62H26v-.75c1.24-1.38,2-2.31,2.41-2.78a7.66,7.66,0,0,0,.91-1.48,3.81,3.81,0,0,0,.34-1.55,1.52,1.52,0,0,0-.45-1.17,1.74,1.74,0,0,0-1.26-.43,5.36,5.36,0,0,0-1.68.38l-.15-.89a5.07,5.07,0,0,1,2-.4,2.72,2.72,0,0,1,1.92.67,2.36,2.36,0,0,1,.73,1.8,3.71,3.71,0,0,1-.38,1.59,7.67,7.67,0,0,1-1,1.51c-.39.48-1.15,1.35-2.28,2.6h3.74Z"/><path d="M63.19,1043.62H58.35v-8.9h1v8h3.81Z"/><path d="M69.27,1043.62h-1v-5.72H66.35v-.85h2.92Zm-.48-9.06a.68.68,0,0,1,.47,1.16.62.62,0,0,1-.47.2.6.6,0,0,1-.46-.21.65.65,0,0,1-.2-.47.69.69,0,0,1,.2-.48A.63.63,0,0,1,68.79,1034.56Z"/><path d="M79,1037.05l-2.5,6.57h-.89l-2.48-6.57h1.07l1.86,5.23,1.86-5.23Z"/><path d="M84.77,1043.62h-1v-5.72H81.85v-.85h2.92Zm-.48-9.06a.67.67,0,0,1,.48.2.7.7,0,0,1,0,1,.66.66,0,0,1-.48.2.6.6,0,0,1-.45-.21.61.61,0,0,1-.2-.47.65.65,0,0,1,.2-.48A.62.62,0,0,1,84.29,1034.56Z"/><path d="M94.16,1043.62h-1v-4.21a2.19,2.19,0,0,0-.28-1.27,1,1,0,0,0-.88-.4,2.84,2.84,0,0,0-1.94,1.13v4.75h-1v-6.57h1v1a3.07,3.07,0,0,1,2.24-1.12c1.23,0,1.84.74,1.84,2.23Z"/><path d="M98.67,1041.14c-.61.3-.92.56-.92.79a.36.36,0,0,0,.21.31,1.21,1.21,0,0,0,.58.13l2.22-.07a1.77,1.77,0,0,1,1.22.39,1.34,1.34,0,0,1,.44,1.09,2,2,0,0,1-1,1.78,4.1,4.1,0,0,1-2.32.66,3.15,3.15,0,0,1-1.79-.46,1.37,1.37,0,0,1-.69-1.18c0-.53.36-1,1.07-1.33-.59-.28-.89-.62-.89-1s.38-.9,1.15-1.3a2.15,2.15,0,0,1-.81-.83,2.19,2.19,0,0,1-.29-1.08,2,2,0,0,1,.63-1.52,2.21,2.21,0,0,1,1.58-.6,2.66,2.66,0,0,1,1.23.29l1.95-.3v1H101a2.31,2.31,0,0,1,.29,1.17,2.06,2.06,0,0,1-.63,1.52,2.14,2.14,0,0,1-1.58.61Zm.43,4.32a3,3,0,0,0,1.65-.44,1.24,1.24,0,0,0,.69-1.07c0-.43-.33-.65-1-.65-.22,0-.59,0-1.11,0l-.79,0a.94.94,0,0,0-.43.23,2.16,2.16,0,0,0-.45.46.84.84,0,0,0-.15.47.77.77,0,0,0,.43.66A2,2,0,0,0,99.1,1045.46Zm0-5.07a1.16,1.16,0,0,0,.89-.37,1.44,1.44,0,0,0,.34-1,1.38,1.38,0,0,0-.34-1,1.26,1.26,0,0,0-1.77,0,1.37,1.37,0,0,0-.36,1,1.35,1.35,0,0,0,.36,1A1.17,1.17,0,0,0,99.06,1040.39Z"/><path d="M29.17,1057.91a2.54,2.54,0,0,1,1.31.83,2.06,2.06,0,0,1,.49,1.35,2.51,2.51,0,0,1-.91,2,3.14,3.14,0,0,1-2.16.8,3.75,3.75,0,0,1-1.9-.47l.2-.85a4,4,0,0,0,1.74.41,2,2,0,0,0,1.37-.5,1.64,1.64,0,0,0,.58-1.29,1.53,1.53,0,0,0-.62-1.26,2.54,2.54,0,0,0-1.62-.49h-.27v-.85h.08a2.7,2.7,0,0,0,1.6-.45,1.46,1.46,0,0,0,.63-1.24,1.17,1.17,0,0,0-.45-1,2,2,0,0,0-1.25-.36,3.86,3.86,0,0,0-1.54.37l-.14-.89a4.14,4.14,0,0,1,1.73-.39,3,3,0,0,1,2,.63,2,2,0,0,1,.3,2.88,2,2,0,0,1-1.13.74Z"/><path d="M58.05,1053.79H59.8a3.59,3.59,0,0,1,2.81,1.19,5.59,5.59,0,0,1,0,6.55,3.57,3.57,0,0,1-2.74,1.16h-1.8Zm1,8h.73a2.4,2.4,0,0,0,2-.94,4.09,4.09,0,0,0,.74-2.61,4.16,4.16,0,0,0-.74-2.6,2.41,2.41,0,0,0-2-1h-.73Z"/><path d="M69.27,1062.69h-1V1057H66.35v-.85h2.92Zm-.48-9.06a.68.68,0,0,1,.47,1.16.62.62,0,0,1-.47.2.6.6,0,0,1-.46-.21.65.65,0,0,1-.2-.47.69.69,0,0,1,.2-.48A.63.63,0,0,1,68.79,1053.63Z"/><path d="M78.66,1062.69h-1v-4.21a2.18,2.18,0,0,0-.29-1.27,1,1,0,0,0-.88-.4,2.82,2.82,0,0,0-1.93,1.13v4.75h-1v-6.57h1v1a3.06,3.06,0,0,1,2.23-1.12c1.23,0,1.85.74,1.85,2.23Z"/><path d="M84.77,1062.69h-1V1057H81.85v-.85h2.92Zm-.48-9.06a.67.67,0,0,1,.48.2.7.7,0,0,1,0,1,.66.66,0,0,1-.48.2.6.6,0,0,1-.45-.21.61.61,0,0,1-.2-.47.65.65,0,0,1,.2-.48A.62.62,0,0,1,84.29,1053.63Z"/><path d="M94.16,1062.69h-1v-4.21a2.19,2.19,0,0,0-.28-1.27,1,1,0,0,0-.88-.4,2.84,2.84,0,0,0-1.94,1.13v4.75h-1v-6.57h1v1a3.07,3.07,0,0,1,2.24-1.12c1.23,0,1.84.74,1.84,2.23Z"/><path d="M98.67,1060.21c-.61.3-.92.56-.92.79a.36.36,0,0,0,.21.31,1.21,1.21,0,0,0,.58.13l2.22-.07a1.77,1.77,0,0,1,1.22.39,1.34,1.34,0,0,1,.44,1.09,2,2,0,0,1-1,1.78,4.1,4.1,0,0,1-2.32.66,3.15,3.15,0,0,1-1.79-.46,1.37,1.37,0,0,1-.69-1.18c0-.53.36-1,1.07-1.33-.59-.28-.89-.62-.89-1s.38-.9,1.15-1.3a2.15,2.15,0,0,1-.81-.83,2.19,2.19,0,0,1-.29-1.08,2,2,0,0,1,.63-1.52,2.21,2.21,0,0,1,1.58-.6,2.66,2.66,0,0,1,1.23.29l1.95-.3v1H101a2.31,2.31,0,0,1,.29,1.17,2.06,2.06,0,0,1-.63,1.52,2.14,2.14,0,0,1-1.58.61Zm.43,4.32a3,3,0,0,0,1.65-.44,1.23,1.23,0,0,0,.69-1.06c0-.44-.33-.66-1-.66-.22,0-.59,0-1.11,0l-.79,0a.94.94,0,0,0-.43.23,2.16,2.16,0,0,0-.45.46.84.84,0,0,0-.15.47.77.77,0,0,0,.43.66A2,2,0,0,0,99.1,1064.53Zm0-5.07a1.16,1.16,0,0,0,.89-.37,1.44,1.44,0,0,0,.34-1,1.38,1.38,0,0,0-.34-1,1.26,1.26,0,0,0-1.77,0,1.37,1.37,0,0,0-.36,1,1.35,1.35,0,0,0,.36,1A1.17,1.17,0,0,0,99.06,1059.46Z"/><path d="M31.51,1079.7H30.42v2.06h-1v-2.06H25.51v-.78l3.51-6.06h1.4v5.94h1.09Zm-2.13-.9v-4.92l-2.83,4.92Z"/><path d="M63.19,1081.76H58.35v-8.9h1v8h3.81Z"/><path d="M71.07,1081.76h-1a3.77,3.77,0,0,1-.12-1.06,2.62,2.62,0,0,1-2.28,1.23,1.81,1.81,0,0,1-1.29-.52,1.76,1.76,0,0,1-.56-1.34,1.85,1.85,0,0,1,.2-.86,1.69,1.69,0,0,1,.57-.62,2.88,2.88,0,0,1,.92-.41,6.25,6.25,0,0,1,1.29-.2l1.1-.09v-.32c0-1.12-.52-1.69-1.57-1.69a4,4,0,0,0-.95.16,5.74,5.74,0,0,0-1,.38l-.26-.7a5.53,5.53,0,0,1,2.5-.69c1.5,0,2.25.79,2.25,2.38v2.83A6.33,6.33,0,0,0,71.07,1081.76Zm-1.15-2v-1.19c-.88.08-1.49.16-1.82.22a2.06,2.06,0,0,0-.86.39.93.93,0,0,0-.36.77.88.88,0,0,0,.31.71,1.08,1.08,0,0,0,.78.28,2,2,0,0,0,1-.32A2.85,2.85,0,0,0,69.92,1079.81Z"/><path d="M78.65,1081.76h-1v-1a3.07,3.07,0,0,1-2.23,1.13c-1.23,0-1.85-.75-1.85-2.24v-4.49h1v4.21a2.33,2.33,0,0,0,.26,1.25,1,1,0,0,0,.9.41,2.8,2.8,0,0,0,1.93-1.12v-4.75h1Z"/><path d="M86.41,1081.76h-1v-4.21a2.27,2.27,0,0,0-.28-1.27,1,1,0,0,0-.88-.4,2.84,2.84,0,0,0-1.94,1.13v4.75h-1v-6.57h1v1a3.11,3.11,0,0,1,2.23-1.12c1.24,0,1.85.75,1.85,2.23Z"/><path d="M94.14,1081.76h-1v-.94a2.38,2.38,0,0,1-.86.8,2.43,2.43,0,0,1-1.19.31,2,2,0,0,1-1.79-1,4.7,4.7,0,0,1-.65-2.56,4,4,0,0,1,.68-2.39,2.15,2.15,0,0,1,1.82-1,2.38,2.38,0,0,1,2,1v-3.18h1Zm-1-2V1077a2,2,0,0,0-1.7-1.14,1.44,1.44,0,0,0-1.28.73,3.22,3.22,0,0,0-.48,1.82,3.58,3.58,0,0,0,.45,1.88,1.36,1.36,0,0,0,1.22.74,1.62,1.62,0,0,0,.75-.2,2.49,2.49,0,0,0,.71-.61A1.55,1.55,0,0,0,93.15,1079.75Z"/><path d="M102,1075.37l-.4.94a2.86,2.86,0,0,0-1.12-.28,1.58,1.58,0,0,0-.85.25,2.56,2.56,0,0,0-.77.71,2.7,2.7,0,0,0-.35.52v4.25h-1v-6.57h1v1.33a2.33,2.33,0,0,1,2-1.49A3.25,3.25,0,0,1,102,1075.37Z"/><path d="M110,1075.19l-2.5,6.57a6.57,6.57,0,0,1-1.07,2,1.63,1.63,0,0,1-1.22.57,3.3,3.3,0,0,1-1.19-.22l.16-.79a2.94,2.94,0,0,0,.86.15,1.07,1.07,0,0,0,.87-.41,4.91,4.91,0,0,0,.69-1.34l-2.47-6.56h1.07l1.86,5.24,1.86-5.24Z"/><path d="M27.48,1095.52a3.59,3.59,0,0,1,.84-.11,2.58,2.58,0,0,1,2,.77,2.7,2.7,0,0,1,.74,1.93,2.78,2.78,0,0,1-.86,2.05,2.83,2.83,0,0,1-2.07.84,4.42,4.42,0,0,1-2-.39l.21-.88a4.52,4.52,0,0,0,1.77.36,1.73,1.73,0,0,0,1.32-.52,2.05,2.05,0,0,0,.5-1.46,1.88,1.88,0,0,0-.47-1.37,1.64,1.64,0,0,0-1.22-.48,2.87,2.87,0,0,0-1.07.21l-.62-.29v-4.25h4.07v.9H27.48Z"/><path d="M64.21,1091.93l-1.13,8.9h-1l-1.51-5-1.51,5h-1l-1.11-8.9h1l.75,7.24,1.31-4.38h1l1.32,4.39.77-7.25Z"/><path d="M71.24,1100.28a4.19,4.19,0,0,1-2.43.72,3.07,3.07,0,0,1-2.62-1.18,5.62,5.62,0,0,1-.9-3.44,5.79,5.79,0,0,1,.87-3.39,3,3,0,0,1,2.65-1.23,5.54,5.54,0,0,1,1.28.16,3.07,3.07,0,0,1,1,.44l-.34.81a3.93,3.93,0,0,0-2-.5,2.06,2.06,0,0,0-1.83.89,5.19,5.19,0,0,0-.6,2.82c0,2.48.81,3.71,2.43,3.71a4.17,4.17,0,0,0,2.11-.63Z"/><path d="M198.71,1019.91a2.82,2.82,0,0,1,1.81-.67,2.61,2.61,0,0,1,1.88.72,2.44,2.44,0,0,1,.76,1.87,3.21,3.21,0,0,1-.67,2.07,2.18,2.18,0,0,1-1.79.82,2.53,2.53,0,0,1-2.25-1.31,5.8,5.8,0,0,1-.84-3.2,6.12,6.12,0,0,1,.87-3.37,2.68,2.68,0,0,1,2.38-1.36,4.62,4.62,0,0,1,1.79.31l-.16.92a4.59,4.59,0,0,0-1.6-.32,1.8,1.8,0,0,0-1.61,1A5.05,5.05,0,0,0,198.71,1019.91Zm0,.89a4.06,4.06,0,0,0,.54,2.08,1.57,1.57,0,0,0,1.35.93,1.25,1.25,0,0,0,1.06-.5,2.31,2.31,0,0,0,.37-1.4,1.94,1.94,0,0,0-.41-1.29,1.46,1.46,0,0,0-1.15-.47A2.72,2.72,0,0,0,198.74,1020.8Z"/><path d="M233.36,1019.67a2.55,2.55,0,0,1,1.4.81,2.14,2.14,0,0,1,.5,1.42,2.35,2.35,0,0,1-.88,1.93,3.24,3.24,0,0,1-2.12.72h-2.53v-8.9h2.47a3.22,3.22,0,0,1,2,.56,1.9,1.9,0,0,1,.73,1.6,1.68,1.68,0,0,1-.42,1.12,2.32,2.32,0,0,1-1.16.71Zm-2.59-.48H232c1.27,0,1.9-.45,1.9-1.36a1.1,1.1,0,0,0-.47-1,2.37,2.37,0,0,0-1.37-.33h-1.27Zm0,4.46h1.17a2.59,2.59,0,0,0,1.63-.47,1.53,1.53,0,0,0,.6-1.28,1.62,1.62,0,0,0-.59-1.34,2.72,2.72,0,0,0-1.71-.47h-1.1Z"/><path d="M242.79,1021.3h-4.51a2.68,2.68,0,0,0,.64,1.84,2.05,2.05,0,0,0,1.59.72,5.63,5.63,0,0,0,1.85-.32l.17.79a4.93,4.93,0,0,1-2,.39,3.08,3.08,0,0,1-2.36-.94,3.52,3.52,0,0,1-.9-2.54,3.7,3.7,0,0,1,.8-2.49,2.63,2.63,0,0,1,2.08-.93,2.45,2.45,0,0,1,1.9.86,3.37,3.37,0,0,1,.77,2.31Zm-1.08-.81a1.84,1.84,0,0,0-.48-1.29,1.42,1.42,0,0,0-1.07-.53,1.68,1.68,0,0,0-1.26.51,2,2,0,0,0-.56,1.31Z"/><path d="M250.32,1024.55h-1v-.95a2.32,2.32,0,0,1-.86.81,2.43,2.43,0,0,1-1.19.31,2,2,0,0,1-1.79-1,4.56,4.56,0,0,1-.65-2.55,4,4,0,0,1,.68-2.39,2.14,2.14,0,0,1,1.81-.95,2.38,2.38,0,0,1,2,1v-3.18h1Zm-1-2v-2.73a2,2,0,0,0-1.7-1.14,1.48,1.48,0,0,0-1.29.72,3.34,3.34,0,0,0-.47,1.83,3.68,3.68,0,0,0,.44,1.88,1.38,1.38,0,0,0,1.22.74,1.69,1.69,0,0,0,.76-.2,2.49,2.49,0,0,0,.71-.61A1.55,1.55,0,0,0,249.33,1022.54Z"/><path d="M203,1035.46l-3.52,8.16h-1.06l3.47-8h-4.17v-.9H203Z"/><path d="M233.36,1038.74a2.55,2.55,0,0,1,1.4.81,2.16,2.16,0,0,1,.5,1.42,2.35,2.35,0,0,1-.88,1.93,3.24,3.24,0,0,1-2.12.72h-2.53v-8.9h2.47a3.16,3.16,0,0,1,2,.57,1.87,1.87,0,0,1,.73,1.59,1.68,1.68,0,0,1-.42,1.12,2.32,2.32,0,0,1-1.16.71Zm-2.59-.48H232c1.27,0,1.9-.45,1.9-1.36a1.1,1.1,0,0,0-.47-1,2.37,2.37,0,0,0-1.37-.33h-1.27Zm0,4.46h1.17a2.59,2.59,0,0,0,1.63-.47,1.53,1.53,0,0,0,.6-1.28,1.62,1.62,0,0,0-.59-1.34,2.72,2.72,0,0,0-1.71-.47h-1.1Z"/><path d="M242.75,1043.62h-1a3.77,3.77,0,0,1-.12-1.06,2.63,2.63,0,0,1-2.29,1.23,1.81,1.81,0,0,1-1.29-.52,1.76,1.76,0,0,1-.56-1.34,1.85,1.85,0,0,1,.2-.86,1.69,1.69,0,0,1,.57-.62,3,3,0,0,1,.92-.41,6.48,6.48,0,0,1,1.29-.2l1.11-.09v-.32c0-1.12-.53-1.69-1.58-1.69a3.91,3.91,0,0,0-.94.16,5.55,5.55,0,0,0-1,.38l-.25-.7a5.46,5.46,0,0,1,2.49-.69c1.5,0,2.25.79,2.25,2.38v2.82A6.36,6.36,0,0,0,242.75,1043.62Zm-1.14-1.95v-1.19c-.89.08-1.5.15-1.83.22a2.06,2.06,0,0,0-.86.39.93.93,0,0,0-.36.77.88.88,0,0,0,.31.71,1.15,1.15,0,0,0,.79.28,2,2,0,0,0,1-.32A3.07,3.07,0,0,0,241.61,1041.67Z"/><path d="M250.4,1043.32a4.51,4.51,0,0,1-1.94.46c-1.18,0-1.76-.62-1.76-1.86v-4h-1.27v-.85h1.27v-1.8h1v1.8h2.24v.85h-2.24v3.76a1.43,1.43,0,0,0,.27.93.88.88,0,0,0,.72.33,3.84,3.84,0,0,0,1.6-.36Z"/><path d="M258.09,1043.62h-1v-4.21a2.19,2.19,0,0,0-.28-1.27,1,1,0,0,0-.88-.4,2.84,2.84,0,0,0-1.94,1.13v4.75h-1v-8.9h1V1038a3.07,3.07,0,0,1,2.24-1.12c1.23,0,1.84.74,1.84,2.23Z"/><path d="M266,1037.22l-.4,1a2.86,2.86,0,0,0-1.12-.28,1.58,1.58,0,0,0-.85.25,2.56,2.56,0,0,0-.77.71,2.7,2.7,0,0,0-.35.52v4.25h-1v-6.57h1v1.33a2.34,2.34,0,0,1,2-1.49A3.37,3.37,0,0,1,266,1037.22Z"/><path d="M271.05,1036.89a2.69,2.69,0,0,1,2.16.95,3.74,3.74,0,0,1,.8,2.49,3.8,3.8,0,0,1-.8,2.51,2.93,2.93,0,0,1-4.32,0,4.32,4.32,0,0,1,0-5A2.7,2.7,0,0,1,271.05,1036.89Zm0,6a1.61,1.61,0,0,0,1.41-.75,3.16,3.16,0,0,0,.52-1.84,3.2,3.2,0,0,0-.51-1.87,1.75,1.75,0,0,0-2.84,0,3.28,3.28,0,0,0-.5,1.88,3.22,3.22,0,0,0,.51,1.85A1.63,1.63,0,0,0,271.05,1042.93Z"/><path d="M278.8,1036.89a2.68,2.68,0,0,1,2.16.95,3.74,3.74,0,0,1,.8,2.49,3.8,3.8,0,0,1-.8,2.51,2.93,2.93,0,0,1-4.32,0,3.78,3.78,0,0,1-.8-2.51,3.7,3.7,0,0,1,.81-2.5A2.66,2.66,0,0,1,278.8,1036.89Zm0,6a1.64,1.64,0,0,0,1.42-.75,3.23,3.23,0,0,0,.51-1.84,3.2,3.2,0,0,0-.51-1.87,1.75,1.75,0,0,0-2.84,0,3.28,3.28,0,0,0-.5,1.88,3.22,3.22,0,0,0,.51,1.85A1.63,1.63,0,0,0,278.8,1042.93Z"/><path d="M289.62,1043.62h-1v-4.31c0-1-.2-1.57-.58-1.57q-.3,0-.66.54a3.54,3.54,0,0,0-.35.6v4.74h-1v-4.31c0-1-.2-1.57-.59-1.57-.19,0-.41.18-.64.54a3.26,3.26,0,0,0-.36.6v4.74h-1v-6.57h.94v1a2.86,2.86,0,0,1,.66-.84,1.21,1.21,0,0,1,.76-.31,1,1,0,0,1,.71.31,1.69,1.69,0,0,1,.44.84,2.71,2.71,0,0,1,.66-.84,1.21,1.21,0,0,1,.76-.31c.79,0,1.19.71,1.19,2.13Z"/><path d="M201.2,1057.81a2.79,2.79,0,0,1,1.41.9,2.37,2.37,0,0,1,.5,1.49,2.46,2.46,0,0,1-.81,1.94,3.19,3.19,0,0,1-4,0,2.5,2.5,0,0,1-.8-1.93,2.29,2.29,0,0,1,.52-1.49,2.74,2.74,0,0,1,1.44-.91,2.23,2.23,0,0,1-1.18-.73,1.83,1.83,0,0,1-.44-1.21,2.14,2.14,0,0,1,.68-1.55,2.37,2.37,0,0,1,1.79-.7,2.54,2.54,0,0,1,1.83.69,2.14,2.14,0,0,1,.72,1.56,1.85,1.85,0,0,1-.45,1.2A2.29,2.29,0,0,1,201.2,1057.81Zm-.93.45c-1.15.34-1.72,1-1.72,1.9a1.68,1.68,0,0,0,.52,1.3,1.73,1.73,0,0,0,1.23.49,1.68,1.68,0,0,0,1.73-1.79,1.92,1.92,0,0,0-.34-1.12A2.44,2.44,0,0,0,200.27,1058.26Zm0-.88.31-.08a2.21,2.21,0,0,0,.46-.18,1.93,1.93,0,0,0,.36-.28,1.31,1.31,0,0,0,.26-.4,1.27,1.27,0,0,0,.1-.52,1.29,1.29,0,0,0-.43-1,1.49,1.49,0,0,0-1.06-.4,1.4,1.4,0,0,0-1,.41,1.3,1.3,0,0,0-.43,1,1.31,1.31,0,0,0,.54,1.1,2,2,0,0,0,.53.27A1.94,1.94,0,0,0,200.27,1057.38Z"/><path d="M234.19,1054.78a4.49,4.49,0,0,0-1.51-.28,2.24,2.24,0,0,0-1.32.37,1.25,1.25,0,0,0-.5,1.05c0,.54.44,1,1.33,1.42l1.3.63a3.36,3.36,0,0,1,.65.49,2.26,2.26,0,0,1,.52.73,2.06,2.06,0,0,1,.2.94,2.47,2.47,0,0,1-.87,2,3.18,3.18,0,0,1-2.06.71,4.26,4.26,0,0,1-2-.45l.21-.89a4.38,4.38,0,0,0,1.77.46,2.09,2.09,0,0,0,1.42-.46,1.54,1.54,0,0,0,.53-1.26,1.5,1.5,0,0,0-.34-1,3.74,3.74,0,0,0-1.28-.85c-.64-.29-1.06-.49-1.24-.6a2.46,2.46,0,0,1-.56-.44,2,2,0,0,1-.58-1.41,2,2,0,0,1,.79-1.72,3.19,3.19,0,0,1,2-.62,5.94,5.94,0,0,1,1.77.27Z"/><path d="M241,1062.69h-1V1057H238v-.85H241Zm-.48-9.06a.68.68,0,0,1,.67.68.69.69,0,0,1-.19.48.66.66,0,0,1-.48.2.63.63,0,0,1-.46-.21.65.65,0,0,1-.2-.47.69.69,0,0,1,.2-.48A.66.66,0,0,1,240.47,1053.63Z"/><path d="M250.4,1062.39a4.51,4.51,0,0,1-1.94.46c-1.18,0-1.76-.62-1.76-1.86v-4h-1.27v-.85h1.27v-1.8h1v1.8h2.24v.85h-2.24v3.76a1.43,1.43,0,0,0,.27.93.88.88,0,0,0,.72.33,3.84,3.84,0,0,0,1.6-.36Z"/><path d="M258.16,1062.39a4.55,4.55,0,0,1-2,.46c-1.17,0-1.76-.62-1.76-1.86v-4h-1.26v-.85h1.26v-1.8h1v1.8h2.23v.85h-2.23v3.76a1.49,1.49,0,0,0,.26.93.88.88,0,0,0,.72.33,3.84,3.84,0,0,0,1.6-.36Z"/><path d="M264.21,1062.69h-1V1057h-1.93v-.85h2.92Zm-.48-9.06a.68.68,0,0,1,.47,1.16.62.62,0,0,1-.47.2.6.6,0,0,1-.46-.21.65.65,0,0,1-.2-.47.69.69,0,0,1,.2-.48A.63.63,0,0,1,263.73,1053.63Z"/><path d="M273.6,1062.69h-1v-4.21a2.18,2.18,0,0,0-.29-1.27,1,1,0,0,0-.88-.4,2.82,2.82,0,0,0-1.93,1.13v4.75h-1v-6.57h1v1a3.06,3.06,0,0,1,2.23-1.12c1.23,0,1.85.74,1.85,2.23Z"/><path d="M278.11,1060.21c-.61.3-.92.56-.92.79a.36.36,0,0,0,.21.31,1.16,1.16,0,0,0,.58.13l2.21-.07a1.78,1.78,0,0,1,1.23.39,1.37,1.37,0,0,1,.44,1.09,2.06,2.06,0,0,1-1,1.78,4.11,4.11,0,0,1-2.33.66,3.12,3.12,0,0,1-1.78-.46,1.36,1.36,0,0,1-.7-1.18c0-.53.36-1,1.08-1.33-.6-.28-.89-.62-.89-1s.38-.9,1.14-1.3a2.22,2.22,0,0,1-.81-.83,2.18,2.18,0,0,1-.28-1.08,2,2,0,0,1,.63-1.52,2.18,2.18,0,0,1,1.57-.6,2.6,2.6,0,0,1,1.23.29l1.95-.3v1h-1.25a2.3,2.3,0,0,1,.28,1.17,2.09,2.09,0,0,1-.62,1.52,2.18,2.18,0,0,1-1.59.61Zm.42,4.32a3,3,0,0,0,1.66-.44,1.24,1.24,0,0,0,.68-1.06c0-.44-.32-.66-1-.66-.21,0-.58,0-1.11,0l-.78,0a.89.89,0,0,0-.43.23,1.76,1.76,0,0,0-.45.46.86.86,0,0,0-.16.47.79.79,0,0,0,.43.66A2,2,0,0,0,278.53,1064.53Zm0-5.07a1.14,1.14,0,0,0,.89-.37,1.39,1.39,0,0,0,.34-1,1.42,1.42,0,0,0-.33-1,1.16,1.16,0,0,0-.9-.36,1.18,1.18,0,0,0-.88.37,1.41,1.41,0,0,0-.35,1,1.39,1.39,0,0,0,.35,1A1.19,1.19,0,0,0,278.49,1059.46Z"/><path d="M202,1077.49a2.72,2.72,0,0,1-1.81.67,2.64,2.64,0,0,1-1.89-.72,2.49,2.49,0,0,1-.75-1.87,3.06,3.06,0,0,1,.72-2.06,2.36,2.36,0,0,1,1.87-.83,2.42,2.42,0,0,1,2.17,1.27,6.12,6.12,0,0,1,.78,3.24,6,6,0,0,1-.91,3.35,2.83,2.83,0,0,1-2.46,1.38,4.62,4.62,0,0,1-1.79-.32l.16-.91a4.78,4.78,0,0,0,1.6.32,1.91,1.91,0,0,0,1.68-1A4.64,4.64,0,0,0,202,1077.49Zm0-.89a4.47,4.47,0,0,0-.48-2.11,1.45,1.45,0,0,0-1.28-.9,1.4,1.4,0,0,0-1.14.52,2.14,2.14,0,0,0-.42,1.38,1.86,1.86,0,0,0,.43,1.27,1.42,1.42,0,0,0,1.13.49,2.57,2.57,0,0,0,1.68-.59Z"/><path d="M234.68,1081.76H230v-8.9h4.61v.9h-3.57v2.76h3.43v.9h-3.43v3.44h3.61Z"/><path d="M242.59,1081.76h-1v-4.21a2.18,2.18,0,0,0-.29-1.27,1,1,0,0,0-.88-.4,2.82,2.82,0,0,0-1.93,1.13v4.75h-1v-6.57h1v1a3.09,3.09,0,0,1,2.23-1.12c1.23,0,1.85.75,1.85,2.23Z"/><path d="M250.4,1081.46a4.51,4.51,0,0,1-1.94.46c-1.18,0-1.76-.62-1.76-1.86v-4h-1.27v-.85h1.27v-1.8h1v1.8h2.24v.85h-2.24v3.76a1.43,1.43,0,0,0,.27.93.88.88,0,0,0,.72.33,3.84,3.84,0,0,0,1.6-.36Z"/><path d="M258.2,1075.37l-.4.94a2.9,2.9,0,0,0-1.13-.28,1.61,1.61,0,0,0-.85.25,2.65,2.65,0,0,0-.76.71,2.23,2.23,0,0,0-.35.52v4.25h-1v-6.57h1v1.33a2.32,2.32,0,0,1,2-1.49A3.25,3.25,0,0,1,258.2,1075.37Z"/><path d="M266.14,1075.19l-2.49,6.57a6.57,6.57,0,0,1-1.07,2,1.63,1.63,0,0,1-1.22.57,3.39,3.39,0,0,1-1.2-.22l.17-.79a2.88,2.88,0,0,0,.86.15,1.07,1.07,0,0,0,.87-.41,4.94,4.94,0,0,0,.68-1.34l-2.46-6.56h1.07l1.86,5.24,1.86-5.24Z"/><path d="M202.85,1100.83h-4.68v-.9h1.88V1093l-1.77.89v-1l1.92-1h.89v8h1.76Z"/><path d="M208,1091.76a2.41,2.41,0,0,1,2.17,1.22,6.37,6.37,0,0,1,.76,3.4,6.65,6.65,0,0,1-.73,3.38,2.56,2.56,0,0,1-4.37,0,6.38,6.38,0,0,1-.76-3.41,6.5,6.5,0,0,1,.74-3.37A2.39,2.39,0,0,1,208,1091.76Zm0,8.33a1.46,1.46,0,0,0,1.38-.88,8.9,8.9,0,0,0,0-5.65,1.51,1.51,0,0,0-2.76,0,9,9,0,0,0,0,5.62A1.45,1.45,0,0,0,208,1100.09Zm0-4.65a.92.92,0,0,1,1,.94,1,1,0,0,1-.28.71.88.88,0,0,1-.67.29.87.87,0,0,1-.65-.29,1,1,0,0,1-.28-.71.92.92,0,0,1,.27-.67A.9.9,0,0,1,208,1095.44Z"/><path d="M229.73,1091.93h1.76a3.57,3.57,0,0,1,2.8,1.19,4.75,4.75,0,0,1,1.05,3.26,4.66,4.66,0,0,1-1.07,3.29,3.56,3.56,0,0,1-2.74,1.16h-1.8Zm1,8h.73a2.42,2.42,0,0,0,2-.94,4.15,4.15,0,0,0,.73-2.61,4.1,4.1,0,0,0-.74-2.6,2.41,2.41,0,0,0-2-1h-.73Z"/><path d="M242.79,1097.58h-4.51a2.66,2.66,0,0,0,.64,1.84,2.05,2.05,0,0,0,1.59.72,5.63,5.63,0,0,0,1.85-.32l.17.79a4.93,4.93,0,0,1-2,.39,3.08,3.08,0,0,1-2.36-.94,3.49,3.49,0,0,1-.9-2.53,3.67,3.67,0,0,1,.81-2.5,2.59,2.59,0,0,1,2.07-.93,2.42,2.42,0,0,1,1.9.87,3.33,3.33,0,0,1,.77,2.3Zm-1.08-.8a1.85,1.85,0,0,0-.48-1.3,1.42,1.42,0,0,0-1.07-.53,1.68,1.68,0,0,0-1.26.51,2,2,0,0,0-.56,1.32Z"/><path d="M250.32,1100.61a4.5,4.5,0,0,1-1.89.39,3.29,3.29,0,0,1-2.47-.94,3.85,3.85,0,0,1,0-5,3.32,3.32,0,0,1,2.45-.94,5.19,5.19,0,0,1,1.88.35l-.26.81a5.11,5.11,0,0,0-1.61-.31,2.23,2.23,0,0,0-1.72.7,2.74,2.74,0,0,0-.63,1.9,2.7,2.7,0,0,0,.65,1.85,2.16,2.16,0,0,0,1.71.74,4.88,4.88,0,0,0,1.72-.32Z"/><path d="M258.74,1100.83h-1.29l-2.79-3.27-.65.56v2.71h-1v-8.9h1v5.1l3.09-2.77h1.25l-3,2.69Z"/><circle class="cls-4" cx="765.53" cy="1024.02" r="11.44"/><line class="cls-4" x1="765.53" y1="1024.02" x2="765.53" y2="1035.46"/><path d="M486.1,303.18h-4.68v-.9h1.89v-6.91l-1.78.89v-1l1.92-1h.89v8h1.76Z"/><path d="M484.11,184.54a2.6,2.6,0,0,1,1.31.83,2.16,2.16,0,0,1,.49,1.36,2.52,2.52,0,0,1-.92,2,3.16,3.16,0,0,1-2.15.79,3.84,3.84,0,0,1-1.9-.46l.2-.85a4.09,4.09,0,0,0,1.73.41,2,2,0,0,0,1.38-.5,1.66,1.66,0,0,0,.57-1.29,1.55,1.55,0,0,0-.61-1.27,2.56,2.56,0,0,0-1.62-.48h-.27v-.85h.08a2.7,2.7,0,0,0,1.6-.46,1.46,1.46,0,0,0,.63-1.23,1.18,1.18,0,0,0-.46-1,2,2,0,0,0-1.25-.36,3.85,3.85,0,0,0-1.53.38l-.14-.89a4,4,0,0,1,1.73-.4,3,3,0,0,1,2,.63,2,2,0,0,1,.77,1.61,1.94,1.94,0,0,1-.47,1.27,2,2,0,0,1-1.13.75Z"/><path d="M320.4,241.81h-4.89v-.75c1.24-1.38,2-2.31,2.41-2.78a6.9,6.9,0,0,0,.9-1.48,3.64,3.64,0,0,0,.35-1.55,1.55,1.55,0,0,0-.45-1.17,1.74,1.74,0,0,0-1.26-.43,5.15,5.15,0,0,0-1.68.39l-.15-.89a5.08,5.08,0,0,1,2-.41,2.77,2.77,0,0,1,1.92.67,2.36,2.36,0,0,1,.73,1.8,3.71,3.71,0,0,1-.38,1.59,7.39,7.39,0,0,1-1,1.51c-.39.49-1.15,1.35-2.29,2.6h3.75Z"/><path d="M401.56,118.94a2.65,2.65,0,0,1-1.81.67,2.61,2.61,0,0,1-1.88-.72,2.44,2.44,0,0,1-.76-1.86,3,3,0,0,1,.73-2.06,2.34,2.34,0,0,1,1.86-.84,2.45,2.45,0,0,1,2.18,1.28,6.06,6.06,0,0,1,.78,3.23,6,6,0,0,1-.92,3.35,2.82,2.82,0,0,1-2.46,1.38,4.66,4.66,0,0,1-1.79-.31l.17-.92a4.5,4.5,0,0,0,1.6.32,1.88,1.88,0,0,0,1.67-1A4.7,4.7,0,0,0,401.56,118.94Zm0-.89a4.4,4.4,0,0,0-.49-2.1,1.43,1.43,0,0,0-1.27-.91,1.39,1.39,0,0,0-1.14.53,2.06,2.06,0,0,0-.43,1.37,1.89,1.89,0,0,0,.43,1.27,1.44,1.44,0,0,0,1.14.49,2.49,2.49,0,0,0,1.67-.59Z"/><path d="M330.22,468.21h-1.1v2.06h-1v-2.06h-3.88v-.78l3.52-6.06h1.39v5.94h1.1Zm-2.13-.9v-4.92l-2.83,4.92Z"/><path d="M323.82,535.94a3.46,3.46,0,0,1,.84-.11,2.63,2.63,0,0,1,2,.77,2.7,2.7,0,0,1,.73,1.93,2.77,2.77,0,0,1-.85,2.05,2.85,2.85,0,0,1-2.08.84,4.37,4.37,0,0,1-1.95-.39l.21-.87a4.51,4.51,0,0,0,1.77.35,1.72,1.72,0,0,0,1.31-.52,2,2,0,0,0,.51-1.46,1.84,1.84,0,0,0-.48-1.37,1.62,1.62,0,0,0-1.21-.48,2.92,2.92,0,0,0-1.08.21l-.62-.29v-4.25H327v.9h-3.16Z"/><path d="M398.54,75.47h-4.68v-.9h1.88V67.65l-1.78.89v-1l1.93-1h.89v8h1.76Z"/><path d="M403.73,66.4a2.42,2.42,0,0,1,2.17,1.21,6.41,6.41,0,0,1,.76,3.41,6.5,6.5,0,0,1-.74,3.37,2.39,2.39,0,0,1-2.19,1.25,2.42,2.42,0,0,1-2.17-1.21,6.38,6.38,0,0,1-.77-3.41,6.56,6.56,0,0,1,.75-3.38A2.38,2.38,0,0,1,403.73,66.4Zm0,8.33a1.46,1.46,0,0,0,1.38-.88,6.66,6.66,0,0,0,.45-2.83,6.58,6.58,0,0,0-.45-2.82,1.51,1.51,0,0,0-2.76,0,6.6,6.6,0,0,0-.45,2.8,6.61,6.61,0,0,0,.45,2.82A1.47,1.47,0,0,0,403.73,74.73Zm0-4.65a.9.9,0,0,1,.67.27.89.89,0,0,1,.28.67,1,1,0,0,1-.28.71.9.9,0,0,1-.67.29.91.91,0,0,1-.66-.29,1,1,0,0,1-.27-.71.92.92,0,0,1,.93-.94Z"/><path d="M459.4,526.3h-4.68v-.9h1.89v-6.92l-1.78.89v-1l1.92-1h.89v8h1.76Z"/><path d="M464.59,517.23a2.42,2.42,0,0,1,2.18,1.21,6.5,6.5,0,0,1,.76,3.41,6.6,6.6,0,0,1-.74,3.37,2.4,2.4,0,0,1-2.2,1.25,2.43,2.43,0,0,1-2.17-1.21,6.48,6.48,0,0,1-.76-3.41,6.64,6.64,0,0,1,.74-3.38A2.4,2.4,0,0,1,464.59,517.23Zm0,8.33a1.46,1.46,0,0,0,1.39-.89,9.06,9.06,0,0,0,0-5.64,1.51,1.51,0,0,0-2.76,0,9,9,0,0,0,0,5.62A1.46,1.46,0,0,0,464.59,525.56Zm0-4.65a.94.94,0,0,1,.95.94,1,1,0,0,1-.28.7.89.89,0,0,1-.67.3.85.85,0,0,1-.66-.3,1,1,0,0,1-.27-.7.91.91,0,0,1,.93-.94Z"/><path d="M469.37,754.84a2.81,2.81,0,0,1,1.81-.68,2.62,2.62,0,0,1,1.88.73,2.44,2.44,0,0,1,.76,1.86,3.22,3.22,0,0,1-.67,2.08,2.21,2.21,0,0,1-1.79.82,2.57,2.57,0,0,1-2.26-1.31,5.91,5.91,0,0,1-.83-3.2,6.13,6.13,0,0,1,.87-3.38,2.69,2.69,0,0,1,2.37-1.35,4.84,4.84,0,0,1,1.8.3l-.16.92a4.83,4.83,0,0,0-1.6-.32,1.79,1.79,0,0,0-1.61,1A5,5,0,0,0,469.37,754.84Zm0,.89a4,4,0,0,0,.54,2.07,1.54,1.54,0,0,0,1.35.94,1.23,1.23,0,0,0,1.06-.51,2.34,2.34,0,0,0,.37-1.39,1.9,1.9,0,0,0-.41-1.29,1.44,1.44,0,0,0-1.16-.48A2.67,2.67,0,0,0,469.4,755.73Z"/><path d="M353.86,715.53a2.59,2.59,0,0,1,1.41.9,2.3,2.3,0,0,1,.51,1.49,2.48,2.48,0,0,1-.82,1.94,3.16,3.16,0,0,1-4,0,2.47,2.47,0,0,1-.8-1.92,2.29,2.29,0,0,1,.52-1.49,2.74,2.74,0,0,1,1.44-.91,2.19,2.19,0,0,1-1.18-.73,1.84,1.84,0,0,1-.45-1.21,2.15,2.15,0,0,1,.69-1.55,2.37,2.37,0,0,1,1.79-.7,2.54,2.54,0,0,1,1.83.69,2.11,2.11,0,0,1,.72,1.56,1.87,1.87,0,0,1-.45,1.2A2.32,2.32,0,0,1,353.86,715.53Zm-.92.45c-1.15.34-1.73,1-1.73,1.9a1.69,1.69,0,0,0,.53,1.3,1.73,1.73,0,0,0,1.23.49,1.68,1.68,0,0,0,1.73-1.79,1.9,1.9,0,0,0-.34-1.12A2.51,2.51,0,0,0,352.94,716Zm0-.88.31-.08a2.21,2.21,0,0,0,.46-.18,1.93,1.93,0,0,0,.36-.28,1.84,1.84,0,0,0,.26-.4,1.27,1.27,0,0,0,.1-.52,1.32,1.32,0,0,0-.43-1,1.55,1.55,0,0,0-1.06-.4,1.46,1.46,0,0,0-1,.41,1.36,1.36,0,0,0-.42,1,1.33,1.33,0,0,0,.15.65,1.31,1.31,0,0,0,.39.45,1.81,1.81,0,0,0,.52.26A1.51,1.51,0,0,0,352.94,715.1Z"/><path d="M442.41,845.31l-3.53,8.16h-1.06l3.48-8h-4.17v-.91h5.28Z"/><path d="M426.6,890.71l-3.53,8.16H422l3.47-8h-4.17V890h5.28Z"/><path d="M323.16,824.15a2.82,2.82,0,0,1,1.81-.67,2.64,2.64,0,0,1,1.89.72,2.47,2.47,0,0,1,.75,1.87,3.16,3.16,0,0,1-.67,2.07,2.16,2.16,0,0,1-1.78.82,2.54,2.54,0,0,1-2.26-1.31,5.8,5.8,0,0,1-.83-3.2,6.12,6.12,0,0,1,.86-3.37,2.68,2.68,0,0,1,2.38-1.36,4.71,4.71,0,0,1,1.8.31l-.17.92a4.78,4.78,0,0,0-1.6-.32,1.77,1.77,0,0,0-1.6,1A5,5,0,0,0,323.16,824.15Zm0,.89a4.06,4.06,0,0,0,.54,2.08,1.57,1.57,0,0,0,1.35.93,1.25,1.25,0,0,0,1.06-.5,2.31,2.31,0,0,0,.37-1.4,1.89,1.89,0,0,0-.41-1.29,1.46,1.46,0,0,0-1.15-.47A2.72,2.72,0,0,0,323.19,825Z"/><path d="M305.94,603.74h-4.68v-.9h1.89v-6.92l-1.78.89v-1l1.92-1h.89v8.05h1.76Z"/><path d="M311.13,594.67a2.43,2.43,0,0,1,2.18,1.21,6.5,6.5,0,0,1,.76,3.41,6.6,6.6,0,0,1-.74,3.37,2.41,2.41,0,0,1-2.2,1.25A2.45,2.45,0,0,1,309,602.7a6.41,6.41,0,0,1-.76-3.41,6.64,6.64,0,0,1,.74-3.38A2.4,2.4,0,0,1,311.13,594.67Zm0,8.33a1.47,1.47,0,0,0,1.39-.89,9.06,9.06,0,0,0,0-5.64,1.51,1.51,0,0,0-2.76,0,6.57,6.57,0,0,0-.46,2.8,6.64,6.64,0,0,0,.45,2.82A1.48,1.48,0,0,0,311.13,603Zm0-4.66a.94.94,0,0,1,.94.95,1,1,0,0,1-.27.7.89.89,0,0,1-.67.3.85.85,0,0,1-.66-.3,1,1,0,0,1-.28-.7.94.94,0,0,1,.94-.95Z"/></g></svg>